{
.appVersion = "1352";
DisplayStrings = (

glyphs = (
{
glyphname = .notdef;
lastChange = "2021-11-24 07:09:24 +0000";
layers = (
{
layerId = "5ED96FCC-ACEE-47D8-A1F6-56FBB5DDEA2A";
paths = (
{
closed = 1;
nodes = (
"50 0 LINE",
"424 0 LINE",
"424 702 LINE",
"50 702 LINE"
);
},
{
closed = 1;
nodes = (
"369 674 LINE",
"236 393 LINE",
"102 674 LINE"
);
},
{
closed = 1;
nodes = (
"387 638 LINE",
"387 75 LINE",
"253 357 LINE"
);
},
{
closed = 1;
nodes = (
"85 77 LINE",
"85 637 LINE",
"218 357 LINE"
);
},
{
closed = 1;
nodes = (
"370 40 LINE",
"101 40 LINE",
"236 322 LINE"
);
}
);
width = 474;
}
);
note = .notdef;
},
{
glyphname = A;
lastChange = "2022-02-04 13:17:06 +0000";
layers = (
{
layerId = "5ED96FCC-ACEE-47D8-A1F6-56FBB5DDEA2A";
paths = (
{
closed = 1;
nodes = (
"840 -2 OFFCURVE",
"836 2 OFFCURVE",
"832 2 CURVE SMOOTH",
"823 2 OFFCURVE",
"811 -11 OFFCURVE",
"811 -29 CURVE SMOOTH",
"811 -53 OFFCURVE",
"796 -71 OFFCURVE",
"772 -71 CURVE SMOOTH",
"742 -71 OFFCURVE",
"733 -11 OFFCURVE",
"724 15 CURVE SMOOTH",
"714 46 OFFCURVE",
"714 99 OFFCURVE",
"714 153 CURVE SMOOTH",
"714 206 OFFCURVE",
"714 261 OFFCURVE",
"704 293 CURVE",
"703 335 LINE",
"708 336 OFFCURVE",
"712 337 OFFCURVE",
"715 338 CURVE SMOOTH",
"731 341 OFFCURVE",
"741 352 OFFCURVE",
"741 359 CURVE SMOOTH",
"741 363 OFFCURVE",
"736 366 OFFCURVE",
"725 364 CURVE SMOOTH",
"720 363 OFFCURVE",
"712 362 OFFCURVE",
"703 361 CURVE",
"703 367 LINE",
"696 389 LINE",
"695 463 LINE",
"682 504 OFFCURVE",
"676 644 OFFCURVE",
"620 644 CURVE SMOOTH",
"573 644 OFFCURVE",
"573 600 OFFCURVE",
"555 571 CURVE SMOOTH",
"546 556 OFFCURVE",
"523 511 OFFCURVE",
"513 498 CURVE SMOOTH",
"479 454 OFFCURVE",
"487 391 OFFCURVE",
"462 340 CURVE SMOOTH",
"459 334 OFFCURVE",
"456 329 OFFCURVE",
"454 323 CURVE",
"425 318 OFFCURVE",
"396 312 OFFCURVE",
"365 305 CURVE SMOOTH",
"354 302 OFFCURVE",
"349 294 OFFCURVE",
"349 285 CURVE SMOOTH",
"349 273 OFFCURVE",
"358 262 OFFCURVE",
"373 265 CURVE SMOOTH",
"396 270 OFFCURVE",
"417 276 OFFCURVE",
"438 282 CURVE",
"418 226 OFFCURVE",
"404 171 OFFCURVE",
"364 112 CURVE SMOOTH",
"330 61 OFFCURVE",
"271 23 OFFCURVE",
"196 23 CURVE SMOOTH",
"187 23 OFFCURVE",
"178 24 OFFCURVE",
"169 25 CURVE SMOOTH",
"96 33 OFFCURVE",
"51 93 OFFCURVE",
"51 182 CURVE SMOOTH",
"51 233 OFFCURVE",
"91 320 OFFCURVE",
"135 333 CURVE SMOOTH",
"146 337 OFFCURVE",
"169 352 OFFCURVE",
"195 352 CURVE SMOOTH",
"205 352 OFFCURVE",
"215 349 OFFCURVE",
"225 343 CURVE SMOOTH",
"275 311 OFFCURVE",
"307 245 OFFCURVE",
"307 189 CURVE SMOOTH",
"307 152 OFFCURVE",
"273 146 OFFCURVE",
"240 143 CURVE SMOOTH",
"227 142 OFFCURVE",
"221 133 OFFCURVE",
"221 123 CURVE SMOOTH",
"221 113 OFFCURVE",
"229 102 OFFCURVE",
"243 103 CURVE SMOOTH",
"303 109 OFFCURVE",
"336 128 OFFCURVE",
"336 192 CURVE SMOOTH",
"336 262 OFFCURVE",
"299 319 OFFCURVE",
"236 358 CURVE SMOOTH",
"220 368 OFFCURVE",
"204 372 OFFCURVE",
"189 372 CURVE SMOOTH",
"160 372 OFFCURVE",
"136 357 OFFCURVE",
"120 352 CURVE SMOOTH",
"82 340 OFFCURVE",
"42 288 OFFCURVE",
"22 258 CURVE",
"11 245 OFFCURVE",
"-3 200 OFFCURVE",
"-3 176 CURVE SMOOTH",
"-3 62 OFFCURVE",
"42 -23 OFFCURVE",
"153 -23 CURVE SMOOTH",
"255 -23 OFFCURVE",
"340 38 OFFCURVE",
"385 104 CURVE SMOOTH",
"429 169 OFFCURVE",
"445 230 OFFCURVE",
"469 291 CURVE",
"506 301 OFFCURVE",
"543 311 OFFCURVE",
"584 318 CURVE SMOOTH",
"601 321 OFFCURVE",
"627 325 OFFCURVE",
"652 328 CURVE",
"653 251 LINE",
"675 185 OFFCURVE",
"675 72 OFFCURVE",
"695 9 CURVE SMOOTH",
"707 -27 OFFCURVE",
"733 -100 OFFCURVE",
"778 -100 CURVE SMOOTH",
"815 -100 OFFCURVE",
"840 -48 OFFCURVE",
"840 -11 CURVE SMOOTH"
);
},
{
closed = 1;
nodes = (
"651 355 LINE",
"623 351 OFFCURVE",
"595 348 OFFCURVE",
"578 345 CURVE SMOOTH",
"546 339 OFFCURVE",
"516 334 OFFCURVE",
"485 329 CURVE",
"488 335 LINE SMOOTH",
"513 384 OFFCURVE",
"511 445 OFFCURVE",
"543 487 CURVE SMOOTH",
"553 500 OFFCURVE",
"569 545 OFFCURVE",
"580 560 CURVE SMOOTH",
"587 569 OFFCURVE",
"593 573 OFFCURVE",
"598 573 CURVE SMOOTH",
"618 573 OFFCURVE",
"630 515 OFFCURVE",
"640 463 CURVE",
"643 382 LINE",
"651 358 LINE"
);
}
);
width = 778;
}
);
note = A;
unicode = 0041;
},
{
glyphname = AE;
lastChange = "2022-02-04 13:17:06 +0000";
layers = (
{
layerId = "5ED96FCC-ACEE-47D8-A1F6-56FBB5DDEA2A";
paths = (
{
closed = 1;
nodes = (
"997 161 OFFCURVE",
"965 199 OFFCURVE",
"908 199 CURVE SMOOTH",
"846 199 OFFCURVE",
"770 163 OFFCURVE",
"770 92 CURVE SMOOTH",
"770 58 OFFCURVE",
"791 35 OFFCURVE",
"825 35 CURVE SMOOTH",
"847 35 OFFCURVE",
"872 50 OFFCURVE",
"872 75 CURVE SMOOTH",
"872 83 OFFCURVE",
"866 103 OFFCURVE",
"855 103 CURVE SMOOTH",
"852 103 OFFCURVE",
"850 100 OFFCURVE",
"850 97 CURVE SMOOTH",
"850 91 OFFCURVE",
"854 89 OFFCURVE",
"854 84 CURVE SMOOTH",
"854 70 OFFCURVE",
"838 60 OFFCURVE",
"825 60 CURVE SMOOTH",
"811 60 OFFCURVE",
"807 75 OFFCURVE",
"807 87 CURVE SMOOTH",
"807 140 OFFCURVE",
"859 175 OFFCURVE",
"908 175 CURVE SMOOTH",
"930 175 OFFCURVE",
"959 129 OFFCURVE",
"959 109 CURVE SMOOTH",
"959 18 OFFCURVE",
"860 -28 OFFCURVE",
"781 -28 CURVE SMOOTH",
"694 -28 OFFCURVE",
"631 5 OFFCURVE",
"631 101 CURVE SMOOTH",
"631 166 OFFCURVE",
"656 237 OFFCURVE",
"701 285 CURVE",
"727 265 OFFCURVE",
"760 253 OFFCURVE",
"793 253 CURVE SMOOTH",
"825 253 OFFCURVE",
"908 259 OFFCURVE",
"908 306 CURVE SMOOTH",
"908 342 OFFCURVE",
"863 360 OFFCURVE",
"833 360 CURVE SMOOTH",
"789 360 OFFCURVE",
"744 348 OFFCURVE",
"707 326 CURVE",
"698 348 OFFCURVE",
"695 372 OFFCURVE",
"695 395 CURVE SMOOTH",
"695 476 OFFCURVE",
"782 566 OFFCURVE",
"863 566 CURVE SMOOTH",
"898 566 OFFCURVE",
"942 541 OFFCURVE",
"942 502 CURVE SMOOTH",
"942 464 OFFCURVE",
"900 461 OFFCURVE",
"900 442 CURVE SMOOTH",
"900 438 OFFCURVE",
"903 433 OFFCURVE",
"908 433 CURVE SMOOTH",
"910 433 OFFCURVE",
"911 434 OFFCURVE",
"913 434 CURVE",
"942 446 OFFCURVE",
"972 466 OFFCURVE",
"972 501 CURVE SMOOTH",
"972 556 OFFCURVE",
"908 591 OFFCURVE",
"860 591 CURVE SMOOTH",
"750 591 OFFCURVE",
"646 505 OFFCURVE",
"646 391 CURVE SMOOTH",
"646 359 OFFCURVE",
"657 331 OFFCURVE",
"678 306 CURVE",
"637 273 OFFCURVE",
"608 227 OFFCURVE",
"595 175 CURVE",
"590 208 OFFCURVE",
"588 241 OFFCURVE",
"588 274 CURVE SMOOTH",
"588 343 OFFCURVE",
"596 423 OFFCURVE",
"621 487 CURVE SMOOTH",
"622 490 OFFCURVE",
"623 492 OFFCURVE",
"623 494 CURVE SMOOTH",
"623 501 OFFCURVE",
"617 505 OFFCURVE",
"611 505 CURVE SMOOTH",
"605 505 OFFCURVE",
"600 502 OFFCURVE",
"596 497 CURVE SMOOTH",
"554 447 OFFCURVE",
"543 339 OFFCURVE",
"543 276 CURVE SMOOTH",
"543 265 OFFCURVE",
"543 253 OFFCURVE",
"543 242 CURVE",
"512 245 OFFCURVE",
"481 253 OFFCURVE",
"450 262 CURVE",
"457 280 OFFCURVE",
"464 299 OFFCURVE",
"471 318 CURVE SMOOTH",
"496 390 OFFCURVE",
"573 577 OFFCURVE",
"664 577 CURVE SMOOTH",
"669 577 OFFCURVE",
"674 576 OFFCURVE",
"679 576 CURVE SMOOTH",
"684 576 OFFCURVE",
"687 579 OFFCURVE",
"687 584 CURVE SMOOTH",
"687 596 OFFCURVE",
"676 597 OFFCURVE",
"668 597 CURVE SMOOTH",
"576 597 OFFCURVE",
"482 445 OFFCURVE",
"454 368 CURVE SMOOTH",
"442 335 OFFCURVE",
"430 303 OFFCURVE",
"416 270 CURVE",
"388 277 OFFCURVE",
"360 282 OFFCURVE",
"331 282 CURVE SMOOTH",
"314 282 OFFCURVE",
"275 264 OFFCURVE",
"275 245 CURVE SMOOTH",
"275 241 OFFCURVE",
"277 237 OFFCURVE",
"281 237 CURVE SMOOTH",
"290 237 OFFCURVE",
"300 259 OFFCURVE",
"324 259 CURVE SMOOTH",
"351 259 OFFCURVE",
"378 252 OFFCURVE",
"403 243 CURVE",
"348 129 OFFCURVE",
"259 17 OFFCURVE",
"120 17 CURVE SMOOTH",
"99 17 OFFCURVE",
"66 22 OFFCURVE",
"66 50 CURVE SMOOTH",
"66 90 OFFCURVE",
"122 127 OFFCURVE",
"155 138 CURVE SMOOTH",
"172 144 OFFCURVE",
"190 147 OFFCURVE",
"210 147 CURVE SMOOTH",
"223 147 OFFCURVE",
"254 146 OFFCURVE",
"254 133 CURVE SMOOTH",
"254 112 OFFCURVE",
"177 80 OFFCURVE",
"158 80 CURVE SMOOTH",
"152 80 OFFCURVE",
"141 75 OFFCURVE",
"141 67 CURVE SMOOTH",
"141 63 OFFCURVE",
"145 62 OFFCURVE",
"148 62 CURVE SMOOTH",
"165 62 OFFCURVE",
"182 65 OFFCURVE",
"198 71 CURVE SMOOTH",
"225 81 OFFCURVE",
"275 111 OFFCURVE",
"275 144 CURVE SMOOTH",
"275 174 OFFCURVE",
"227 177 OFFCURVE",
"206 177 CURVE SMOOTH",
"188 177 OFFCURVE",
"168 172 OFFCURVE",
"151 166 CURVE SMOOTH",
"96 147 OFFCURVE",
"34 105 OFFCURVE",
"34 40 CURVE SMOOTH",
"34 0 OFFCURVE",
"81 -4 OFFCURVE",
"111 -4 CURVE SMOOTH",
"120 -4 OFFCURVE",
"130 -3 OFFCURVE",
"139 -3 CURVE SMOOTH",
"293 -3 OFFCURVE",
"378 100 OFFCURVE",
"437 231 CURVE",
"472 217 OFFCURVE",
"509 201 OFFCURVE",
"547 197 CURVE",
"551 163 OFFCURVE",
"559 130 OFFCURVE",
"572 99 CURVE SMOOTH",
"576 87 OFFCURVE",
"584 75 OFFCURVE",
"588 64 CURVE SMOOTH",
"591 52 OFFCURVE",
"593 41 OFFCURVE",
"598 30 CURVE SMOOTH",
"618 -12 OFFCURVE",
"658 -34 OFFCURVE",
"702 -44 CURVE SMOOTH",
"728 -50 OFFCURVE",
"755 -52 OFFCURVE",
"781 -52 CURVE SMOOTH",
"870 -52 OFFCURVE",
"997 1 OFFCURVE",
"997 105 CURVE SMOOTH"
);
},
{
closed = 1;
nodes = (
"838 341 OFFCURVE",
"846 332 OFFCURVE",
"846 318 CURVE SMOOTH",
"846 286 OFFCURVE",
"809 272 OFFCURVE",
"782 272 CURVE SMOOTH",
"757 272 OFFCURVE",
"735 281 OFFCURVE",
"719 302 CURVE",
"749 326 OFFCURVE",
"785 341 OFFCURVE",
"824 341 CURVE SMOOTH"
);
}
);
width = 1007;
}
);
note = AE;
unicode = 00C6;
},
{
glyphname = B;
lastChange = "2022-02-04 13:17:06 +0000";
layers = (
{
layerId = "5ED96FCC-ACEE-47D8-A1F6-56FBB5DDEA2A";
paths = (
{
closed = 1;
nodes = (
"521 500 OFFCURVE",
"521 505 OFFCURVE",
"521 510 CURVE SMOOTH",
"521 581 OFFCURVE",
"447 656 OFFCURVE",
"344 656 CURVE SMOOTH",
"243 656 OFFCURVE",
"149 589 OFFCURVE",
"133 538 CURVE SMOOTH",
"129 525 OFFCURVE",
"120 504 OFFCURVE",
"120 488 CURVE SMOOTH",
"120 479 OFFCURVE",
"122 472 OFFCURVE",
"129 467 CURVE SMOOTH",
"135 463 OFFCURVE",
"142 461 OFFCURVE",
"149 461 CURVE SMOOTH",
"164 461 OFFCURVE",
"181 470 OFFCURVE",
"196 482 CURVE SMOOTH",
"204 489 OFFCURVE",
"209 510 OFFCURVE",
"209 525 CURVE SMOOTH",
"209 530 OFFCURVE",
"208 534 OFFCURVE",
"207 536 CURVE SMOOTH",
"203 541 OFFCURVE",
"199 544 OFFCURVE",
"195 544 CURVE SMOOTH",
"188 544 OFFCURVE",
"183 536 OFFCURVE",
"183 530 CURVE SMOOTH",
"183 530 OFFCURVE",
"183 529 OFFCURVE",
"183 529 CURVE SMOOTH",
"184 523 OFFCURVE",
"187 517 OFFCURVE",
"187 511 CURVE SMOOTH",
"187 509 OFFCURVE",
"186 507 OFFCURVE",
"185 504 CURVE",
"178 493 OFFCURVE",
"171 488 OFFCURVE",
"158 485 CURVE SMOOTH",
"151 483 OFFCURVE",
"144 487 OFFCURVE",
"144 495 CURVE SMOOTH",
"147 523 OFFCURVE",
"159 535 OFFCURVE",
"169 551 CURVE SMOOTH",
"223 631 OFFCURVE",
"318 631 OFFCURVE",
"338 631 CURVE SMOOTH",
"388 631 OFFCURVE",
"469 593 OFFCURVE",
"469 522 CURVE SMOOTH",
"469 516 OFFCURVE",
"468 510 OFFCURVE",
"467 504 CURVE SMOOTH",
"453 429 OFFCURVE",
"427 398 OFFCURVE",
"393 358 CURVE",
"355 390 OFFCURVE",
"300 400 OFFCURVE",
"261 400 CURVE SMOOTH",
"251 400 OFFCURVE",
"242 399 OFFCURVE",
"235 398 CURVE",
"245 458 OFFCURVE",
"251 520 OFFCURVE",
"258 549 CURVE SMOOTH",
"260 558 OFFCURVE",
"258 561 OFFCURVE",
"255 561 CURVE SMOOTH",
"251 561 OFFCURVE",
"244 556 OFFCURVE",
"238 552 CURVE",
"215 482 OFFCURVE",
"211 489 OFFCURVE",
"192 384 CURVE",
"172 371 OFFCURVE",
"139 358 OFFCURVE",
"127 305 CURVE SMOOTH",
"126 298 OFFCURVE",
"125 292 OFFCURVE",
"125 287 CURVE SMOOTH",
"125 259 OFFCURVE",
"141 246 OFFCURVE",
"147 235 CURVE",
"142 215 OFFCURVE",
"120 131 OFFCURVE",
"100 73 CURVE",
"93 82 OFFCURVE",
"86 89 OFFCURVE",
"78 96 CURVE SMOOTH",
"71 101 OFFCURVE",
"64 103 OFFCURVE",
"56 103 CURVE SMOOTH",
"50 103 OFFCURVE",
"43 102 OFFCURVE",
"36 98 CURVE SMOOTH",
"21 90 OFFCURVE",
"4 61 OFFCURVE",
"4 33 CURVE SMOOTH",
"4 9 OFFCURVE",
"18 -15 OFFCURVE",
"42 -15 CURVE SMOOTH",
"67 -15 OFFCURVE",
"88 5 OFFCURVE",
"103 27 CURVE",
"107 23 OFFCURVE",
"109 18 OFFCURVE",
"113 16 CURVE",
"127 0 OFFCURVE",
"142 -23 OFFCURVE",
"189 -23 CURVE SMOOTH",
"371 -23 OFFCURVE",
"433 160 OFFCURVE",
"440 202 CURVE SMOOTH",
"443 220 OFFCURVE",
"444 235 OFFCURVE",
"444 248 CURVE SMOOTH",
"444 294 OFFCURVE",
"429 315 OFFCURVE",
"420 327 CURVE",
"458 368 OFFCURVE",
"507 409 OFFCURVE",
"520 495 CURVE SMOOTH"
);
},
{
closed = 1;
nodes = (
"344 311 OFFCURVE",
"329 287 OFFCURVE",
"272 263 CURVE SMOOTH",
"252 254 OFFCURVE",
"229 252 OFFCURVE",
"214 252 CURVE SMOOTH",
"204 252 OFFCURVE",
"198 253 OFFCURVE",
"198 253 CURVE",
"209 293 OFFCURVE",
"218 322 OFFCURVE",
"227 367 CURVE",
"249 373 OFFCURVE",
"266 376 OFFCURVE",
"281 376 CURVE SMOOTH",
"321 376 OFFCURVE",
"339 356 OFFCURVE",
"368 338 CURVE"
);
},
{
closed = 1;
nodes = (
"180 327 OFFCURVE",
"173 303 OFFCURVE",
"162 263 CURVE",
"152 278 OFFCURVE",
"143 293 OFFCURVE",
"148 305 CURVE SMOOTH",
"158 329 OFFCURVE",
"173 344 OFFCURVE",
"184 349 CURVE"
);
},
{
closed = 1;
nodes = (
"361 97 OFFCURVE",
"293 5 OFFCURVE",
"198 5 CURVE SMOOTH",
"153 5 OFFCURVE",
"135 25 OFFCURVE",
"116 51 CURVE",
"133 83 OFFCURVE",
"147 107 OFFCURVE",
"149 112 CURVE SMOOTH",
"163 149 OFFCURVE",
"165 162 OFFCURVE",
"188 224 CURVE",
"202 223 OFFCURVE",
"231 223 OFFCURVE",
"278 235 CURVE SMOOTH",
"311 243 OFFCURVE",
"351 264 OFFCURVE",
"384 295 CURVE",
"392 283 OFFCURVE",
"395 265 OFFCURVE",
"395 246 CURVE SMOOTH",
"395 228 OFFCURVE",
"392 209 OFFCURVE",
"388 195 CURVE SMOOTH"
);
},
{
closed = 1;
nodes = (
"83 38 OFFCURVE",
"78 29 OFFCURVE",
"78 29 CURVE",
"63 16 OFFCURVE",
"56 3 OFFCURVE",
"42 3 CURVE SMOOTH",
"32 3 OFFCURVE",
"29 11 OFFCURVE",
"29 22 CURVE SMOOTH",
"29 38 OFFCURVE",
"37 59 OFFCURVE",
"43 65 CURVE",
"45 69 OFFCURVE",
"48 70 OFFCURVE",
"52 70 CURVE SMOOTH",
"61 70 OFFCURVE",
"73 59 OFFCURVE",
"87 45 CURVE"
);
}
);
width = 487;
}
);
note = B;
unicode = 0042;
},
{
glyphname = C;
lastChange = "2022-02-04 13:17:06 +0000";
layers = (
{
layerId = "5ED96FCC-ACEE-47D8-A1F6-56FBB5DDEA2A";
paths = (
{
closed = 1;
nodes = (
"630 63 OFFCURVE",
"632 68 OFFCURVE",
"632 72 CURVE SMOOTH",
"632 75 OFFCURVE",
"630 78 OFFCURVE",
"626 78 CURVE SMOOTH",
"622 78 OFFCURVE",
"617 76 OFFCURVE",
"612 71 CURVE SMOOTH",
"590 50 OFFCURVE",
"516 2 OFFCURVE",
"483 -8 CURVE SMOOTH",
"445 -20 OFFCURVE",
"422 -38 OFFCURVE",
"368 -38 CURVE SMOOTH",
"292 -38 OFFCURVE",
"189 9 OFFCURVE",
"140 45 CURVE SMOOTH",
"77 91 OFFCURVE",
"65 149 OFFCURVE",
"65 256 CURVE SMOOTH",
"65 300 OFFCURVE",
"79 367 OFFCURVE",
"92 396 CURVE SMOOTH",
"118 455 OFFCURVE",
"151 515 OFFCURVE",
"211 551 CURVE SMOOTH",
"245 571 OFFCURVE",
"288 602 OFFCURVE",
"368 602 CURVE SMOOTH",
"379 602 OFFCURVE",
"390 601 OFFCURVE",
"402 600 CURVE SMOOTH",
"464 594 OFFCURVE",
"496 578 OFFCURVE",
"523 542 CURVE SMOOTH",
"534 528 OFFCURVE",
"542 505 OFFCURVE",
"542 478 CURVE SMOOTH",
"542 466 OFFCURVE",
"540 453 OFFCURVE",
"536 440 CURVE SMOOTH",
"515 382 OFFCURVE",
"485 336 OFFCURVE",
"418 336 CURVE SMOOTH",
"360 336 OFFCURVE",
"370 345 OFFCURVE",
"344 376 CURVE SMOOTH",
"322 403 OFFCURVE",
"303 435 OFFCURVE",
"303 448 CURVE SMOOTH",
"303 482 OFFCURVE",
"358 522 OFFCURVE",
"389 522 CURVE SMOOTH",
"409 522 OFFCURVE",
"422 496 OFFCURVE",
"422 485 CURVE SMOOTH",
"422 480 OFFCURVE",
"423 472 OFFCURVE",
"423 464 CURVE SMOOTH",
"423 454 OFFCURVE",
"421 443 OFFCURVE",
"411 435 CURVE SMOOTH",
"402 428 OFFCURVE",
"398 418 OFFCURVE",
"398 411 CURVE SMOOTH",
"398 405 OFFCURVE",
"401 401 OFFCURVE",
"405 401 CURVE SMOOTH",
"407 401 OFFCURVE",
"410 402 OFFCURVE",
"413 405 CURVE SMOOTH",
"443 428 OFFCURVE",
"444 455 OFFCURVE",
"444 475 CURVE SMOOTH",
"444 496 OFFCURVE",
"428 555 OFFCURVE",
"389 555 CURVE SMOOTH",
"344 555 OFFCURVE",
"269 495 OFFCURVE",
"269 448 CURVE SMOOTH",
"269 432 OFFCURVE",
"265 376 OFFCURVE",
"293 342 CURVE SMOOTH",
"327 302 OFFCURVE",
"338 289 OFFCURVE",
"413 289 CURVE SMOOTH",
"496 289 OFFCURVE",
"543 355 OFFCURVE",
"568 429 CURVE SMOOTH",
"574 445 OFFCURVE",
"576 461 OFFCURVE",
"576 477 CURVE SMOOTH",
"576 512 OFFCURVE",
"564 544 OFFCURVE",
"549 563 CURVE SMOOTH",
"517 604 OFFCURVE",
"458 648 OFFCURVE",
"385 656 CURVE SMOOTH",
"371 657 OFFCURVE",
"358 658 OFFCURVE",
"346 658 CURVE SMOOTH",
"259 658 OFFCURVE",
"210 627 OFFCURVE",
"175 604 CURVE SMOOTH",
"110 563 OFFCURVE",
"72 497 OFFCURVE",
"44 433 CURVE SMOOTH",
"30 401 OFFCURVE",
"13 329 OFFCURVE",
"13 280 CURVE SMOOTH",
"13 160 OFFCURVE",
"51 70 OFFCURVE",
"120 18 CURVE SMOOTH",
"171 -20 OFFCURVE",
"284 -71 OFFCURVE",
"368 -71 CURVE SMOOTH",
"427 -71 OFFCURVE",
"451 -52 OFFCURVE",
"493 -40 CURVE SMOOTH",
"529 -30 OFFCURVE",
"601 34 OFFCURVE",
"625 58 CURVE SMOOTH"
);
}
);
width = 632;
}
);
note = C;
unicode = 0043;
},
{
glyphname = D;
lastChange = "2022-02-04 13:17:06 +0000";
layers = (
{
layerId = "5ED96FCC-ACEE-47D8-A1F6-56FBB5DDEA2A";
paths = (
{
closed = 1;
nodes = (
"699 315 OFFCURVE",
"689 351 OFFCURVE",
"684 369 CURVE SMOOTH",
"640 529 OFFCURVE",
"513 605 OFFCURVE",
"358 605 CURVE SMOOTH",
"223 605 OFFCURVE",
"88 458 OFFCURVE",
"88 327 CURVE SMOOTH",
"88 251 OFFCURVE",
"161 176 OFFCURVE",
"237 155 CURVE",
"221 115 OFFCURVE",
"201 77 OFFCURVE",
"174 51 CURVE",
"151 64 OFFCURVE",
"128 76 OFFCURVE",
"104 83 CURVE SMOOTH",
"91 87 OFFCURVE",
"80 88 OFFCURVE",
"70 88 CURVE SMOOTH",
"54 88 OFFCURVE",
"42 85 OFFCURVE",
"32 83 CURVE SMOOTH",
"-2 74 OFFCURVE",
"-31 52 OFFCURVE",
"-31 31 CURVE SMOOTH",
"-31 -28 OFFCURVE",
"27 -33 OFFCURVE",
"84 -33 CURVE SMOOTH",
"121 -33 OFFCURVE",
"154 -16 OFFCURVE",
"181 10 CURVE",
"232 -18 OFFCURVE",
"283 -48 OFFCURVE",
"344 -48 CURVE SMOOTH",
"432 -48 OFFCURVE",
"559 -31 OFFCURVE",
"631 29 CURVE SMOOTH",
"645 41 OFFCURVE",
"662 75 OFFCURVE",
"671 88 CURVE SMOOTH",
"694 122 OFFCURVE",
"704 183 OFFCURVE",
"704 240 CURVE SMOOTH",
"704 251 OFFCURVE",
"704 262 OFFCURVE",
"703 273 CURVE SMOOTH"
);
},
{
closed = 1;
nodes = (
"639 178 OFFCURVE",
"625 117 OFFCURVE",
"587 85 CURVE SMOOTH",
"520 30 OFFCURVE",
"438 -15 OFFCURVE",
"344 -15 CURVE SMOOTH",
"291 -15 OFFCURVE",
"246 9 OFFCURVE",
"203 34 CURVE",
"229 67 OFFCURVE",
"250 108 OFFCURVE",
"266 149 CURVE",
"270 149 OFFCURVE",
"274 148 OFFCURVE",
"278 148 CURVE SMOOTH",
"367 148 OFFCURVE",
"425 183 OFFCURVE",
"449 258 CURVE SMOOTH",
"455 277 OFFCURVE",
"458 294 OFFCURVE",
"458 311 CURVE SMOOTH",
"458 350 OFFCURVE",
"442 384 OFFCURVE",
"413 418 CURVE SMOOTH",
"408 424 OFFCURVE",
"396 431 OFFCURVE",
"382 436 CURVE",
"397 456 OFFCURVE",
"413 469 OFFCURVE",
"428 469 CURVE SMOOTH",
"436 469 OFFCURVE",
"443 466 OFFCURVE",
"451 458 CURVE SMOOTH",
"455 453 OFFCURVE",
"459 451 OFFCURVE",
"462 451 CURVE SMOOTH",
"466 451 OFFCURVE",
"468 454 OFFCURVE",
"468 458 CURVE SMOOTH",
"468 462 OFFCURVE",
"467 467 OFFCURVE",
"462 472 CURVE SMOOTH",
"452 484 OFFCURVE",
"440 489 OFFCURVE",
"428 489 CURVE SMOOTH",
"406 489 OFFCURVE",
"382 470 OFFCURVE",
"359 443 CURVE",
"347 445 OFFCURVE",
"335 446 OFFCURVE",
"323 446 CURVE SMOOTH",
"312 446 OFFCURVE",
"301 445 OFFCURVE",
"291 443 CURVE SMOOTH",
"265 436 OFFCURVE",
"245 431 OFFCURVE",
"231 409 CURVE SMOOTH",
"223 397 OFFCURVE",
"216 384 OFFCURVE",
"216 372 CURVE SMOOTH",
"216 365 OFFCURVE",
"218 358 OFFCURVE",
"223 352 CURVE SMOOTH",
"226 349 OFFCURVE",
"228 347 OFFCURVE",
"231 347 CURVE SMOOTH",
"244 347 OFFCURVE",
"252 400 OFFCURVE",
"276 412 CURVE SMOOTH",
"294 420 OFFCURVE",
"312 426 OFFCURVE",
"329 426 CURVE SMOOTH",
"334 426 OFFCURVE",
"340 425 OFFCURVE",
"345 424 CURVE",
"310 374 OFFCURVE",
"281 307 OFFCURVE",
"269 263 CURVE SMOOTH",
"262 236 OFFCURVE",
"254 205 OFFCURVE",
"244 175 CURVE",
"222 180 OFFCURVE",
"201 189 OFFCURVE",
"185 204 CURVE SMOOTH",
"152 235 OFFCURVE",
"142 285 OFFCURVE",
"142 325 CURVE SMOOTH",
"142 442 OFFCURVE",
"249 585 OFFCURVE",
"367 585 CURVE SMOOTH",
"420 585 OFFCURVE",
"455 576 OFFCURVE",
"485 551 CURVE SMOOTH",
"515 526 OFFCURVE",
"556 508 OFFCURVE",
"585 469 CURVE SMOOTH",
"616 428 OFFCURVE",
"613 404 OFFCURVE",
"629 378 CURVE SMOOTH",
"641 359 OFFCURVE",
"644 330 OFFCURVE",
"644 297 CURVE SMOOTH",
"644 279 OFFCURVE",
"643 261 OFFCURVE",
"642 243 CURVE SMOOTH"
);
},
{
closed = 1;
nodes = (
"401 207 OFFCURVE",
"367 168 OFFCURVE",
"293 168 CURVE SMOOTH",
"287 168 OFFCURVE",
"281 169 OFFCURVE",
"274 169 CURVE",
"286 200 OFFCURVE",
"295 230 OFFCURVE",
"302 255 CURVE SMOOTH",
"312 295 OFFCURVE",
"338 365 OFFCURVE",
"367 415 CURVE",
"373 411 OFFCURVE",
"379 406 OFFCURVE",
"385 400 CURVE SMOOTH",
"406 378 OFFCURVE",
"424 342 OFFCURVE",
"424 303 CURVE SMOOTH",
"424 290 OFFCURVE",
"422 278 OFFCURVE",
"418 265 CURVE SMOOTH"
);
},
{
closed = 1;
nodes = (
"130 23 OFFCURVE",
"113 18 OFFCURVE",
"95 18 CURVE SMOOTH",
"76 18 OFFCURVE",
"62 11 OFFCURVE",
"54 11 CURVE SMOOTH",
"47 11 OFFCURVE",
"44 16 OFFCURVE",
"44 35 CURVE SMOOTH",
"44 47 OFFCURVE",
"45 57 OFFCURVE",
"61 57 CURVE SMOOTH",
"68 57 OFFCURVE",
"79 55 OFFCURVE",
"93 51 CURVE SMOOTH",
"111 45 OFFCURVE",
"128 38 OFFCURVE",
"144 30 CURVE"
);
}
);
width = 712;
}
);
note = D;
unicode = 0044;
},
{
glyphname = Eth;
lastChange = "2022-02-04 13:17:06 +0000";
layers = (
{
layerId = "5ED96FCC-ACEE-47D8-A1F6-56FBB5DDEA2A";
paths = (
{
closed = 1;
nodes = (
"646 421 OFFCURVE",
"625 465 OFFCURVE",
"581 497 CURVE SMOOTH",
"539 527 OFFCURVE",
"457 533 OFFCURVE",
"406 533 CURVE SMOOTH",
"383 533 OFFCURVE",
"360 532 OFFCURVE",
"337 530 CURVE",
"338 531 OFFCURVE",
"338 533 OFFCURVE",
"338 534 CURVE SMOOTH",
"338 547 OFFCURVE",
"311 558 OFFCURVE",
"300 558 CURVE SMOOTH",
"286 558 OFFCURVE",
"276 532 OFFCURVE",
"270 521 CURVE",
"174 503 OFFCURVE",
"8 451 OFFCURVE",
"8 329 CURVE SMOOTH",
"8 313 OFFCURVE",
"21 281 OFFCURVE",
"40 281 CURVE SMOOTH",
"103 281 OFFCURVE",
"133 325 OFFCURVE",
"164 372 CURVE SMOOTH",
"171 382 OFFCURVE",
"179 392 OFFCURVE",
"185 402 CURVE SMOOTH",
"188 407 OFFCURVE",
"191 411 OFFCURVE",
"191 417 CURVE SMOOTH",
"191 420 OFFCURVE",
"189 427 OFFCURVE",
"185 427 CURVE SMOOTH",
"178 427 OFFCURVE",
"81 312 OFFCURVE",
"44 312 CURVE SMOOTH",
"36 312 OFFCURVE",
"34 319 OFFCURVE",
"34 326 CURVE SMOOTH",
"34 414 OFFCURVE",
"183 456 OFFCURVE",
"250 469 CURVE",
"230 411 OFFCURVE",
"218 350 OFFCURVE",
"211 289 CURVE",
"184 280 OFFCURVE",
"63 227 OFFCURVE",
"63 196 CURVE SMOOTH",
"63 185 OFFCURVE",
"73 175 OFFCURVE",
"84 175 CURVE SMOOTH",
"89 175 OFFCURVE",
"93 177 OFFCURVE",
"97 180 CURVE SMOOTH",
"133 207 OFFCURVE",
"166 231 OFFCURVE",
"206 251 CURVE",
"203 217 OFFCURVE",
"200 183 OFFCURVE",
"199 149 CURVE",
"163 126 OFFCURVE",
"124 92 OFFCURVE",
"124 46 CURVE SMOOTH",
"124 -7 OFFCURVE",
"182 -57 OFFCURVE",
"233 -57 CURVE SMOOTH",
"412 -57 OFFCURVE",
"646 191 OFFCURVE",
"646 367 CURVE SMOOTH"
);
},
{
closed = 1;
nodes = (
"622 194 OFFCURVE",
"386 -31 OFFCURVE",
"233 -31 CURVE SMOOTH",
"197 -31 OFFCURVE",
"166 -7 OFFCURVE",
"166 31 CURVE SMOOTH",
"166 57 OFFCURVE",
"181 81 OFFCURVE",
"199 100 CURVE",
"199 74 OFFCURVE",
"200 10 OFFCURVE",
"207 -13 CURVE SMOOTH",
"209 -20 OFFCURVE",
"212 -24 OFFCURVE",
"220 -24 CURVE SMOOTH",
"227 -24 OFFCURVE",
"233 -20 OFFCURVE",
"233 -13 CURVE SMOOTH",
"233 -12 OFFCURVE",
"233 -12 OFFCURVE",
"233 -11 CURVE SMOOTH",
"233 -9 LINE SMOOTH",
"230 21 OFFCURVE",
"226 51 OFFCURVE",
"226 81 CURVE SMOOTH",
"226 96 OFFCURVE",
"227 110 OFFCURVE",
"228 125 CURVE",
"259 148 OFFCURVE",
"316 177 OFFCURVE",
"356 177 CURVE SMOOTH",
"379 177 OFFCURVE",
"402 166 OFFCURVE",
"402 140 CURVE SMOOTH",
"402 128 OFFCURVE",
"395 112 OFFCURVE",
"381 112 CURVE SMOOTH",
"369 112 OFFCURVE",
"362 123 OFFCURVE",
"349 123 CURVE SMOOTH",
"343 123 OFFCURVE",
"338 120 OFFCURVE",
"338 114 CURVE SMOOTH",
"338 110 OFFCURVE",
"341 107 OFFCURVE",
"344 104 CURVE SMOOTH",
"356 93 OFFCURVE",
"358 82 OFFCURVE",
"376 82 CURVE SMOOTH",
"405 82 OFFCURVE",
"426 136 OFFCURVE",
"426 159 CURVE SMOOTH",
"426 193 OFFCURVE",
"400 206 OFFCURVE",
"369 206 CURVE SMOOTH",
"327 206 OFFCURVE",
"268 184 OFFCURVE",
"230 165 CURVE",
"234 200 OFFCURVE",
"238 234 OFFCURVE",
"244 268 CURVE",
"285 284 OFFCURVE",
"327 294 OFFCURVE",
"371 294 CURVE SMOOTH",
"378 294 OFFCURVE",
"395 297 OFFCURVE",
"395 308 CURVE SMOOTH",
"395 316 OFFCURVE",
"383 318 OFFCURVE",
"377 318 CURVE SMOOTH",
"335 318 OFFCURVE",
"292 312 OFFCURVE",
"251 301 CURVE",
"264 361 OFFCURVE",
"281 422 OFFCURVE",
"307 477 CURVE",
"336 481 OFFCURVE",
"365 483 OFFCURVE",
"395 483 CURVE SMOOTH",
"486 483 OFFCURVE",
"622 468 OFFCURVE",
"622 348 CURVE SMOOTH"
);
}
);
width = 665;
}
);
note = Eth;
unicode = 00D0;
},
{
glyphname = E;
lastChange = "2022-02-04 13:17:06 +0000";
layers = (
{
layerId = "5ED96FCC-ACEE-47D8-A1F6-56FBB5DDEA2A";
paths = (
{
closed = 1;
nodes = (
"583 278 OFFCURVE",
"552 309 OFFCURVE",
"518 309 CURVE SMOOTH",
"462 309 OFFCURVE",
"422 305 OFFCURVE",
"385 263 CURVE SMOOTH",
"370 245 OFFCURVE",
"358 234 OFFCURVE",
"358 213 CURVE SMOOTH",
"358 185 OFFCURVE",
"388 157 OFFCURVE",
"405 158 CURVE SMOOTH",
"419 160 OFFCURVE",
"420 164 OFFCURVE",
"420 170 CURVE SMOOTH",
"420 172 OFFCURVE",
"420 173 OFFCURVE",
"420 175 CURVE SMOOTH",
"420 176 OFFCURVE",
"420 177 OFFCURVE",
"420 178 CURVE SMOOTH",
"422 191 OFFCURVE",
"402 192 OFFCURVE",
"402 205 CURVE SMOOTH",
"402 215 OFFCURVE",
"407 222 OFFCURVE",
"412 229 CURVE SMOOTH",
"436 268 OFFCURVE",
"469 276 OFFCURVE",
"518 276 CURVE SMOOTH",
"533 276 OFFCURVE",
"549 262 OFFCURVE",
"549 245 CURVE SMOOTH",
"549 165 OFFCURVE",
"502 128 OFFCURVE",
"463 85 CURVE SMOOTH",
"444 65 OFFCURVE",
"422 46 OFFCURVE",
"400 29 CURVE SMOOTH",
"355 -6 OFFCURVE",
"284 -45 OFFCURVE",
"211 -45 CURVE SMOOTH",
"138 -45 OFFCURVE",
"87 -2 OFFCURVE",
"87 72 CURVE SMOOTH",
"87 178 OFFCURVE",
"163 288 OFFCURVE",
"224 343 CURVE SMOOTH",
"252 367 OFFCURVE",
"280 407 OFFCURVE",
"331 407 CURVE SMOOTH",
"336 407 OFFCURVE",
"356 400 OFFCURVE",
"356 395 CURVE SMOOTH",
"356 371 OFFCURVE",
"295 356 OFFCURVE",
"265 356 CURVE SMOOTH",
"228 356 OFFCURVE",
"193 402 OFFCURVE",
"193 438 CURVE SMOOTH",
"193 536 OFFCURVE",
"300 618 OFFCURVE",
"395 618 CURVE SMOOTH",
"448 618 OFFCURVE",
"515 613 OFFCURVE",
"515 560 CURVE SMOOTH",
"515 520 OFFCURVE",
"502 507 OFFCURVE",
"464 507 CURVE SMOOTH",
"428 507 OFFCURVE",
"420 520 OFFCURVE",
"420 537 CURVE SMOOTH",
"420 552 OFFCURVE",
"427 570 OFFCURVE",
"427 582 CURVE SMOOTH",
"427 590 OFFCURVE",
"423 596 OFFCURVE",
"412 596 CURVE SMOOTH",
"396 596 OFFCURVE",
"390 563 OFFCURVE",
"390 538 CURVE SMOOTH",
"390 529 OFFCURVE",
"390 521 OFFCURVE",
"392 516 CURVE SMOOTH",
"398 497 OFFCURVE",
"438 476 OFFCURVE",
"480 476 CURVE SMOOTH",
"542 476 OFFCURVE",
"548 493 OFFCURVE",
"548 560 CURVE SMOOTH",
"548 632 OFFCURVE",
"467 651 OFFCURVE",
"395 651 CURVE SMOOTH",
"284 651 OFFCURVE",
"160 552 OFFCURVE",
"160 438 CURVE SMOOTH",
"160 383 OFFCURVE",
"205 340 OFFCURVE",
"263 328 CURVE SMOOTH",
"269 327 OFFCURVE",
"275 326 OFFCURVE",
"281 326 CURVE SMOOTH",
"342 326 OFFCURVE",
"409 379 OFFCURVE",
"409 408 CURVE SMOOTH",
"409 429 OFFCURVE",
"387 451 OFFCURVE",
"365 451 CURVE SMOOTH",
"307 451 OFFCURVE",
"234 395 OFFCURVE",
"203 367 CURVE SMOOTH",
"137 308 OFFCURVE",
"22 142 OFFCURVE",
"22 25 CURVE SMOOTH",
"22 -69 OFFCURVE",
"116 -78 OFFCURVE",
"211 -78 CURVE SMOOTH",
"292 -78 OFFCURVE",
"367 -58 OFFCURVE",
"416 -18 CURVE SMOOTH",
"438 0 OFFCURVE",
"490 32 OFFCURVE",
"509 53 CURVE SMOOTH",
"553 102 OFFCURVE",
"583 155 OFFCURVE",
"583 245 CURVE SMOOTH"
);
}
);
width = 588;
}
);
note = E;
unicode = 0045;
},
{
glyphname = F;
lastChange = "2022-02-04 13:17:06 +0000";
layers = (
{
layerId = "5ED96FCC-ACEE-47D8-A1F6-56FBB5DDEA2A";
paths = (
{
closed = 1;
nodes = (
"792 599 OFFCURVE",
"785 611 OFFCURVE",
"778 611 CURVE SMOOTH",
"773 611 OFFCURVE",
"768 604 OFFCURVE",
"767 585 CURVE",
"751 540 OFFCURVE",
"711 518 OFFCURVE",
"647 518 CURVE SMOOTH",
"578 518 OFFCURVE",
"513 538 OFFCURVE",
"453 562 CURVE",
"455 564 OFFCURVE",
"456 565 OFFCURVE",
"458 568 CURVE SMOOTH",
"468 579 OFFCURVE",
"472 587 OFFCURVE",
"472 592 CURVE SMOOTH",
"472 595 OFFCURVE",
"470 597 OFFCURVE",
"467 597 CURVE SMOOTH",
"461 597 OFFCURVE",
"452 592 OFFCURVE",
"445 582 CURVE SMOOTH",
"442 578 OFFCURVE",
"438 572 OFFCURVE",
"436 568 CURVE",
"389 588 OFFCURVE",
"345 609 OFFCURVE",
"303 622 CURVE SMOOTH",
"272 631 OFFCURVE",
"176 664 OFFCURVE",
"133 664 CURVE SMOOTH",
"92 664 OFFCURVE",
"46 625 OFFCURVE",
"43 585 CURVE SMOOTH",
"35 453 OFFCURVE",
"118 425 OFFCURVE",
"163 425 CURVE SMOOTH",
"193 425 OFFCURVE",
"209 442 OFFCURVE",
"223 458 CURVE",
"224 463 OFFCURVE",
"225 467 OFFCURVE",
"225 471 CURVE SMOOTH",
"225 481 OFFCURVE",
"220 485 OFFCURVE",
"215 485 CURVE SMOOTH",
"209 485 OFFCURVE",
"202 480 OFFCURVE",
"200 475 CURVE",
"192 465 OFFCURVE",
"182 454 OFFCURVE",
"163 455 CURVE SMOOTH",
"95 458 OFFCURVE",
"87 504 OFFCURVE",
"87 542 CURVE SMOOTH",
"87 553 OFFCURVE",
"88 564 OFFCURVE",
"88 572 CURVE SMOOTH",
"88 600 OFFCURVE",
"124 604 OFFCURVE",
"153 604 CURVE SMOOTH",
"193 604 OFFCURVE",
"205 593 OFFCURVE",
"233 584 CURVE SMOOTH",
"283 569 OFFCURVE",
"348 548 OFFCURVE",
"415 529 CURVE",
"398 493 OFFCURVE",
"387 452 OFFCURVE",
"378 402 CURVE",
"335 395 OFFCURVE",
"302 402 OFFCURVE",
"268 378 CURVE",
"262 375 OFFCURVE",
"245 362 OFFCURVE",
"245 348 CURVE SMOOTH",
"245 324 OFFCURVE",
"254 307 OFFCURVE",
"268 293 CURVE SMOOTH",
"272 289 OFFCURVE",
"276 288 OFFCURVE",
"280 288 CURVE SMOOTH",
"289 288 OFFCURVE",
"298 295 OFFCURVE",
"298 305 CURVE SMOOTH",
"298 309 OFFCURVE",
"296 314 OFFCURVE",
"292 318 CURVE SMOOTH",
"286 324 OFFCURVE",
"285 329 OFFCURVE",
"285 337 CURVE SMOOTH",
"285 339 OFFCURVE",
"285 341 OFFCURVE",
"285 344 CURVE SMOOTH",
"285 347 OFFCURVE",
"296 362 OFFCURVE",
"298 363 CURVE SMOOTH",
"312 372 OFFCURVE",
"323 374 OFFCURVE",
"333 374 CURVE SMOOTH",
"341 374 OFFCURVE",
"349 373 OFFCURVE",
"356 373 CURVE SMOOTH",
"360 373 OFFCURVE",
"363 374 OFFCURVE",
"367 375 CURVE",
"373 375 LINE",
"373 373 OFFCURVE",
"373 373 OFFCURVE",
"373 373 CURVE",
"353 251 OFFCURVE",
"308 148 OFFCURVE",
"227 65 CURVE SMOOTH",
"196 33 OFFCURVE",
"171 -7 OFFCURVE",
"109 -7 CURVE SMOOTH",
"61 -7 OFFCURVE",
"54 18 OFFCURVE",
"54 54 CURVE SMOOTH",
"54 69 OFFCURVE",
"55 87 OFFCURVE",
"55 105 CURVE SMOOTH",
"55 118 OFFCURVE",
"71 160 OFFCURVE",
"75 172 CURVE SMOOTH",
"89 208 OFFCURVE",
"135 303 OFFCURVE",
"180 303 CURVE SMOOTH",
"188 303 OFFCURVE",
"196 269 OFFCURVE",
"196 260 CURVE SMOOTH",
"196 207 OFFCURVE",
"189 224 OFFCURVE",
"153 209 CURVE SMOOTH",
"140 204 OFFCURVE",
"135 198 OFFCURVE",
"135 193 CURVE SMOOTH",
"135 187 OFFCURVE",
"145 182 OFFCURVE",
"163 182 CURVE SMOOTH",
"168 182 OFFCURVE",
"173 182 OFFCURVE",
"178 183 CURVE",
"218 208 OFFCURVE",
"225 256 OFFCURVE",
"225 264 CURVE SMOOTH",
"225 285 OFFCURVE",
"196 332 OFFCURVE",
"180 332 CURVE SMOOTH",
"127 332 OFFCURVE",
"42 231 OFFCURVE",
"24 188 CURVE",
"16 173 OFFCURVE",
"4 112 OFFCURVE",
"4 98 CURVE SMOOTH",
"4 16 OFFCURVE",
"18 -36 OFFCURVE",
"109 -36 CURVE SMOOTH",
"178 -36 OFFCURVE",
"205 -5 OFFCURVE",
"247 20 CURVE SMOOTH",
"343 78 OFFCURVE",
"378 231 OFFCURVE",
"402 363 CURVE",
"402 367 OFFCURVE",
"403 369 OFFCURVE",
"403 372 CURVE",
"435 371 LINE",
"442 370 OFFCURVE",
"451 369 OFFCURVE",
"461 369 CURVE SMOOTH",
"501 369 OFFCURVE",
"556 380 OFFCURVE",
"556 409 CURVE SMOOTH",
"556 425 OFFCURVE",
"555 431 OFFCURVE",
"545 438 CURVE",
"540 442 OFFCURVE",
"538 443 OFFCURVE",
"536 443 CURVE SMOOTH",
"532 443 OFFCURVE",
"532 439 OFFCURVE",
"532 432 CURVE SMOOTH",
"532 426 OFFCURVE",
"532 419 OFFCURVE",
"532 412 CURVE SMOOTH",
"532 411 OFFCURVE",
"513 396 OFFCURVE",
"505 395 CURVE SMOOTH",
"500 394 OFFCURVE",
"491 393 OFFCURVE",
"482 393 CURVE SMOOTH",
"470 393 OFFCURVE",
"455 394 OFFCURVE",
"442 396 CURVE",
"442 396 OFFCURVE",
"408 400 OFFCURVE",
"407 400 CURVE",
"415 448 OFFCURVE",
"420 488 OFFCURVE",
"435 525 CURVE",
"503 508 OFFCURVE",
"575 495 OFFCURVE",
"638 495 CURVE SMOOTH",
"718 495 OFFCURVE",
"773 527 OFFCURVE",
"792 584 CURVE"
);
}
);
width = 448;
}
);
note = F;
unicode = 0046;
},
{
glyphname = G;
lastChange = "2022-02-04 13:17:06 +0000";
layers = (
{
layerId = "5ED96FCC-ACEE-47D8-A1F6-56FBB5DDEA2A";
paths = (
{
closed = 1;
nodes = (
"607 598 OFFCURVE",
"538 648 OFFCURVE",
"438 648 CURVE SMOOTH",
"380 648 OFFCURVE",
"322 627 OFFCURVE",
"276 608 CURVE SMOOTH",
"220 586 OFFCURVE",
"143 472 OFFCURVE",
"116 418 CURVE SMOOTH",
"92 371 OFFCURVE",
"83 309 OFFCURVE",
"83 235 CURVE SMOOTH",
"83 118 OFFCURVE",
"122 36 OFFCURVE",
"238 36 CURVE SMOOTH",
"287 36 OFFCURVE",
"361 55 OFFCURVE",
"388 84 CURVE SMOOTH",
"426 124 OFFCURVE",
"453 131 OFFCURVE",
"458 200 CURVE",
"477 149 OFFCURVE",
"488 96 OFFCURVE",
"488 -48 CURVE SMOOTH",
"488 -74 OFFCURVE",
"488 -99 OFFCURVE",
"483 -122 CURVE SMOOTH",
"464 -217 OFFCURVE",
"389 -305 OFFCURVE",
"302 -336 CURVE SMOOTH",
"268 -348 OFFCURVE",
"238 -355 OFFCURVE",
"198 -355 CURVE SMOOTH",
"112 -355 OFFCURVE",
"33 -325 OFFCURVE",
"33 -240 CURVE SMOOTH",
"33 -207 OFFCURVE",
"54 -155 OFFCURVE",
"65 -133 CURVE SMOOTH",
"94 -73 OFFCURVE",
"147 -20 OFFCURVE",
"235 -20 CURVE SMOOTH",
"284 -20 OFFCURVE",
"298 -55 OFFCURVE",
"298 -104 CURVE SMOOTH",
"298 -152 OFFCURVE",
"273 -208 OFFCURVE",
"224 -208 CURVE SMOOTH",
"200 -208 OFFCURVE",
"175 -205 OFFCURVE",
"175 -184 CURVE SMOOTH",
"175 -163 OFFCURVE",
"191 -111 OFFCURVE",
"213 -111 CURVE SMOOTH",
"220 -111 OFFCURVE",
"212 -120 OFFCURVE",
"213 -125 CURVE SMOOTH",
"216 -138 OFFCURVE",
"229 -146 OFFCURVE",
"238 -146 CURVE SMOOTH",
"245 -146 OFFCURVE",
"250 -142 OFFCURVE",
"248 -133 CURVE SMOOTH",
"245 -112 OFFCURVE",
"240 -91 OFFCURVE",
"216 -91 CURVE SMOOTH",
"180 -91 OFFCURVE",
"142 -149 OFFCURVE",
"142 -184 CURVE SMOOTH",
"142 -224 OFFCURVE",
"178 -242 OFFCURVE",
"224 -242 CURVE SMOOTH",
"292 -242 OFFCURVE",
"343 -187 OFFCURVE",
"343 -120 CURVE SMOOTH",
"343 -49 OFFCURVE",
"303 5 OFFCURVE",
"232 5 CURVE SMOOTH",
"131 5 OFFCURVE",
"58 -68 OFFCURVE",
"23 -136 CURVE SMOOTH",
"10 -162 OFFCURVE",
"0 -198 OFFCURVE",
"0 -240 CURVE SMOOTH",
"0 -344 OFFCURVE",
"88 -409 OFFCURVE",
"192 -409 CURVE SMOOTH",
"238 -409 OFFCURVE",
"271 -402 OFFCURVE",
"307 -389 CURVE SMOOTH",
"405 -354 OFFCURVE",
"495 -235 OFFCURVE",
"515 -128 CURVE SMOOTH",
"521 -95 OFFCURVE",
"536 -48 OFFCURVE",
"536 -8 CURVE SMOOTH",
"534 192 OFFCURVE",
"529 247 OFFCURVE",
"491 293 CURVE SMOOTH",
"488 297 OFFCURVE",
"482 299 OFFCURVE",
"476 299 CURVE SMOOTH",
"457 299 OFFCURVE",
"431 283 OFFCURVE",
"429 268 CURVE SMOOTH",
"425 209 OFFCURVE",
"406 153 OFFCURVE",
"364 108 CURVE SMOOTH",
"341 83 OFFCURVE",
"295 64 OFFCURVE",
"253 64 CURVE SMOOTH",
"158 64 OFFCURVE",
"116 138 OFFCURVE",
"116 235 CURVE SMOOTH",
"116 304 OFFCURVE",
"147 338 OFFCURVE",
"169 383 CURVE SMOOTH",
"192 431 OFFCURVE",
"268 518 OFFCURVE",
"305 552 CURVE",
"347 571 OFFCURVE",
"385 607 OFFCURVE",
"438 607 CURVE SMOOTH",
"518 607 OFFCURVE",
"558 567 OFFCURVE",
"558 485 CURVE SMOOTH",
"558 429 OFFCURVE",
"520 349 OFFCURVE",
"467 349 CURVE SMOOTH",
"438 349 OFFCURVE",
"388 371 OFFCURVE",
"388 400 CURVE SMOOTH",
"388 453 OFFCURVE",
"398 504 OFFCURVE",
"433 522 CURVE SMOOTH",
"440 525 OFFCURVE",
"443 531 OFFCURVE",
"443 536 CURVE SMOOTH",
"443 547 OFFCURVE",
"433 557 OFFCURVE",
"420 551 CURVE SMOOTH",
"372 528 OFFCURVE",
"355 469 OFFCURVE",
"355 400 CURVE SMOOTH",
"355 358 OFFCURVE",
"424 316 OFFCURVE",
"467 316 CURVE SMOOTH",
"536 316 OFFCURVE",
"607 424 OFFCURVE",
"607 496 CURVE SMOOTH"
);
}
);
width = 607;
}
);
note = G;
unicode = 0047;
},
{
glyphname = H;
lastChange = "2022-02-04 13:17:06 +0000";
layers = (
{
layerId = "5ED96FCC-ACEE-47D8-A1F6-56FBB5DDEA2A";
paths = (
{
closed = 1;
nodes = (
"577 595 OFFCURVE",
"577 601 OFFCURVE",
"577 606 CURVE SMOOTH",
"577 638 OFFCURVE",
"559 649 OFFCURVE",
"539 649 CURVE SMOOTH",
"446 649 OFFCURVE",
"418 340 OFFCURVE",
"412 313 CURVE",
"263 312 LINE",
"264 324 OFFCURVE",
"264 337 OFFCURVE",
"264 349 CURVE SMOOTH",
"264 413 OFFCURVE",
"257 479 OFFCURVE",
"256 498 CURVE SMOOTH",
"251 572 OFFCURVE",
"199 627 OFFCURVE",
"129 627 CURVE SMOOTH",
"84 627 OFFCURVE",
"50 603 OFFCURVE",
"50 545 CURVE SMOOTH",
"50 534 OFFCURVE",
"54 526 OFFCURVE",
"65 518 CURVE SMOOTH",
"72 514 OFFCURVE",
"82 511 OFFCURVE",
"92 511 CURVE SMOOTH",
"106 511 OFFCURVE",
"120 516 OFFCURVE",
"120 529 CURVE SMOOTH",
"120 536 OFFCURVE",
"117 538 OFFCURVE",
"110 538 CURVE SMOOTH",
"102 538 OFFCURVE",
"92 535 OFFCURVE",
"83 535 CURVE SMOOTH",
"73 535 OFFCURVE",
"66 538 OFFCURVE",
"66 552 CURVE SMOOTH",
"66 566 OFFCURVE",
"85 574 OFFCURVE",
"109 574 CURVE SMOOTH",
"116 574 OFFCURVE",
"123 573 OFFCURVE",
"131 572 CURVE SMOOTH",
"203 559 OFFCURVE",
"230 435 OFFCURVE",
"230 365 CURVE SMOOTH",
"230 352 OFFCURVE",
"229 341 OFFCURVE",
"227 333 CURVE",
"227 323 OFFCURVE",
"223 313 OFFCURVE",
"218 307 CURVE SMOOTH",
"203 288 OFFCURVE",
"176 277 OFFCURVE",
"165 242 CURVE SMOOTH",
"164 239 OFFCURVE",
"163 234 OFFCURVE",
"163 231 CURVE SMOOTH",
"163 227 OFFCURVE",
"165 223 OFFCURVE",
"168 223 CURVE SMOOTH",
"169 223 OFFCURVE",
"171 224 OFFCURVE",
"173 225 CURVE SMOOTH",
"184 233 OFFCURVE",
"182 238 OFFCURVE",
"216 258 CURVE",
"173 24 LINE SMOOTH",
"162 -33 OFFCURVE",
"146 -73 OFFCURVE",
"102 -73 CURVE SMOOTH",
"97 -73 OFFCURVE",
"91 -72 OFFCURVE",
"84 -71 CURVE SMOOTH",
"61 -66 OFFCURVE",
"42 -72 OFFCURVE",
"31 -49 CURVE SMOOTH",
"22 -31 OFFCURVE",
"16 -9 OFFCURVE",
"18 15 CURVE",
"29 64 OFFCURVE",
"69 93 OFFCURVE",
"82 91 CURVE SMOOTH",
"107 87 OFFCURVE",
"128 50 OFFCURVE",
"128 28 CURVE SMOOTH",
"128 24 OFFCURVE",
"127 21 OFFCURVE",
"125 18 CURVE",
"122 15 OFFCURVE",
"118 14 OFFCURVE",
"114 14 CURVE SMOOTH",
"104 14 OFFCURVE",
"93 21 OFFCURVE",
"84 21 CURVE SMOOTH",
"80 21 OFFCURVE",
"77 19 OFFCURVE",
"75 15 CURVE SMOOTH",
"67 1 OFFCURVE",
"89 -10 OFFCURVE",
"110 -10 CURVE SMOOTH",
"118 -10 OFFCURVE",
"125 -9 OFFCURVE",
"131 -5 CURVE SMOOTH",
"143 2 OFFCURVE",
"146 12 OFFCURVE",
"146 23 CURVE SMOOTH",
"146 32 OFFCURVE",
"144 41 OFFCURVE",
"142 51 CURVE SMOOTH",
"136 80 OFFCURVE",
"125 105 OFFCURVE",
"91 111 CURVE SMOOTH",
"49 118 OFFCURVE",
"5 53 OFFCURVE",
"-2 16 CURVE",
"-2 8 OFFCURVE",
"-2 -25 OFFCURVE",
"9 -55 CURVE",
"23 -82 OFFCURVE",
"49 -105 OFFCURVE",
"83 -112 CURVE SMOOTH",
"142 -123 OFFCURVE",
"196 -35 OFFCURVE",
"208 24 CURVE SMOOTH",
"258 265 LINE",
"274 273 OFFCURVE",
"283 275 OFFCURVE",
"291 275 CURVE SMOOTH",
"300 275 OFFCURVE",
"307 272 OFFCURVE",
"319 272 CURVE SMOOTH",
"323 272 OFFCURVE",
"326 272 OFFCURVE",
"331 273 CURVE",
"405 268 LINE",
"399 224 OFFCURVE",
"395 175 OFFCURVE",
"395 130 CURVE SMOOTH",
"395 44 OFFCURVE",
"411 -31 OFFCURVE",
"464 -40 CURVE SMOOTH",
"496 -46 OFFCURVE",
"556 18 OFFCURVE",
"563 64 CURVE SMOOTH",
"564 72 OFFCURVE",
"565 80 OFFCURVE",
"565 87 CURVE SMOOTH",
"565 110 OFFCURVE",
"558 127 OFFCURVE",
"540 129 CURVE",
"535 130 OFFCURVE",
"531 131 OFFCURVE",
"526 131 CURVE SMOOTH",
"511 131 OFFCURVE",
"497 123 OFFCURVE",
"485 109 CURVE SMOOTH",
"477 100 OFFCURVE",
"471 89 OFFCURVE",
"471 76 CURVE SMOOTH",
"471 11 OFFCURVE",
"498 113 OFFCURVE",
"531 113 CURVE SMOOTH",
"537 113 OFFCURVE",
"545 109 OFFCURVE",
"552 98 CURVE SMOOTH",
"555 93 OFFCURVE",
"557 88 OFFCURVE",
"557 83 CURVE SMOOTH",
"557 70 OFFCURVE",
"548 58 OFFCURVE",
"542 45 CURVE SMOOTH",
"527 16 OFFCURVE",
"508 5 OFFCURVE",
"480 -8 CURVE",
"444 -20 OFFCURVE",
"435 95 OFFCURVE",
"435 185 CURVE SMOOTH",
"435 240 OFFCURVE",
"438 286 OFFCURVE",
"440 286 CURVE SMOOTH",
"441 286 OFFCURVE",
"441 282 OFFCURVE",
"441 273 CURVE SMOOTH",
"441 277 OFFCURVE",
"441 280 OFFCURVE",
"445 282 CURVE SMOOTH",
"458 291 OFFCURVE",
"494 286 OFFCURVE",
"544 347 CURVE SMOOTH",
"553 357 OFFCURVE",
"562 391 OFFCURVE",
"553 378 CURVE",
"543 358 OFFCURVE",
"520 340 OFFCURVE",
"488 327 CURVE SMOOTH",
"482 325 OFFCURVE",
"478 324 OFFCURVE",
"474 324 CURVE SMOOTH",
"467 324 OFFCURVE",
"461 326 OFFCURVE",
"449 328 CURVE",
"483 549 LINE SMOOTH",
"489 586 OFFCURVE",
"521 638 OFFCURVE",
"542 638 CURVE SMOOTH",
"547 638 OFFCURVE",
"552 634 OFFCURVE",
"555 627 CURVE SMOOTH",
"560 617 OFFCURVE",
"562 603 OFFCURVE",
"562 592 CURVE SMOOTH",
"562 575 OFFCURVE",
"557 561 OFFCURVE",
"542 563 CURVE",
"531 562 OFFCURVE",
"528 571 OFFCURVE",
"521 571 CURVE SMOOTH",
"519 571 OFFCURVE",
"517 570 OFFCURVE",
"515 569 CURVE",
"504 568 OFFCURVE",
"515 539 OFFCURVE",
"538 542 CURVE SMOOTH",
"562 546 OFFCURVE",
"571 573 OFFCURVE",
"576 589 CURVE"
);
}
);
width = 573;
}
);
note = H;
unicode = 0048;
},
{
glyphname = I;
lastChange = "2022-02-04 13:17:06 +0000";
layers = (
{
layerId = "5ED96FCC-ACEE-47D8-A1F6-56FBB5DDEA2A";
paths = (
{
closed = 1;
nodes = (
"569 594 OFFCURVE",
"558 623 OFFCURVE",
"542 624 CURVE",
"539 625 OFFCURVE",
"535 625 OFFCURVE",
"532 625 CURVE SMOOTH",
"520 625 OFFCURVE",
"511 619 OFFCURVE",
"502 607 CURVE SMOOTH",
"465 557 OFFCURVE",
"402 403 OFFCURVE",
"400 323 CURVE SMOOTH",
"398 216 OFFCURVE",
"440 152 OFFCURVE",
"438 138 CURVE",
"438 125 OFFCURVE",
"368 -16 OFFCURVE",
"242 -63 CURVE SMOOTH",
"211 -74 OFFCURVE",
"178 -80 OFFCURVE",
"148 -80 CURVE SMOOTH",
"83 -80 OFFCURVE",
"28 -54 OFFCURVE",
"11 -8 CURVE SMOOTH",
"5 8 OFFCURVE",
"3 22 OFFCURVE",
"3 35 CURVE SMOOTH",
"3 74 OFFCURVE",
"24 104 OFFCURVE",
"55 131 CURVE SMOOTH",
"80 153 OFFCURVE",
"118 171 OFFCURVE",
"144 171 CURVE SMOOTH",
"153 171 OFFCURVE",
"160 169 OFFCURVE",
"165 164 CURVE SMOOTH",
"179 151 OFFCURVE",
"191 133 OFFCURVE",
"191 114 CURVE SMOOTH",
"191 101 OFFCURVE",
"186 88 OFFCURVE",
"173 76 CURVE",
"167 71 OFFCURVE",
"161 70 OFFCURVE",
"155 70 CURVE SMOOTH",
"145 70 OFFCURVE",
"135 76 OFFCURVE",
"126 76 CURVE SMOOTH",
"122 76 OFFCURVE",
"119 74 OFFCURVE",
"115 71 CURVE SMOOTH",
"108 64 OFFCURVE",
"106 58 OFFCURVE",
"106 52 CURVE SMOOTH",
"106 44 OFFCURVE",
"110 38 OFFCURVE",
"113 35 CURVE SMOOTH",
"118 31 OFFCURVE",
"122 27 OFFCURVE",
"130 27 CURVE SMOOTH",
"139 27 OFFCURVE",
"151 30 OFFCURVE",
"172 38 CURVE SMOOTH",
"203 49 OFFCURVE",
"220 85 OFFCURVE",
"220 114 CURVE SMOOTH",
"220 119 OFFCURVE",
"219 124 OFFCURVE",
"218 129 CURVE SMOOTH",
"206 180 OFFCURVE",
"173 194 OFFCURVE",
"147 194 CURVE SMOOTH",
"141 194 OFFCURVE",
"136 193 OFFCURVE",
"131 192 CURVE SMOOTH",
"63 176 OFFCURVE",
"-18 124 OFFCURVE",
"-18 39 CURVE SMOOTH",
"-18 23 OFFCURVE",
"-15 4 OFFCURVE",
"-8 -15 CURVE SMOOTH",
"16 -82 OFFCURVE",
"89 -106 OFFCURVE",
"160 -106 CURVE SMOOTH",
"196 -106 OFFCURVE",
"232 -100 OFFCURVE",
"260 -89 CURVE SMOOTH",
"358 -53 OFFCURVE",
"396 -5 OFFCURVE",
"453 72 CURVE",
"455 72 OFFCURVE",
"469 76 OFFCURVE",
"488 33 CURVE SMOOTH",
"490 27 OFFCURVE",
"498 25 OFFCURVE",
"504 25 CURVE SMOOTH",
"509 25 OFFCURVE",
"513 26 OFFCURVE",
"513 29 CURVE SMOOTH",
"513 29 OFFCURVE",
"513 30 OFFCURVE",
"512 31 CURVE",
"505 47 OFFCURVE",
"493 58 OFFCURVE",
"485 75 CURVE SMOOTH",
"477 93 OFFCURVE",
"478 113 OFFCURVE",
"478 118 CURVE",
"498 158 OFFCURVE",
"548 254 OFFCURVE",
"572 347 CURVE SMOOTH",
"582 384 OFFCURVE",
"591 428 OFFCURVE",
"591 475 CURVE SMOOTH",
"591 507 OFFCURVE",
"586 541 OFFCURVE",
"575 575 CURVE SMOOTH"
);
},
{
closed = 1;
nodes = (
"538 367 OFFCURVE",
"492 216 OFFCURVE",
"458 172 CURVE",
"451 165 OFFCURVE",
"451 167 OFFCURVE",
"438 202 CURVE SMOOTH",
"426 235 OFFCURVE",
"421 273 OFFCURVE",
"421 309 CURVE SMOOTH",
"421 362 OFFCURVE",
"431 412 OFFCURVE",
"444 447 CURVE SMOOTH",
"462 495 OFFCURVE",
"477 539 OFFCURVE",
"498 571 CURVE SMOOTH",
"510 590 OFFCURVE",
"523 600 OFFCURVE",
"532 598 CURVE",
"546 598 OFFCURVE",
"551 566 OFFCURVE",
"551 525 CURVE SMOOTH",
"551 506 OFFCURVE",
"550 485 OFFCURVE",
"548 465 CURVE SMOOTH"
);
}
);
width = 558;
}
);
note = I;
unicode = 0049;
},
{
glyphname = J;
lastChange = "2022-02-04 13:17:06 +0000";
layers = (
{
layerId = "5ED96FCC-ACEE-47D8-A1F6-56FBB5DDEA2A";
paths = (
{
closed = 1;
nodes = (
"716 623 OFFCURVE",
"717 626 OFFCURVE",
"717 629 CURVE SMOOTH",
"717 633 OFFCURVE",
"714 636 OFFCURVE",
"710 636 CURVE SMOOTH",
"705 636 OFFCURVE",
"700 633 OFFCURVE",
"695 627 CURVE",
"690 622 OFFCURVE",
"685 608 OFFCURVE",
"672 608 CURVE SMOOTH",
"662 608 OFFCURVE",
"645 621 OFFCURVE",
"637 624 CURVE SMOOTH",
"613 632 OFFCURVE",
"598 628 OFFCURVE",
"570 631 CURVE SMOOTH",
"522 637 OFFCURVE",
"491 653 OFFCURVE",
"434 653 CURVE SMOOTH",
"323 653 OFFCURVE",
"219 614 OFFCURVE",
"219 506 CURVE SMOOTH",
"219 456 OFFCURVE",
"255 414 OFFCURVE",
"301 414 CURVE SMOOTH",
"360 414 OFFCURVE",
"394 436 OFFCURVE",
"394 490 CURVE SMOOTH",
"394 517 OFFCURVE",
"395 520 OFFCURVE",
"382 553 CURVE SMOOTH",
"380 558 OFFCURVE",
"378 560 OFFCURVE",
"375 560 CURVE SMOOTH",
"370 560 OFFCURVE",
"364 550 OFFCURVE",
"364 540 CURVE SMOOTH",
"364 537 OFFCURVE",
"365 533 OFFCURVE",
"366 530 CURVE SMOOTH",
"369 522 OFFCURVE",
"371 513 OFFCURVE",
"371 503 CURVE SMOOTH",
"371 489 OFFCURVE",
"367 474 OFFCURVE",
"362 463 CURVE SMOOTH",
"345 429 OFFCURVE",
"343 434 OFFCURVE",
"301 434 CURVE SMOOTH",
"269 434 OFFCURVE",
"267 474 OFFCURVE",
"267 508 CURVE SMOOTH",
"267 600 OFFCURVE",
"341 632 OFFCURVE",
"437 632 CURVE SMOOTH",
"491 632 OFFCURVE",
"516 618 OFFCURVE",
"561 612 CURVE SMOOTH",
"587 609 OFFCURVE",
"607 604 OFFCURVE",
"629 597 CURVE SMOOTH",
"637 594 OFFCURVE",
"649 589 OFFCURVE",
"661 589 CURVE SMOOTH",
"683 589 OFFCURVE",
"704 608 OFFCURVE",
"713 619 CURVE SMOOTH"
);
},
{
closed = 1;
nodes = (
"560 233 LINE",
"523 478 LINE",
"525 508 OFFCURVE",
"518 531 OFFCURVE",
"538 544 CURVE SMOOTH",
"540 546 OFFCURVE",
"542 548 OFFCURVE",
"542 551 CURVE SMOOTH",
"542 569 OFFCURVE",
"504 605 OFFCURVE",
"489 595 CURVE SMOOTH",
"462 576 OFFCURVE",
"464 543 OFFCURVE",
"462 502 CURVE",
"523 232 LINE",
"536 143 LINE",
"522 55 OFFCURVE",
"526 38 OFFCURVE",
"502 -32 CURVE SMOOTH",
"489 -68 OFFCURVE",
"475 -97 OFFCURVE",
"449 -122 CURVE SMOOTH",
"405 -165 OFFCURVE",
"312 -240 OFFCURVE",
"227 -240 CURVE SMOOTH",
"188 -240 OFFCURVE",
"171 -224 OFFCURVE",
"143 -216 CURVE SMOOTH",
"82 -198 OFFCURVE",
"60 -156 OFFCURVE",
"60 -78 CURVE SMOOTH",
"60 0 OFFCURVE",
"111 15 OFFCURVE",
"152 49 CURVE SMOOTH",
"178 71 OFFCURVE",
"183 82 OFFCURVE",
"227 82 CURVE SMOOTH",
"272 82 OFFCURVE",
"280 65 OFFCURVE",
"280 22 CURVE SMOOTH",
"280 -9 OFFCURVE",
"263 -32 OFFCURVE",
"232 -32 CURVE SMOOTH",
"226 -32 OFFCURVE",
"229 -26 OFFCURVE",
"229 -21 CURVE SMOOTH",
"229 -20 OFFCURVE",
"229 -19 OFFCURVE",
"229 -18 CURVE",
"227 -9 OFFCURVE",
"221 -5 OFFCURVE",
"214 -5 CURVE SMOOTH",
"204 -5 OFFCURVE",
"194 -13 OFFCURVE",
"198 -25 CURVE SMOOTH",
"204 -49 OFFCURVE",
"218 -58 OFFCURVE",
"243 -58 CURVE SMOOTH",
"292 -58 OFFCURVE",
"313 -31 OFFCURVE",
"313 22 CURVE SMOOTH",
"313 84 OFFCURVE",
"291 155 OFFCURVE",
"227 155 CURVE SMOOTH",
"172 155 OFFCURVE",
"145 125 OFFCURVE",
"115 98 CURVE SMOOTH",
"65 55 OFFCURVE",
"27 13 OFFCURVE",
"27 -78 CURVE SMOOTH",
"27 -175 OFFCURVE",
"57 -229 OFFCURVE",
"135 -248 CURVE SMOOTH",
"165 -256 OFFCURVE",
"185 -273 OFFCURVE",
"227 -273 CURVE SMOOTH",
"320 -273 OFFCURVE",
"424 -194 OFFCURVE",
"473 -145 CURVE SMOOTH",
"501 -118 OFFCURVE",
"518 -84 OFFCURVE",
"533 -43 CURVE SMOOTH",
"558 27 OFFCURVE",
"556 28 OFFCURVE",
"571 118 CURVE"
);
}
);
width = 632;
}
);
note = J;
unicode = 004A;
},
{
glyphname = K;
lastChange = "2022-02-04 13:17:06 +0000";
layers = (
{
layerId = "5ED96FCC-ACEE-47D8-A1F6-56FBB5DDEA2A";
paths = (
{
closed = 1;
nodes = (
"845 598 OFFCURVE",
"800 629 OFFCURVE",
"755 629 CURVE SMOOTH",
"704 629 OFFCURVE",
"665 569 OFFCURVE",
"643 538 CURVE SMOOTH",
"599 476 OFFCURVE",
"568 403 OFFCURVE",
"527 335 CURVE SMOOTH",
"508 305 OFFCURVE",
"485 252 OFFCURVE",
"451 223 CURVE",
"445 228 OFFCURVE",
"442 233 OFFCURVE",
"436 238 CURVE",
"403 275 OFFCURVE",
"405 268 OFFCURVE",
"365 280 CURVE",
"365 282 OFFCURVE",
"367 283 OFFCURVE",
"367 284 CURVE",
"395 358 OFFCURVE",
"403 405 OFFCURVE",
"403 507 CURVE SMOOTH",
"403 607 OFFCURVE",
"387 688 OFFCURVE",
"283 688 CURVE SMOOTH",
"204 688 OFFCURVE",
"154 649 OFFCURVE",
"111 607 CURVE SMOOTH",
"59 555 OFFCURVE",
"13 496 OFFCURVE",
"13 392 CURVE SMOOTH",
"13 320 OFFCURVE",
"51 278 OFFCURVE",
"93 245 CURVE SMOOTH",
"102 238 OFFCURVE",
"124 224 OFFCURVE",
"133 224 CURVE SMOOTH",
"223 224 OFFCURVE",
"307 282 OFFCURVE",
"307 371 CURVE SMOOTH",
"307 418 OFFCURVE",
"285 461 OFFCURVE",
"251 468 CURVE SMOOTH",
"246 469 OFFCURVE",
"241 469 OFFCURVE",
"236 469 CURVE SMOOTH",
"213 469 OFFCURVE",
"194 458 OFFCURVE",
"194 450 CURVE SMOOTH",
"194 444 OFFCURVE",
"204 440 OFFCURVE",
"227 442 CURVE SMOOTH",
"253 444 OFFCURVE",
"283 405 OFFCURVE",
"283 371 CURVE SMOOTH",
"283 296 OFFCURVE",
"224 245 OFFCURVE",
"149 245 CURVE SMOOTH",
"143 245 OFFCURVE",
"115 263 OFFCURVE",
"109 267 CURVE SMOOTH",
"72 293 OFFCURVE",
"40 331 OFFCURVE",
"40 392 CURVE SMOOTH",
"40 488 OFFCURVE",
"82 542 OFFCURVE",
"129 588 CURVE SMOOTH",
"166 625 OFFCURVE",
"198 643 OFFCURVE",
"269 643 CURVE SMOOTH",
"355 643 OFFCURVE",
"376 591 OFFCURVE",
"376 507 CURVE SMOOTH",
"376 418 OFFCURVE",
"352 355 OFFCURVE",
"328 289 CURVE",
"324 290 OFFCURVE",
"320 290 OFFCURVE",
"316 290 CURVE SMOOTH",
"309 290 OFFCURVE",
"302 289 OFFCURVE",
"298 285 CURVE SMOOTH",
"294 281 OFFCURVE",
"292 274 OFFCURVE",
"292 267 CURVE SMOOTH",
"292 254 OFFCURVE",
"298 238 OFFCURVE",
"298 238 CURVE",
"300 233 OFFCURVE",
"303 228 OFFCURVE",
"304 224 CURVE",
"293 195 OFFCURVE",
"284 165 OFFCURVE",
"275 135 CURVE SMOOTH",
"268 109 OFFCURVE",
"258 80 OFFCURVE",
"249 58 CURVE SMOOTH",
"220 -15 OFFCURVE",
"220 -15 OFFCURVE",
"169 -65 CURVE SMOOTH",
"153 -81 OFFCURVE",
"138 -104 OFFCURVE",
"107 -104 CURVE SMOOTH",
"85 -104 OFFCURVE",
"75 -42 OFFCURVE",
"72 -22 CURVE SMOOTH",
"70 -13 OFFCURVE",
"63 -3 OFFCURVE",
"56 -3 CURVE SMOOTH",
"52 -3 OFFCURVE",
"49 -8 OFFCURVE",
"49 -21 CURVE SMOOTH",
"49 -27 OFFCURVE",
"49 -35 OFFCURVE",
"51 -45 CURVE SMOOTH",
"56 -76 OFFCURVE",
"72 -131 OFFCURVE",
"107 -131 CURVE SMOOTH",
"145 -131 OFFCURVE",
"183 -113 OFFCURVE",
"204 -92 CURVE SMOOTH",
"258 -38 OFFCURVE",
"260 -36 OFFCURVE",
"289 40 CURVE SMOOTH",
"298 64 OFFCURVE",
"311 93 OFFCURVE",
"318 118 CURVE SMOOTH",
"323 138 OFFCURVE",
"329 163 OFFCURVE",
"336 187 CURVE",
"351 178 OFFCURVE",
"369 171 OFFCURVE",
"392 171 CURVE SMOOTH",
"404 171 OFFCURVE",
"416 173 OFFCURVE",
"428 178 CURVE",
"431 173 OFFCURVE",
"435 168 OFFCURVE",
"438 164 CURVE SMOOTH",
"481 117 OFFCURVE",
"551 42 OFFCURVE",
"603 3 CURVE SMOOTH",
"635 -22 OFFCURVE",
"675 -85 OFFCURVE",
"731 -85 CURVE SMOOTH",
"758 -85 OFFCURVE",
"772 -78 OFFCURVE",
"784 -64 CURVE SMOOTH",
"786 -62 OFFCURVE",
"788 -59 OFFCURVE",
"788 -56 CURVE SMOOTH",
"788 -49 OFFCURVE",
"781 -42 OFFCURVE",
"774 -42 CURVE SMOOTH",
"770 -42 OFFCURVE",
"766 -44 OFFCURVE",
"763 -48 CURVE SMOOTH",
"756 -58 OFFCURVE",
"747 -67 OFFCURVE",
"731 -67 CURVE SMOOTH",
"680 -67 OFFCURVE",
"597 49 OFFCURVE",
"568 72 CURVE SMOOTH",
"531 101 OFFCURVE",
"498 156 OFFCURVE",
"465 202 CURVE",
"504 232 OFFCURVE",
"534 281 OFFCURVE",
"553 313 CURVE SMOOTH",
"593 381 OFFCURVE",
"617 431 OFFCURVE",
"662 493 CURVE SMOOTH",
"680 519 OFFCURVE",
"704 571 OFFCURVE",
"747 571 CURVE SMOOTH",
"778 571 OFFCURVE",
"805 573 OFFCURVE",
"805 542 CURVE SMOOTH",
"805 489 OFFCURVE",
"771 453 OFFCURVE",
"718 453 CURVE SMOOTH",
"708 453 OFFCURVE",
"680 458 OFFCURVE",
"675 462 CURVE SMOOTH",
"669 466 OFFCURVE",
"667 466 OFFCURVE",
"667 464 CURVE SMOOTH",
"667 460 OFFCURVE",
"674 451 OFFCURVE",
"683 443 CURVE SMOOTH",
"691 435 OFFCURVE",
"698 432 OFFCURVE",
"715 432 CURVE SMOOTH",
"782 432 OFFCURVE",
"845 487 OFFCURVE",
"845 552 CURVE SMOOTH"
);
},
{
closed = 1;
nodes = (
"405 198 OFFCURVE",
"398 198 OFFCURVE",
"392 198 CURVE SMOOTH",
"372 198 OFFCURVE",
"356 204 OFFCURVE",
"344 215 CURVE",
"348 228 OFFCURVE",
"352 242 OFFCURVE",
"356 253 CURVE",
"384 242 OFFCURVE",
"398 222 OFFCURVE",
"412 200 CURVE"
);
}
);
width = 627;
}
);
note = K;
unicode = 004B;
},
{
glyphname = L;
lastChange = "2022-02-04 13:17:06 +0000";
layers = (
{
layerId = "5ED96FCC-ACEE-47D8-A1F6-56FBB5DDEA2A";
paths = (
{
closed = 1;
nodes = (
"708 578 OFFCURVE",
"684 629 OFFCURVE",
"643 662 CURVE SMOOTH",
"626 675 OFFCURVE",
"593 678 OFFCURVE",
"564 678 CURVE SMOOTH",
"488 678 OFFCURVE",
"453 615 OFFCURVE",
"427 562 CURVE SMOOTH",
"388 484 OFFCURVE",
"368 391 OFFCURVE",
"338 302 CURVE SMOOTH",
"330 277 OFFCURVE",
"322 251 OFFCURVE",
"313 225 CURVE",
"206 234 OFFCURVE",
"108 272 OFFCURVE",
"108 378 CURVE SMOOTH",
"108 463 OFFCURVE",
"151 544 OFFCURVE",
"233 544 CURVE SMOOTH",
"296 544 OFFCURVE",
"338 529 OFFCURVE",
"338 467 CURVE SMOOTH",
"338 436 OFFCURVE",
"313 407 OFFCURVE",
"298 395 CURVE SMOOTH",
"295 393 OFFCURVE",
"294 389 OFFCURVE",
"294 386 CURVE SMOOTH",
"294 381 OFFCURVE",
"298 376 OFFCURVE",
"303 376 CURVE SMOOTH",
"305 376 OFFCURVE",
"306 377 OFFCURVE",
"308 378 CURVE SMOOTH",
"330 393 OFFCURVE",
"358 431 OFFCURVE",
"358 467 CURVE SMOOTH",
"358 543 OFFCURVE",
"309 564 OFFCURVE",
"233 564 CURVE SMOOTH",
"140 564 OFFCURVE",
"58 476 OFFCURVE",
"58 382 CURVE SMOOTH",
"58 265 OFFCURVE",
"184 217 OFFCURVE",
"306 206 CURVE",
"284 146 OFFCURVE",
"258 89 OFFCURVE",
"218 49 CURVE SMOOTH",
"206 37 OFFCURVE",
"194 24 OFFCURVE",
"181 11 CURVE",
"143 29 OFFCURVE",
"96 49 OFFCURVE",
"65 49 CURVE SMOOTH",
"43 49 OFFCURVE",
"16 15 OFFCURVE",
"16 -3 CURVE SMOOTH",
"16 -31 OFFCURVE",
"55 -56 OFFCURVE",
"76 -56 CURVE SMOOTH",
"114 -56 OFFCURVE",
"156 -45 OFFCURVE",
"194 -29 CURVE",
"199 -32 OFFCURVE",
"204 -34 OFFCURVE",
"208 -36 CURVE SMOOTH",
"242 -49 OFFCURVE",
"293 -78 OFFCURVE",
"327 -89 CURVE SMOOTH",
"397 -112 OFFCURVE",
"418 -138 OFFCURVE",
"508 -138 CURVE SMOOTH",
"582 -138 OFFCURVE",
"655 -91 OFFCURVE",
"655 -18 CURVE SMOOTH",
"655 31 OFFCURVE",
"607 60 OFFCURVE",
"558 60 CURVE SMOOTH",
"523 60 OFFCURVE",
"506 45 OFFCURVE",
"491 24 CURVE SMOOTH",
"481 10 OFFCURVE",
"477 -5 OFFCURVE",
"477 -17 CURVE SMOOTH",
"477 -27 OFFCURVE",
"480 -34 OFFCURVE",
"485 -34 CURVE SMOOTH",
"489 -34 OFFCURVE",
"495 -28 OFFCURVE",
"502 -13 CURVE SMOOTH",
"510 5 OFFCURVE",
"528 40 OFFCURVE",
"558 40 CURVE SMOOTH",
"596 40 OFFCURVE",
"627 23 OFFCURVE",
"627 -16 CURVE SMOOTH",
"627 -78 OFFCURVE",
"552 -105 OFFCURVE",
"489 -105 CURVE SMOOTH",
"402 -105 OFFCURVE",
"382 -61 OFFCURVE",
"311 -38 CURVE SMOOTH",
"279 -28 OFFCURVE",
"262 -22 OFFCURVE",
"231 -11 CURVE",
"251 0 OFFCURVE",
"268 13 OFFCURVE",
"280 25 CURVE SMOOTH",
"327 72 OFFCURVE",
"355 134 OFFCURVE",
"369 203 CURVE",
"369 203 LINE",
"442 203 OFFCURVE",
"502 246 OFFCURVE",
"551 273 CURVE SMOOTH",
"629 317 OFFCURVE",
"708 388 OFFCURVE",
"708 504 CURVE SMOOTH"
);
},
{
closed = 1;
nodes = (
"625 447 OFFCURVE",
"613 332 OFFCURVE",
"540 292 CURVE SMOOTH",
"494 266 OFFCURVE",
"440 224 OFFCURVE",
"373 223 CURVE",
"375 238 OFFCURVE",
"377 253 OFFCURVE",
"378 269 CURVE SMOOTH",
"389 396 OFFCURVE",
"406 476 OFFCURVE",
"445 553 CURVE SMOOTH",
"468 599 OFFCURVE",
"498 643 OFFCURVE",
"567 643 CURVE SMOOTH",
"591 643 OFFCURVE",
"602 642 OFFCURVE",
"616 632 CURVE SMOOTH",
"639 614 OFFCURVE",
"648 596 OFFCURVE",
"648 569 CURVE SMOOTH",
"648 552 OFFCURVE",
"644 531 OFFCURVE",
"638 504 CURVE SMOOTH"
);
},
{
closed = 1;
nodes = (
"134 -25 OFFCURVE",
"108 -36 OFFCURVE",
"76 -36 CURVE SMOOTH",
"63 -36 OFFCURVE",
"52 -25 OFFCURVE",
"52 -8 CURVE SMOOTH",
"52 4 OFFCURVE",
"67 13 OFFCURVE",
"82 13 CURVE SMOOTH",
"105 13 OFFCURVE",
"131 2 OFFCURVE",
"155 -10 CURVE"
);
}
);
width = 627;
}
);
note = L;
unicode = 004C;
},
{
glyphname = M;
lastChange = "2022-02-04 13:17:06 +0000";
layers = (
{
layerId = "5ED96FCC-ACEE-47D8-A1F6-56FBB5DDEA2A";
paths = (
{
closed = 1;
nodes = (
"983 18 OFFCURVE",
"964 -24 OFFCURVE",
"932 -25 CURVE SMOOTH",
"907 -26 OFFCURVE",
"886 -37 OFFCURVE",
"869 -37 CURVE SMOOTH",
"845 -37 OFFCURVE",
"831 -16 OFFCURVE",
"831 85 CURVE SMOOTH",
"831 152 OFFCURVE",
"899 260 OFFCURVE",
"899 345 CURVE SMOOTH",
"899 360 OFFCURVE",
"897 374 OFFCURVE",
"892 387 CURVE",
"889 391 OFFCURVE",
"873 431 OFFCURVE",
"834 431 CURVE SMOOTH",
"827 431 OFFCURVE",
"820 430 OFFCURVE",
"811 427 CURVE SMOOTH",
"782 416 OFFCURVE",
"735 347 OFFCURVE",
"692 283 CURVE",
"684 298 OFFCURVE",
"679 332 OFFCURVE",
"678 375 CURVE SMOOTH",
"677 429 OFFCURVE",
"671 462 OFFCURVE",
"627 509 CURVE SMOOTH",
"620 517 OFFCURVE",
"610 521 OFFCURVE",
"601 521 CURVE SMOOTH",
"585 521 OFFCURVE",
"569 511 OFFCURVE",
"558 488 CURVE",
"542 438 OFFCURVE",
"519 380 OFFCURVE",
"518 328 CURVE SMOOTH",
"517 306 OFFCURVE",
"514 297 OFFCURVE",
"511 297 CURVE SMOOTH",
"506 297 OFFCURVE",
"500 314 OFFCURVE",
"495 335 CURVE",
"462 423 OFFCURVE",
"380 606 OFFCURVE",
"216 606 CURVE SMOOTH",
"188 606 OFFCURVE",
"158 601 OFFCURVE",
"125 589 CURVE SMOOTH",
"47 560 OFFCURVE",
"-52 487 OFFCURVE",
"-52 345 CURVE SMOOTH",
"-52 305 OFFCURVE",
"-44 258 OFFCURVE",
"-25 205 CURVE SMOOTH",
"7 118 OFFCURVE",
"101 62 OFFCURVE",
"179 62 CURVE SMOOTH",
"195 62 OFFCURVE",
"210 64 OFFCURVE",
"224 69 CURVE SMOOTH",
"262 83 OFFCURVE",
"317 153 OFFCURVE",
"317 221 CURVE SMOOTH",
"317 231 OFFCURVE",
"316 242 OFFCURVE",
"313 252 CURVE SMOOTH",
"302 292 OFFCURVE",
"275 327 OFFCURVE",
"249 338 CURVE SMOOTH",
"236 344 OFFCURVE",
"226 346 OFFCURVE",
"218 346 CURVE SMOOTH",
"205 346 OFFCURVE",
"198 340 OFFCURVE",
"198 333 CURVE SMOOTH",
"198 327 OFFCURVE",
"202 320 OFFCURVE",
"211 316 CURVE SMOOTH",
"246 298 OFFCURVE",
"264 260 OFFCURVE",
"264 220 CURVE SMOOTH",
"264 174 OFFCURVE",
"239 125 OFFCURVE",
"185 105 CURVE SMOOTH",
"180 103 OFFCURVE",
"173 102 OFFCURVE",
"166 102 CURVE SMOOTH",
"114 102 OFFCURVE",
"25 151 OFFCURVE",
"2 213 CURVE SMOOTH",
"-15 260 OFFCURVE",
"-23 302 OFFCURVE",
"-23 340 CURVE SMOOTH",
"-23 466 OFFCURVE",
"61 540 OFFCURVE",
"133 565 CURVE SMOOTH",
"158 574 OFFCURVE",
"183 578 OFFCURVE",
"207 578 CURVE SMOOTH",
"327 578 OFFCURVE",
"419 472 OFFCURVE",
"442 375 CURVE SMOOTH",
"455 317 OFFCURVE",
"466 254 OFFCURVE",
"466 183 CURVE SMOOTH",
"466 115 OFFCURVE",
"456 41 OFFCURVE",
"428 -40 CURVE SMOOTH",
"425 -51 OFFCURVE",
"417 -72 OFFCURVE",
"417 -86 CURVE SMOOTH",
"417 -93 OFFCURVE",
"419 -98 OFFCURVE",
"425 -98 CURVE SMOOTH",
"438 -98 OFFCURVE",
"502 -84 OFFCURVE",
"505 -56 CURVE SMOOTH",
"509 -15 OFFCURVE",
"518 85 OFFCURVE",
"531 198 CURVE SMOOTH",
"548 349 OFFCURVE",
"565 500 OFFCURVE",
"598 478 CURVE SMOOTH",
"620 463 OFFCURVE",
"620 440 OFFCURVE",
"625 413 CURVE SMOOTH",
"636 356 OFFCURVE",
"640 308 OFFCURVE",
"640 264 CURVE SMOOTH",
"640 198 OFFCURVE",
"631 144 OFFCURVE",
"624 95 CURVE SMOOTH",
"621 73 OFFCURVE",
"613 47 OFFCURVE",
"613 25 CURVE SMOOTH",
"613 15 OFFCURVE",
"615 6 OFFCURVE",
"620 0 CURVE SMOOTH",
"623 -4 OFFCURVE",
"626 -5 OFFCURVE",
"629 -5 CURVE SMOOTH",
"633 -5 OFFCURVE",
"638 -3 OFFCURVE",
"643 -2 CURVE",
"653 2 OFFCURVE",
"658 7 OFFCURVE",
"664 16 CURVE SMOOTH",
"668 22 OFFCURVE",
"669 28 OFFCURVE",
"669 34 CURVE SMOOTH",
"669 44 OFFCURVE",
"666 55 OFFCURVE",
"667 65 CURVE SMOOTH",
"673 132 OFFCURVE",
"696 178 OFFCURVE",
"711 218 CURVE SMOOTH",
"745 309 OFFCURVE",
"782 347 OFFCURVE",
"804 376 CURVE",
"817 388 OFFCURVE",
"830 395 OFFCURVE",
"840 395 CURVE SMOOTH",
"852 395 OFFCURVE",
"859 385 OFFCURVE",
"856 364 CURVE SMOOTH",
"848 305 OFFCURVE",
"810 142 OFFCURVE",
"804 55 CURVE SMOOTH",
"800 -7 OFFCURVE",
"837 -45 OFFCURVE",
"858 -58 CURVE SMOOTH",
"867 -63 OFFCURVE",
"879 -66 OFFCURVE",
"893 -66 CURVE SMOOTH",
"922 -66 OFFCURVE",
"960 -52 OFFCURVE",
"987 -15 CURVE SMOOTH",
"995 -5 OFFCURVE",
"1004 4 OFFCURVE",
"1004 10 CURVE SMOOTH",
"1004 13 OFFCURVE",
"1003 15 OFFCURVE",
"998 16 CURVE"
);
}
);
width = 1000;
}
);
note = M;
unicode = 004D;
},
{
glyphname = N;
lastChange = "2022-02-04 13:17:06 +0000";
layers = (
{
layerId = "5ED96FCC-ACEE-47D8-A1F6-56FBB5DDEA2A";
paths = (
{
closed = 1;
nodes = (
"838 28 OFFCURVE",
"840 32 OFFCURVE",
"840 35 CURVE SMOOTH",
"840 43 OFFCURVE",
"833 48 OFFCURVE",
"823 51 CURVE",
"807 52 OFFCURVE",
"804 -11 OFFCURVE",
"772 -4 CURVE SMOOTH",
"763 -2 OFFCURVE",
"749 -7 OFFCURVE",
"734 -7 CURVE SMOOTH",
"707 -7 OFFCURVE",
"678 10 OFFCURVE",
"678 123 CURVE SMOOTH",
"678 192 OFFCURVE",
"745 299 OFFCURVE",
"745 386 CURVE SMOOTH",
"745 399 OFFCURVE",
"744 412 OFFCURVE",
"740 424 CURVE SMOOTH",
"723 484 OFFCURVE",
"705 513 OFFCURVE",
"672 536 CURVE SMOOTH",
"662 542 OFFCURVE",
"647 546 OFFCURVE",
"630 546 CURVE SMOOTH",
"608 546 OFFCURVE",
"583 540 OFFCURVE",
"564 523 CURVE",
"542 492 OFFCURVE",
"485 418 OFFCURVE",
"484 365 CURVE SMOOTH",
"484 343 OFFCURVE",
"481 334 OFFCURVE",
"477 334 CURVE SMOOTH",
"472 334 OFFCURVE",
"465 351 OFFCURVE",
"460 372 CURVE",
"426 465 OFFCURVE",
"367 589 OFFCURVE",
"241 589 CURVE SMOOTH",
"227 589 OFFCURVE",
"211 588 OFFCURVE",
"195 584 CURVE SMOOTH",
"111 567 OFFCURVE",
"18 516 OFFCURVE",
"18 400 CURVE SMOOTH",
"18 371 OFFCURVE",
"24 337 OFFCURVE",
"38 298 CURVE SMOOTH",
"64 228 OFFCURVE",
"138 183 OFFCURVE",
"199 183 CURVE SMOOTH",
"212 183 OFFCURVE",
"225 185 OFFCURVE",
"236 189 CURVE SMOOTH",
"267 200 OFFCURVE",
"312 256 OFFCURVE",
"312 310 CURVE SMOOTH",
"312 351 OFFCURVE",
"282 393 OFFCURVE",
"256 404 CURVE SMOOTH",
"246 409 OFFCURVE",
"237 410 OFFCURVE",
"231 410 CURVE SMOOTH",
"220 410 OFFCURVE",
"215 406 OFFCURVE",
"215 400 CURVE SMOOTH",
"215 395 OFFCURVE",
"218 390 OFFCURVE",
"225 387 CURVE SMOOTH",
"254 372 OFFCURVE",
"269 342 OFFCURVE",
"269 310 CURVE SMOOTH",
"269 272 OFFCURVE",
"248 233 OFFCURVE",
"205 218 CURVE SMOOTH",
"201 216 OFFCURVE",
"195 216 OFFCURVE",
"189 216 CURVE SMOOTH",
"148 216 OFFCURVE",
"76 254 OFFCURVE",
"58 304 CURVE SMOOTH",
"46 337 OFFCURVE",
"40 367 OFFCURVE",
"40 393 CURVE SMOOTH",
"40 496 OFFCURVE",
"124 547 OFFCURVE",
"203 560 CURVE SMOOTH",
"214 562 OFFCURVE",
"225 563 OFFCURVE",
"235 563 CURVE SMOOTH",
"313 563 OFFCURVE",
"383 514 OFFCURVE",
"407 412 CURVE SMOOTH",
"420 354 OFFCURVE",
"431 291 OFFCURVE",
"431 221 CURVE SMOOTH",
"431 153 OFFCURVE",
"421 79 OFFCURVE",
"393 -3 CURVE SMOOTH",
"390 -13 OFFCURVE",
"382 -34 OFFCURVE",
"382 -47 CURVE SMOOTH",
"382 -55 OFFCURVE",
"385 -60 OFFCURVE",
"391 -60 CURVE SMOOTH",
"403 -60 OFFCURVE",
"468 -47 OFFCURVE",
"471 -18 CURVE SMOOTH",
"475 23 OFFCURVE",
"483 123 OFFCURVE",
"496 235 CURVE SMOOTH",
"513 387 OFFCURVE",
"575 502 OFFCURVE",
"615 507 CURVE SMOOTH",
"657 513 OFFCURVE",
"699 457 OFFCURVE",
"699 396 CURVE SMOOTH",
"699 386 OFFCURVE",
"658 201 OFFCURVE",
"652 92 CURVE SMOOTH",
"648 31 OFFCURVE",
"685 -8 OFFCURVE",
"707 -20 CURVE SMOOTH",
"716 -25 OFFCURVE",
"728 -28 OFFCURVE",
"742 -28 CURVE SMOOTH",
"771 -28 OFFCURVE",
"808 -14 OFFCURVE",
"835 23 CURVE SMOOTH"
);
}
);
width = 852;
}
);
note = N;
unicode = 004E;
},
{
color = 3;
glyphname = Eng;
lastChange = "2022-02-04 13:17:06 +0000";
layers = (
{
background = {
paths = (
{
closed = 1;
nodes = (
"654 -64 OFFCURVE",
"607 -150 OFFCURVE",
"583 -192 CURVE SMOOTH",
"577 -204 OFFCURVE",
"530 -254 OFFCURVE",
"511 -245 CURVE SMOOTH",
"492 -236 OFFCURVE",
"481 -208 OFFCURVE",
"480 -188 CURVE SMOOTH",
"480 -162 OFFCURVE",
"487 -148 OFFCURVE",
"486 -139 CURVE",
"479 -128 OFFCURVE",
"466 -128 OFFCURVE",
"460 -164 CURVE SMOOTH",
"455 -199 OFFCURVE",
"441 -255 OFFCURVE",
"483 -278 CURVE SMOOTH",
"515 -295 OFFCURVE",
"586 -234 OFFCURVE",
"612 -213 CURVE",
"658 -143 OFFCURVE",
"677 -79 OFFCURVE",
"686 22 CURVE",
"652 58 LINE"
);
}
);
};
layerId = "5ED96FCC-ACEE-47D8-A1F6-56FBB5DDEA2A";
paths = (
{
closed = 1;
nodes = (
"695 82 OFFCURVE",
"697 129 OFFCURVE",
"703 163 CURVE SMOOTH",
"714 226 OFFCURVE",
"748 295 OFFCURVE",
"748 367 CURVE SMOOTH",
"748 386 OFFCURVE",
"746 405 OFFCURVE",
"740 424 CURVE SMOOTH",
"723 484 OFFCURVE",
"705 513 OFFCURVE",
"672 536 CURVE SMOOTH",
"662 542 OFFCURVE",
"647 546 OFFCURVE",
"630 546 CURVE SMOOTH",
"608 546 OFFCURVE",
"583 540 OFFCURVE",
"564 523 CURVE",
"542 492 OFFCURVE",
"485 418 OFFCURVE",
"484 365 CURVE SMOOTH",
"484 343 OFFCURVE",
"481 334 OFFCURVE",
"477 334 CURVE SMOOTH",
"472 334 OFFCURVE",
"465 351 OFFCURVE",
"460 372 CURVE",
"426 465 OFFCURVE",
"367 589 OFFCURVE",
"241 589 CURVE SMOOTH",
"227 589 OFFCURVE",
"211 588 OFFCURVE",
"195 584 CURVE SMOOTH",
"111 567 OFFCURVE",
"18 516 OFFCURVE",
"18 400 CURVE SMOOTH",
"18 371 OFFCURVE",
"24 337 OFFCURVE",
"38 298 CURVE SMOOTH",
"64 228 OFFCURVE",
"138 183 OFFCURVE",
"199 183 CURVE SMOOTH",
"212 183 OFFCURVE",
"225 185 OFFCURVE",
"236 189 CURVE SMOOTH",
"267 200 OFFCURVE",
"312 256 OFFCURVE",
"312 310 CURVE SMOOTH",
"312 351 OFFCURVE",
"282 393 OFFCURVE",
"256 404 CURVE SMOOTH",
"246 409 OFFCURVE",
"237 410 OFFCURVE",
"231 410 CURVE SMOOTH",
"220 410 OFFCURVE",
"215 406 OFFCURVE",
"215 400 CURVE SMOOTH",
"215 395 OFFCURVE",
"218 390 OFFCURVE",
"225 387 CURVE SMOOTH",
"254 372 OFFCURVE",
"269 342 OFFCURVE",
"269 310 CURVE SMOOTH",
"269 272 OFFCURVE",
"248 233 OFFCURVE",
"205 218 CURVE SMOOTH",
"201 216 OFFCURVE",
"195 216 OFFCURVE",
"189 216 CURVE SMOOTH",
"148 216 OFFCURVE",
"76 254 OFFCURVE",
"58 304 CURVE SMOOTH",
"46 337 OFFCURVE",
"40 367 OFFCURVE",
"40 393 CURVE SMOOTH",
"40 496 OFFCURVE",
"124 547 OFFCURVE",
"203 560 CURVE SMOOTH",
"214 562 OFFCURVE",
"225 563 OFFCURVE",
"235 563 CURVE SMOOTH",
"313 563 OFFCURVE",
"383 514 OFFCURVE",
"407 412 CURVE SMOOTH",
"420 354 OFFCURVE",
"431 291 OFFCURVE",
"431 221 CURVE SMOOTH",
"431 153 OFFCURVE",
"421 79 OFFCURVE",
"393 -3 CURVE SMOOTH",
"390 -13 OFFCURVE",
"382 -34 OFFCURVE",
"382 -47 CURVE SMOOTH",
"382 -55 OFFCURVE",
"385 -60 OFFCURVE",
"391 -60 CURVE SMOOTH",
"403 -60 OFFCURVE",
"468 -47 OFFCURVE",
"471 -18 CURVE SMOOTH",
"475 23 OFFCURVE",
"483 123 OFFCURVE",
"496 235 CURVE SMOOTH",
"513 387 OFFCURVE",
"575 502 OFFCURVE",
"615 507 CURVE SMOOTH",
"657 513 OFFCURVE",
"699 457 OFFCURVE",
"699 396 CURVE SMOOTH",
"699 387 OFFCURVE",
"698 378 OFFCURVE",
"696 369 CURVE SMOOTH",
"683 312 OFFCURVE",
"672 178 OFFCURVE",
"669 126 CURVE SMOOTH",
"668 108 OFFCURVE",
"667 75 OFFCURVE",
"667 58 CURVE",
"667 -38 OFFCURVE",
"607 -150 OFFCURVE",
"583 -192 CURVE SMOOTH",
"577 -204 OFFCURVE",
"530 -254 OFFCURVE",
"511 -245 CURVE SMOOTH",
"492 -236 OFFCURVE",
"481 -208 OFFCURVE",
"480 -188 CURVE SMOOTH",
"480 -162 OFFCURVE",
"487 -148 OFFCURVE",
"486 -139 CURVE",
"484 -135 OFFCURVE",
"480 -133 OFFCURVE",
"477 -133 CURVE SMOOTH",
"471 -133 OFFCURVE",
"464 -141 OFFCURVE",
"460 -164 CURVE SMOOTH",
"458 -180 OFFCURVE",
"454 -200 OFFCURVE",
"454 -219 CURVE SMOOTH",
"454 -243 OFFCURVE",
"460 -265 OFFCURVE",
"483 -278 CURVE SMOOTH",
"487 -280 OFFCURVE",
"491 -281 OFFCURVE",
"496 -281 CURVE SMOOTH",
"531 -281 OFFCURVE",
"589 -231 OFFCURVE",
"612 -213 CURVE",
"654 -148 OFFCURVE",
"676 -106 OFFCURVE",
"683 -50 CURVE SMOOTH",
"685 -34 OFFCURVE",
"695 30 OFFCURVE",
"695 45 CURVE"
);
}
);
width = 793;
}
);
unicode = 014A;
},
{
glyphname = O;
lastChange = "2022-02-04 13:17:06 +0000";
layers = (
{
layerId = "5ED96FCC-ACEE-47D8-A1F6-56FBB5DDEA2A";
paths = (
{
closed = 1;
nodes = (
"480 485 OFFCURVE",
"404 565 OFFCURVE",
"311 565 CURVE SMOOTH",
"302 565 OFFCURVE",
"283 562 OFFCURVE",
"258 555 CURVE",
"283 576 OFFCURVE",
"309 595 OFFCURVE",
"340 611 CURVE SMOOTH",
"349 616 OFFCURVE",
"356 626 OFFCURVE",
"356 634 CURVE SMOOTH",
"356 640 OFFCURVE",
"352 644 OFFCURVE",
"344 644 CURVE SMOOTH",
"338 644 OFFCURVE",
"329 641 OFFCURVE",
"316 635 CURVE",
"276 607 OFFCURVE",
"236 572 OFFCURVE",
"200 532 CURVE",
"129 502 OFFCURVE",
"48 446 OFFCURVE",
"4 363 CURVE SMOOTH",
"-3 350 OFFCURVE",
"-6 335 OFFCURVE",
"-6 321 CURVE SMOOTH",
"-6 283 OFFCURVE",
"15 244 OFFCURVE",
"45 212 CURVE",
"43 188 OFFCURVE",
"41 163 OFFCURVE",
"42 136 CURVE SMOOTH",
"44 24 OFFCURVE",
"105 16 OFFCURVE",
"124 0 CURVE SMOOTH",
"137 -11 OFFCURVE",
"162 -20 OFFCURVE",
"187 -20 CURVE SMOOTH",
"199 -20 OFFCURVE",
"212 -18 OFFCURVE",
"223 -13 CURVE SMOOTH",
"262 4 OFFCURVE",
"373 30 OFFCURVE",
"433 155 CURVE SMOOTH",
"475 241 OFFCURVE",
"487 352 OFFCURVE",
"484 405 CURVE SMOOTH"
);
},
{
closed = 1;
nodes = (
"423 340 OFFCURVE",
"414 211 OFFCURVE",
"378 149 CURVE SMOOTH",
"314 38 OFFCURVE",
"234 11 OFFCURVE",
"183 11 CURVE SMOOTH",
"167 11 OFFCURVE",
"154 14 OFFCURVE",
"145 18 CURVE SMOOTH",
"120 30 OFFCURVE",
"84 62 OFFCURVE",
"84 141 CURVE SMOOTH",
"84 154 OFFCURVE",
"85 166 OFFCURVE",
"85 178 CURVE",
"105 167 OFFCURVE",
"125 159 OFFCURVE",
"145 155 CURVE SMOOTH",
"168 151 OFFCURVE",
"333 166 OFFCURVE",
"333 249 CURVE SMOOTH",
"333 266 OFFCURVE",
"326 285 OFFCURVE",
"311 307 CURVE",
"295 323 OFFCURVE",
"279 332 OFFCURVE",
"265 332 CURVE SMOOTH",
"255 332 OFFCURVE",
"247 329 OFFCURVE",
"238 320 CURVE SMOOTH",
"235 316 OFFCURVE",
"232 312 OFFCURVE",
"232 308 CURVE SMOOTH",
"232 300 OFFCURVE",
"241 294 OFFCURVE",
"268 296 CURVE SMOOTH",
"288 297 OFFCURVE",
"304 291 OFFCURVE",
"304 268 CURVE SMOOTH",
"304 261 OFFCURVE",
"302 251 OFFCURVE",
"298 240 CURVE SMOOTH",
"289 215 OFFCURVE",
"248 202 OFFCURVE",
"202 202 CURVE SMOOTH",
"165 202 OFFCURVE",
"124 211 OFFCURVE",
"92 229 CURVE",
"109 328 OFFCURVE",
"152 448 OFFCURVE",
"238 535 CURVE",
"244 538 OFFCURVE",
"249 538 OFFCURVE",
"255 538 CURVE SMOOTH",
"264 539 OFFCURVE",
"274 539 OFFCURVE",
"285 539 CURVE SMOOTH",
"348 539 OFFCURVE",
"423 517 OFFCURVE",
"423 391 CURVE SMOOTH"
);
},
{
closed = 1;
nodes = (
"116 432 OFFCURVE",
"73 353 OFFCURVE",
"53 263 CURVE",
"43 276 OFFCURVE",
"38 292 OFFCURVE",
"38 309 CURVE SMOOTH",
"38 318 OFFCURVE",
"39 328 OFFCURVE",
"42 338 CURVE SMOOTH",
"52 380 OFFCURVE",
"109 452 OFFCURVE",
"171 498 CURVE"
);
}
);
width = 468;
}
);
note = O;
unicode = 004F;
},
{
glyphname = Oslash;
lastChange = "2022-02-04 13:16:50 +0000";
layers = (
{
layerId = "5ED96FCC-ACEE-47D8-A1F6-56FBB5DDEA2A";
paths = (
{
closed = 1;
nodes = (
"240 415 OFFCURVE",
"161 368 OFFCURVE",
"100 303 CURVE",
"85 329 OFFCURVE",
"77 367 OFFCURVE",
"77 396 CURVE SMOOTH",
"77 461 OFFCURVE",
"119 488 OFFCURVE",
"179 488 CURVE SMOOTH",
"227 488 OFFCURVE",
"278 472 OFFCURVE",
"321 452 CURVE"
);
},
{
closed = 1;
nodes = (
"197 209 OFFCURVE",
"161 230 OFFCURVE",
"133 259 CURVE",
"194 329 OFFCURVE",
"282 391 OFFCURVE",
"367 428 CURVE",
"374 423 OFFCURVE",
"382 419 OFFCURVE",
"389 414 CURVE",
"339 348 OFFCURVE",
"283 272 OFFCURVE",
"235 199 CURVE"
);
},
{
closed = 1;
nodes = (
"90 34 OFFCURVE",
"64 67 OFFCURVE",
"64 113 CURVE SMOOTH",
"64 157 OFFCURVE",
"88 201 OFFCURVE",
"114 236 CURVE",
"144 210 OFFCURVE",
"182 190 OFFCURVE",
"222 179 CURVE",
"181 115 OFFCURVE",
"146 56 OFFCURVE",
"127 10 CURVE"
);
},
{
closed = 1;
nodes = (
"496 332 OFFCURVE",
"556 253 OFFCURVE",
"556 164 CURVE SMOOTH",
"556 112 OFFCURVE",
"535 64 OFFCURVE",
"502 24 CURVE SMOOTH",
"461 -24 OFFCURVE",
"373 -38 OFFCURVE",
"313 -38 CURVE SMOOTH",
"267 -38 OFFCURVE",
"202 -28 OFFCURVE",
"150 -2 CURVE",
"170 42 OFFCURVE",
"210 104 OFFCURVE",
"258 171 CURVE",
"272 169 OFFCURVE",
"286 168 OFFCURVE",
"300 168 CURVE SMOOTH",
"353 168 OFFCURVE",
"413 187 OFFCURVE",
"442 234 CURVE SMOOTH",
"450 247 OFFCURVE",
"455 262 OFFCURVE",
"455 277 CURVE SMOOTH",
"455 284 OFFCURVE",
"454 296 OFFCURVE",
"444 296 CURVE SMOOTH",
"411 296 OFFCURVE",
"420 220 OFFCURVE",
"362 201 CURVE SMOOTH",
"341 194 OFFCURVE",
"316 192 OFFCURVE",
"294 192 CURVE SMOOTH",
"287 192 OFFCURVE",
"280 192 OFFCURVE",
"274 193 CURVE",
"322 258 OFFCURVE",
"376 327 OFFCURVE",
"426 387 CURVE"
);
},
{
closed = 1;
nodes = (
"574 572 OFFCURVE",
"548 578 OFFCURVE",
"540 578 CURVE SMOOTH",
"536 578 OFFCURVE",
"531 578 OFFCURVE",
"528 575 CURVE SMOOTH",
"511 560 OFFCURVE",
"486 533 OFFCURVE",
"457 498 CURVE",
"430 493 OFFCURVE",
"403 485 OFFCURVE",
"381 477 CURVE",
"325 509 OFFCURVE",
"255 536 OFFCURVE",
"190 536 CURVE SMOOTH",
"101 536 OFFCURVE",
"51 486 OFFCURVE",
"51 396 CURVE SMOOTH",
"51 359 OFFCURVE",
"58 309 OFFCURVE",
"78 278 CURVE",
"46 239 OFFCURVE",
"8 176 OFFCURVE",
"8 125 CURVE SMOOTH",
"8 72 OFFCURVE",
"38 26 OFFCURVE",
"80 -4 CURVE SMOOTH",
"90 -12 OFFCURVE",
"102 -18 OFFCURVE",
"114 -24 CURVE",
"111 -35 OFFCURVE",
"109 -43 OFFCURVE",
"109 -51 CURVE SMOOTH",
"109 -66 OFFCURVE",
"121 -93 OFFCURVE",
"139 -93 CURVE SMOOTH",
"143 -93 OFFCURVE",
"144 -89 OFFCURVE",
"144 -85 CURVE SMOOTH",
"144 -73 OFFCURVE",
"135 -61 OFFCURVE",
"135 -51 CURVE SMOOTH",
"135 -46 OFFCURVE",
"136 -41 OFFCURVE",
"138 -35 CURVE",
"187 -53 OFFCURVE",
"244 -61 OFFCURVE",
"292 -61 CURVE SMOOTH",
"368 -61 OFFCURVE",
"473 -42 OFFCURVE",
"524 19 CURVE SMOOTH",
"564 65 OFFCURVE",
"589 121 OFFCURVE",
"589 183 CURVE SMOOTH",
"589 279 OFFCURVE",
"529 364 OFFCURVE",
"456 425 CURVE",
"468 438 OFFCURVE",
"479 452 OFFCURVE",
"490 464 CURVE",
"497 465 OFFCURVE",
"505 465 OFFCURVE",
"512 466 CURVE SMOOTH",
"518 468 OFFCURVE",
"539 471 OFFCURVE",
"539 481 CURVE SMOOTH",
"539 489 OFFCURVE",
"529 494 OFFCURVE",
"518 497 CURVE",
"541 523 OFFCURVE",
"559 543 OFFCURVE",
"572 556 CURVE",
"573 558 OFFCURVE",
"574 559 OFFCURVE",
"574 561 CURVE SMOOTH"
);
}
);
width = 616;
}
);
note = Oslash;
unicode = 00D8;
},
{
glyphname = OE;
lastChange = "2022-02-04 13:16:50 +0000";
layers = (
{
layerId = "5ED96FCC-ACEE-47D8-A1F6-56FBB5DDEA2A";
paths = (
{
closed = 1;
nodes = (
"824 161 OFFCURVE",
"792 199 OFFCURVE",
"735 199 CURVE SMOOTH",
"673 199 OFFCURVE",
"596 163 OFFCURVE",
"596 92 CURVE SMOOTH",
"596 58 OFFCURVE",
"618 35 OFFCURVE",
"652 35 CURVE SMOOTH",
"674 35 OFFCURVE",
"699 50 OFFCURVE",
"699 75 CURVE SMOOTH",
"699 83 OFFCURVE",
"692 103 OFFCURVE",
"682 103 CURVE SMOOTH",
"678 103 OFFCURVE",
"676 100 OFFCURVE",
"676 97 CURVE SMOOTH",
"676 91 OFFCURVE",
"680 89 OFFCURVE",
"680 84 CURVE SMOOTH",
"680 70 OFFCURVE",
"664 60 OFFCURVE",
"652 60 CURVE SMOOTH",
"638 60 OFFCURVE",
"634 75 OFFCURVE",
"634 87 CURVE SMOOTH",
"634 140 OFFCURVE",
"686 175 OFFCURVE",
"735 175 CURVE SMOOTH",
"757 175 OFFCURVE",
"786 129 OFFCURVE",
"786 109 CURVE SMOOTH",
"786 18 OFFCURVE",
"687 -28 OFFCURVE",
"608 -28 CURVE SMOOTH",
"532 -28 OFFCURVE",
"467 -3 OFFCURVE",
"458 82 CURVE",
"501 127 OFFCURVE",
"527 187 OFFCURVE",
"527 250 CURVE SMOOTH",
"527 260 OFFCURVE",
"527 270 OFFCURVE",
"526 280 CURVE",
"547 259 OFFCURVE",
"570 253 OFFCURVE",
"599 253 CURVE SMOOTH",
"633 253 OFFCURVE",
"735 253 OFFCURVE",
"735 306 CURVE SMOOTH",
"735 342 OFFCURVE",
"689 360 OFFCURVE",
"659 360 CURVE SMOOTH",
"615 360 OFFCURVE",
"571 348 OFFCURVE",
"533 326 CURVE",
"525 348 OFFCURVE",
"522 372 OFFCURVE",
"522 395 CURVE SMOOTH",
"522 476 OFFCURVE",
"609 566 OFFCURVE",
"690 566 CURVE SMOOTH",
"724 566 OFFCURVE",
"769 541 OFFCURVE",
"769 502 CURVE SMOOTH",
"769 463 OFFCURVE",
"727 462 OFFCURVE",
"727 442 CURVE SMOOTH",
"727 438 OFFCURVE",
"730 433 OFFCURVE",
"735 433 CURVE SMOOTH",
"736 433 OFFCURVE",
"738 434 OFFCURVE",
"740 434 CURVE",
"769 446 OFFCURVE",
"799 466 OFFCURVE",
"799 501 CURVE SMOOTH",
"799 556 OFFCURVE",
"735 591 OFFCURVE",
"687 591 CURVE SMOOTH",
"580 591 OFFCURVE",
"477 509 OFFCURVE",
"473 399 CURVE",
"416 461 OFFCURVE",
"328 485 OFFCURVE",
"246 485 CURVE SMOOTH",
"237 485 OFFCURVE",
"227 485 OFFCURVE",
"218 484 CURVE SMOOTH",
"116 477 OFFCURVE",
"32 406 OFFCURVE",
"32 299 CURVE SMOOTH",
"32 297 OFFCURVE",
"32 291 OFFCURVE",
"36 291 CURVE SMOOTH",
"43 291 OFFCURVE",
"46 305 OFFCURVE",
"46 309 CURVE SMOOTH",
"46 402 OFFCURVE",
"131 460 OFFCURVE",
"218 460 CURVE SMOOTH",
"347 460 OFFCURVE",
"491 397 OFFCURVE",
"491 249 CURVE SMOOTH",
"491 132 OFFCURVE",
"398 22 OFFCURVE",
"278 22 CURVE SMOOTH",
"153 22 OFFCURVE",
"84 55 OFFCURVE",
"84 191 CURVE SMOOTH",
"84 265 OFFCURVE",
"128 352 OFFCURVE",
"211 352 CURVE SMOOTH",
"237 352 OFFCURVE",
"287 350 OFFCURVE",
"287 314 CURVE SMOOTH",
"287 296 OFFCURVE",
"269 258 OFFCURVE",
"248 258 CURVE SMOOTH",
"229 258 OFFCURVE",
"217 276 OFFCURVE",
"208 276 CURVE SMOOTH",
"201 276 OFFCURVE",
"196 270 OFFCURVE",
"196 263 CURVE SMOOTH",
"196 248 OFFCURVE",
"236 234 OFFCURVE",
"248 234 CURVE SMOOTH",
"284 234 OFFCURVE",
"311 282 OFFCURVE",
"311 314 CURVE SMOOTH",
"311 367 OFFCURVE",
"253 376 OFFCURVE",
"211 376 CURVE SMOOTH",
"118 376 OFFCURVE",
"28 271 OFFCURVE",
"28 180 CURVE SMOOTH",
"28 25 OFFCURVE",
"149 -2 OFFCURVE",
"278 -2 CURVE SMOOTH",
"328 -2 OFFCURVE",
"378 16 OFFCURVE",
"418 46 CURVE",
"444 -35 OFFCURVE",
"534 -52 OFFCURVE",
"608 -52 CURVE SMOOTH",
"696 -52 OFFCURVE",
"824 1 OFFCURVE",
"824 105 CURVE SMOOTH"
);
},
{
closed = 1;
nodes = (
"664 341 OFFCURVE",
"673 332 OFFCURVE",
"673 318 CURVE SMOOTH",
"673 286 OFFCURVE",
"636 272 OFFCURVE",
"609 272 CURVE SMOOTH",
"584 272 OFFCURVE",
"561 281 OFFCURVE",
"546 302 CURVE",
"576 326 OFFCURVE",
"612 341 OFFCURVE",
"651 341 CURVE SMOOTH"
);
}
);
width = 829;
}
);
note = OE;
unicode = 0152;
},
{
glyphname = P;
lastChange = "2022-02-04 13:17:06 +0000";
layers = (
{
layerId = "5ED96FCC-ACEE-47D8-A1F6-56FBB5DDEA2A";
paths = (
{
closed = 1;
nodes = (
"636 569 OFFCURVE",
"522 631 OFFCURVE",
"405 631 CURVE SMOOTH",
"384 631 OFFCURVE",
"362 629 OFFCURVE",
"340 627 CURVE SMOOTH",
"231 619 OFFCURVE",
"167 584 OFFCURVE",
"118 525 CURVE SMOOTH",
"100 504 OFFCURVE",
"69 478 OFFCURVE",
"69 438 CURVE SMOOTH",
"69 367 OFFCURVE",
"113 307 OFFCURVE",
"175 307 CURVE SMOOTH",
"208 307 OFFCURVE",
"290 351 OFFCURVE",
"298 371 CURVE SMOOTH",
"303 383 OFFCURVE",
"305 391 OFFCURVE",
"305 396 CURVE SMOOTH",
"305 403 OFFCURVE",
"302 406 OFFCURVE",
"298 406 CURVE SMOOTH",
"293 406 OFFCURVE",
"286 401 OFFCURVE",
"282 395 CURVE SMOOTH",
"261 363 OFFCURVE",
"203 331 OFFCURVE",
"175 331 CURVE SMOOTH",
"125 331 OFFCURVE",
"120 360 OFFCURVE",
"120 418 CURVE SMOOTH",
"120 449 OFFCURVE",
"122 492 OFFCURVE",
"138 511 CURVE SMOOTH",
"182 565 OFFCURVE",
"216 577 OFFCURVE",
"318 585 CURVE SMOOTH",
"338 587 OFFCURVE",
"360 591 OFFCURVE",
"382 591 CURVE SMOOTH",
"483 591 OFFCURVE",
"598 558 OFFCURVE",
"598 456 CURVE SMOOTH",
"598 347 OFFCURVE",
"536 278 OFFCURVE",
"473 231 CURVE SMOOTH",
"452 215 OFFCURVE",
"432 198 OFFCURVE",
"398 198 CURVE SMOOTH",
"375 198 OFFCURVE",
"369 202 OFFCURVE",
"362 220 CURVE SMOOTH",
"357 231 OFFCURVE",
"351 223 OFFCURVE",
"351 212 CURVE SMOOTH",
"351 209 OFFCURVE",
"351 206 OFFCURVE",
"352 203 CURVE SMOOTH",
"362 173 OFFCURVE",
"360 173 OFFCURVE",
"398 173 CURVE SMOOTH",
"438 173 OFFCURVE",
"472 184 OFFCURVE",
"498 204 CURVE SMOOTH",
"565 257 OFFCURVE",
"636 335 OFFCURVE",
"636 453 CURVE SMOOTH"
);
},
{
closed = 1;
nodes = (
"395 551 OFFCURVE",
"364 529 OFFCURVE",
"347 478 CURVE SMOOTH",
"316 388 OFFCURVE",
"299 318 OFFCURVE",
"291 218 CURVE SMOOTH",
"280 78 OFFCURVE",
"244 -63 OFFCURVE",
"105 -63 CURVE SMOOTH",
"52 -63 OFFCURVE",
"22 11 OFFCURVE",
"22 69 CURVE SMOOTH",
"22 103 OFFCURVE",
"39 123 OFFCURVE",
"52 145 CURVE SMOOTH",
"79 193 OFFCURVE",
"118 245 OFFCURVE",
"185 245 CURVE SMOOTH",
"231 245 OFFCURVE",
"240 216 OFFCURVE",
"240 175 CURVE SMOOTH",
"240 120 OFFCURVE",
"209 91 OFFCURVE",
"153 91 CURVE SMOOTH",
"145 91 OFFCURVE",
"138 96 OFFCURVE",
"138 105 CURVE SMOOTH",
"138 112 OFFCURVE",
"145 111 OFFCURVE",
"149 112 CURVE SMOOTH",
"154 113 OFFCURVE",
"156 117 OFFCURVE",
"156 120 CURVE SMOOTH",
"156 127 OFFCURVE",
"150 134 OFFCURVE",
"143 134 CURVE SMOOTH",
"142 134 OFFCURVE",
"140 134 OFFCURVE",
"138 133 CURVE SMOOTH",
"127 127 OFFCURVE",
"115 124 OFFCURVE",
"115 105 CURVE SMOOTH",
"115 82 OFFCURVE",
"131 67 OFFCURVE",
"153 67 CURVE SMOOTH",
"223 67 OFFCURVE",
"264 105 OFFCURVE",
"264 175 CURVE SMOOTH",
"264 233 OFFCURVE",
"247 269 OFFCURVE",
"185 269 CURVE SMOOTH",
"108 269 OFFCURVE",
"62 212 OFFCURVE",
"29 158 CURVE",
"18 133 OFFCURVE",
"-3 108 OFFCURVE",
"-3 69 CURVE SMOOTH",
"-3 -2 OFFCURVE",
"56 -87 OFFCURVE",
"123 -87 CURVE SMOOTH",
"272 -87 OFFCURVE",
"327 72 OFFCURVE",
"338 222 CURVE SMOOTH",
"346 322 OFFCURVE",
"343 380 OFFCURVE",
"373 469 CURVE SMOOTH",
"387 510 OFFCURVE",
"400 534 OFFCURVE",
"444 545 CURVE SMOOTH",
"453 548 OFFCURVE",
"458 555 OFFCURVE",
"458 560 CURVE SMOOTH",
"458 563 OFFCURVE",
"457 565 OFFCURVE",
"453 565 CURVE SMOOTH",
"452 565 OFFCURVE",
"450 564 OFFCURVE",
"449 564 CURVE SMOOTH"
);
}
);
width = 576;
}
);
note = P;
unicode = 0050;
},
{
glyphname = Thorn;
lastChange = "2022-02-04 13:17:06 +0000";
layers = (
{
layerId = "5ED96FCC-ACEE-47D8-A1F6-56FBB5DDEA2A";
paths = (
{
closed = 1;
nodes = (
"517 500 OFFCURVE",
"422 543 OFFCURVE",
"351 543 CURVE SMOOTH",
"330 543 OFFCURVE",
"309 540 OFFCURVE",
"289 535 CURVE",
"314 631 OFFCURVE",
"331 678 OFFCURVE",
"345 692 CURVE",
"349 695 OFFCURVE",
"360 704 OFFCURVE",
"360 710 CURVE SMOOTH",
"360 713 OFFCURVE",
"357 713 OFFCURVE",
"354 713 CURVE SMOOTH",
"346 713 OFFCURVE",
"335 708 OFFCURVE",
"328 704 CURVE SMOOTH",
"295 685 OFFCURVE",
"253 553 OFFCURVE",
"240 519 CURVE",
"154 484 OFFCURVE",
"67 449 OFFCURVE",
"35 361 CURVE SMOOTH",
"32 353 OFFCURVE",
"32 337 OFFCURVE",
"32 320 CURVE SMOOTH",
"32 298 OFFCURVE",
"33 274 OFFCURVE",
"33 263 CURVE SMOOTH",
"33 232 OFFCURVE",
"69 229 OFFCURVE",
"93 229 CURVE SMOOTH",
"121 229 OFFCURVE",
"147 236 OFFCURVE",
"175 241 CURVE",
"159 193 OFFCURVE",
"156 145 OFFCURVE",
"156 96 CURVE SMOOTH",
"156 60 OFFCURVE",
"158 24 OFFCURVE",
"158 -12 CURVE SMOOTH",
"158 -32 OFFCURVE",
"159 -53 OFFCURVE",
"163 -72 CURVE SMOOTH",
"168 -91 OFFCURVE",
"194 -136 OFFCURVE",
"213 -136 CURVE SMOOTH",
"232 -136 OFFCURVE",
"242 -115 OFFCURVE",
"242 -100 CURVE SMOOTH",
"242 -92 OFFCURVE",
"239 -85 OFFCURVE",
"231 -85 CURVE",
"221 -54 OFFCURVE",
"199 -3 OFFCURVE",
"199 29 CURVE SMOOTH",
"199 105 OFFCURVE",
"204 184 OFFCURVE",
"217 258 CURVE",
"260 280 OFFCURVE",
"331 341 OFFCURVE",
"331 392 CURVE SMOOTH",
"331 398 OFFCURVE",
"327 425 OFFCURVE",
"319 425 CURVE SMOOTH",
"315 425 OFFCURVE",
"315 417 OFFCURVE",
"315 415 CURVE SMOOTH",
"315 413 OFFCURVE",
"316 410 OFFCURVE",
"316 407 CURVE SMOOTH",
"316 356 OFFCURVE",
"265 314 OFFCURVE",
"224 291 CURVE",
"237 366 OFFCURVE",
"258 441 OFFCURVE",
"281 513 CURVE",
"310 522 OFFCURVE",
"339 527 OFFCURVE",
"369 527 CURVE SMOOTH",
"428 527 OFFCURVE",
"478 503 OFFCURVE",
"478 436 CURVE SMOOTH",
"478 350 OFFCURVE",
"412 251 OFFCURVE",
"347 198 CURVE SMOOTH",
"318 175 OFFCURVE",
"281 145 OFFCURVE",
"242 145 CURVE SMOOTH",
"236 145 OFFCURVE",
"230 145 OFFCURVE",
"224 147 CURVE",
"224 150 LINE SMOOTH",
"224 171 OFFCURVE",
"251 172 OFFCURVE",
"251 186 CURVE SMOOTH",
"251 188 OFFCURVE",
"249 189 OFFCURVE",
"246 189 CURVE SMOOTH",
"230 189 OFFCURVE",
"208 168 OFFCURVE",
"208 151 CURVE SMOOTH",
"208 132 OFFCURVE",
"229 122 OFFCURVE",
"246 122 CURVE SMOOTH",
"296 122 OFFCURVE",
"362 174 OFFCURVE",
"413 190 CURVE SMOOTH",
"475 209 OFFCURVE",
"517 353 OFFCURVE",
"517 418 CURVE SMOOTH"
);
},
{
closed = 1;
nodes = (
"207 421 OFFCURVE",
"188 343 OFFCURVE",
"180 267 CURVE",
"165 256 OFFCURVE",
"116 245 OFFCURVE",
"97 245 CURVE SMOOTH",
"77 245 OFFCURVE",
"67 258 OFFCURVE",
"67 278 CURVE SMOOTH",
"67 300 OFFCURVE",
"77 326 OFFCURVE",
"87 345 CURVE SMOOTH",
"119 408 OFFCURVE",
"166 461 OFFCURVE",
"231 493 CURVE"
);
}
);
width = 588;
}
);
note = Thorn;
unicode = 00DE;
},
{
glyphname = Q;
lastChange = "2022-02-04 13:17:06 +0000";
layers = (
{
layerId = "5ED96FCC-ACEE-47D8-A1F6-56FBB5DDEA2A";
paths = (
{
closed = 1;
nodes = (
"647 -78 OFFCURVE",
"638 -64 OFFCURVE",
"612 -64 CURVE SMOOTH",
"608 -64 OFFCURVE",
"568 -58 OFFCURVE",
"564 -58 CURVE SMOOTH",
"557 -58 OFFCURVE",
"553 -64 OFFCURVE",
"553 -71 CURVE SMOOTH",
"553 -80 OFFCURVE",
"559 -91 OFFCURVE",
"569 -91 CURVE SMOOTH",
"612 -91 LINE SMOOTH",
"618 -91 OFFCURVE",
"620 -98 OFFCURVE",
"620 -104 CURVE SMOOTH",
"620 -123 OFFCURVE",
"615 -149 OFFCURVE",
"598 -149 CURVE SMOOTH",
"525 -149 OFFCURVE",
"463 -60 OFFCURVE",
"428 -16 CURVE",
"427 -14 OFFCURVE",
"425 -11 OFFCURVE",
"423 -9 CURVE",
"464 4 OFFCURVE",
"502 29 OFFCURVE",
"522 52 CURVE SMOOTH",
"561 96 OFFCURVE",
"601 138 OFFCURVE",
"627 198 CURVE SMOOTH",
"637 222 OFFCURVE",
"640 251 OFFCURVE",
"640 282 CURVE SMOOTH",
"640 309 OFFCURVE",
"638 337 OFFCURVE",
"638 365 CURVE SMOOTH",
"638 444 OFFCURVE",
"625 529 OFFCURVE",
"596 580 CURVE SMOOTH",
"583 603 OFFCURVE",
"562 627 OFFCURVE",
"545 647 CURVE SMOOTH",
"514 683 OFFCURVE",
"468 696 OFFCURVE",
"402 696 CURVE SMOOTH",
"350 696 OFFCURVE",
"268 643 OFFCURVE",
"258 606 CURVE",
"185 579 OFFCURVE",
"130 530 OFFCURVE",
"93 468 CURVE SMOOTH",
"62 416 OFFCURVE",
"25 365 OFFCURVE",
"25 280 CURVE SMOOTH",
"25 208 OFFCURVE",
"72 145 OFFCURVE",
"112 107 CURVE",
"101 92 OFFCURVE",
"95 75 OFFCURVE",
"95 56 CURVE SMOOTH",
"95 23 OFFCURVE",
"101 9 OFFCURVE",
"112 -11 CURVE SMOOTH",
"114 -16 OFFCURVE",
"119 -18 OFFCURVE",
"123 -18 CURVE SMOOTH",
"130 -18 OFFCURVE",
"137 -13 OFFCURVE",
"137 -6 CURVE SMOOTH",
"137 -4 OFFCURVE",
"137 -2 OFFCURVE",
"136 0 CURVE SMOOTH",
"128 18 OFFCURVE",
"122 28 OFFCURVE",
"122 56 CURVE SMOOTH",
"122 72 OFFCURVE",
"125 83 OFFCURVE",
"130 91 CURVE",
"186 43 OFFCURVE",
"271 -18 OFFCURVE",
"369 -18 CURVE SMOOTH",
"377 -18 OFFCURVE",
"386 -18 OFFCURVE",
"394 -16 CURVE",
"398 -21 OFFCURVE",
"402 -26 OFFCURVE",
"407 -32 CURVE SMOOTH",
"447 -82 OFFCURVE",
"518 -176 OFFCURVE",
"598 -176 CURVE SMOOTH",
"625 -176 OFFCURVE",
"647 -136 OFFCURVE",
"647 -104 CURVE SMOOTH"
);
},
{
closed = 1;
nodes = (
"612 308 OFFCURVE",
"604 255 OFFCURVE",
"587 213 CURVE SMOOTH",
"563 156 OFFCURVE",
"538 114 OFFCURVE",
"500 71 CURVE SMOOTH",
"482 50 OFFCURVE",
"446 30 OFFCURVE",
"409 21 CURVE",
"395 61 OFFCURVE",
"395 105 OFFCURVE",
"369 142 CURVE SMOOTH",
"357 158 OFFCURVE",
"298 176 OFFCURVE",
"265 176 CURVE SMOOTH",
"222 176 OFFCURVE",
"167 159 OFFCURVE",
"131 127 CURVE",
"96 163 OFFCURVE",
"63 216 OFFCURVE",
"63 280 CURVE SMOOTH",
"63 360 OFFCURVE",
"95 378 OFFCURVE",
"125 428 CURVE SMOOTH",
"178 516 OFFCURVE",
"262 578 OFFCURVE",
"396 578 CURVE SMOOTH",
"465 578 OFFCURVE",
"505 562 OFFCURVE",
"505 493 CURVE SMOOTH",
"505 392 OFFCURVE",
"480 355 OFFCURVE",
"383 355 CURVE SMOOTH",
"347 355 OFFCURVE",
"313 395 OFFCURVE",
"313 429 CURVE SMOOTH",
"313 463 OFFCURVE",
"338 504 OFFCURVE",
"369 504 CURVE SMOOTH",
"382 504 OFFCURVE",
"387 498 OFFCURVE",
"398 495 CURVE SMOOTH",
"407 493 OFFCURVE",
"414 499 OFFCURVE",
"414 506 CURVE SMOOTH",
"414 511 OFFCURVE",
"412 515 OFFCURVE",
"405 518 CURVE SMOOTH",
"392 524 OFFCURVE",
"384 531 OFFCURVE",
"369 531 CURVE SMOOTH",
"324 531 OFFCURVE",
"287 476 OFFCURVE",
"287 429 CURVE SMOOTH",
"287 382 OFFCURVE",
"333 328 OFFCURVE",
"383 328 CURVE SMOOTH",
"496 328 OFFCURVE",
"540 398 OFFCURVE",
"540 515 CURVE SMOOTH",
"540 598 OFFCURVE",
"482 629 OFFCURVE",
"396 629 CURVE SMOOTH",
"359 629 OFFCURVE",
"325 625 OFFCURVE",
"294 617 CURVE",
"318 644 OFFCURVE",
"376 675 OFFCURVE",
"409 675 CURVE SMOOTH",
"465 675 OFFCURVE",
"500 642 OFFCURVE",
"527 612 CURVE SMOOTH",
"542 595 OFFCURVE",
"545 574 OFFCURVE",
"558 553 CURVE SMOOTH",
"587 505 OFFCURVE",
"612 438 OFFCURVE",
"612 365 CURVE SMOOTH"
);
},
{
closed = 1;
nodes = (
"278 17 OFFCURVE",
"206 63 OFFCURVE",
"157 105 CURVE",
"173 107 OFFCURVE",
"195 104 OFFCURVE",
"220 104 CURVE SMOOTH",
"243 104 OFFCURVE",
"286 104 OFFCURVE",
"295 91 CURVE SMOOTH",
"317 62 OFFCURVE",
"339 39 OFFCURVE",
"363 16 CURVE"
);
}
);
width = 672;
}
);
note = Q;
unicode = 0051;
},
{
glyphname = R;
lastChange = "2022-02-04 13:17:06 +0000";
layers = (
{
layerId = "5ED96FCC-ACEE-47D8-A1F6-56FBB5DDEA2A";
paths = (
{
closed = 1;
nodes = (
"748 -23 OFFCURVE",
"738 2 OFFCURVE",
"738 5 CURVE SMOOTH",
"738 14 OFFCURVE",
"732 19 OFFCURVE",
"725 19 CURVE SMOOTH",
"719 19 OFFCURVE",
"712 14 OFFCURVE",
"712 5 CURVE SMOOTH",
"712 3 OFFCURVE",
"716 -13 OFFCURVE",
"716 -21 CURVE SMOOTH",
"716 -23 OFFCURVE",
"716 -24 OFFCURVE",
"715 -25 CURVE",
"711 -32 OFFCURVE",
"704 -34 OFFCURVE",
"694 -34 CURVE SMOOTH",
"684 -34 OFFCURVE",
"671 -32 OFFCURVE",
"656 -32 CURVE SMOOTH",
"587 -32 OFFCURVE",
"529 88 OFFCURVE",
"516 118 CURVE SMOOTH",
"514 123 OFFCURVE",
"511 128 OFFCURVE",
"508 133 CURVE",
"574 151 OFFCURVE",
"633 193 OFFCURVE",
"671 228 CURVE SMOOTH",
"705 260 OFFCURVE",
"722 311 OFFCURVE",
"731 348 CURVE",
"736 431 OFFCURVE",
"716 527 OFFCURVE",
"691 547 CURVE SMOOTH",
"587 631 OFFCURVE",
"580 614 OFFCURVE",
"395 638 CURVE SMOOTH",
"364 642 OFFCURVE",
"340 644 OFFCURVE",
"322 644 CURVE SMOOTH",
"278 644 OFFCURVE",
"257 634 OFFCURVE",
"209 618 CURVE SMOOTH",
"118 588 OFFCURVE",
"68 548 OFFCURVE",
"4 476 CURVE SMOOTH",
"-15 454 OFFCURVE",
"-45 423 OFFCURVE",
"-45 384 CURVE SMOOTH",
"-45 307 OFFCURVE",
"35 230 OFFCURVE",
"112 230 CURVE SMOOTH",
"132 230 OFFCURVE",
"151 234 OFFCURVE",
"168 245 CURVE",
"207 280 OFFCURVE",
"235 300 OFFCURVE",
"235 349 CURVE SMOOTH",
"235 389 OFFCURVE",
"209 427 OFFCURVE",
"168 427 CURVE SMOOTH",
"131 427 OFFCURVE",
"104 402 OFFCURVE",
"104 365 CURVE SMOOTH",
"104 360 OFFCURVE",
"109 338 OFFCURVE",
"109 333 CURVE SMOOTH",
"109 325 OFFCURVE",
"116 320 OFFCURVE",
"123 320 CURVE SMOOTH",
"129 320 OFFCURVE",
"136 325 OFFCURVE",
"136 333 CURVE SMOOTH",
"136 338 OFFCURVE",
"131 360 OFFCURVE",
"131 365 CURVE SMOOTH",
"131 385 OFFCURVE",
"147 400 OFFCURVE",
"168 400 CURVE SMOOTH",
"191 400 OFFCURVE",
"200 387 OFFCURVE",
"200 365 CURVE SMOOTH",
"200 324 OFFCURVE",
"198 293 OFFCURVE",
"165 264 CURVE",
"148 253 OFFCURVE",
"130 249 OFFCURVE",
"112 249 CURVE SMOOTH",
"56 249 OFFCURVE",
"5 296 OFFCURVE",
"5 355 CURVE SMOOTH",
"5 385 OFFCURVE",
"32 444 OFFCURVE",
"47 460 CURVE SMOOTH",
"107 526 OFFCURVE",
"123 561 OFFCURVE",
"192 592 CURVE SMOOTH",
"236 612 OFFCURVE",
"281 619 OFFCURVE",
"322 619 CURVE SMOOTH",
"348 619 OFFCURVE",
"373 616 OFFCURVE",
"395 611 CURVE SMOOTH",
"565 571 OFFCURVE",
"556 571 OFFCURVE",
"653 493 CURVE SMOOTH",
"674 476 OFFCURVE",
"709 422 OFFCURVE",
"704 352 CURVE",
"698 320 OFFCURVE",
"683 276 OFFCURVE",
"652 248 CURVE SMOOTH",
"615 216 OFFCURVE",
"556 172 OFFCURVE",
"491 156 CURVE",
"468 184 OFFCURVE",
"438 206 OFFCURVE",
"414 225 CURVE",
"420 275 OFFCURVE",
"426 327 OFFCURVE",
"438 375 CURVE SMOOTH",
"447 408 OFFCURVE",
"470 488 OFFCURVE",
"508 488 CURVE SMOOTH",
"513 488 OFFCURVE",
"518 486 OFFCURVE",
"524 483 CURVE SMOOTH",
"533 478 OFFCURVE",
"539 483 OFFCURVE",
"539 490 CURVE SMOOTH",
"539 494 OFFCURVE",
"537 499 OFFCURVE",
"532 502 CURVE SMOOTH",
"523 508 OFFCURVE",
"514 511 OFFCURVE",
"505 511 CURVE SMOOTH",
"456 511 OFFCURVE",
"415 429 OFFCURVE",
"403 388 CURVE SMOOTH",
"390 343 OFFCURVE",
"385 291 OFFCURVE",
"380 242 CURVE",
"372 244 OFFCURVE",
"363 245 OFFCURVE",
"355 245 CURVE SMOOTH",
"324 245 OFFCURVE",
"312 249 OFFCURVE",
"312 218 CURVE SMOOTH",
"312 188 OFFCURVE",
"335 161 OFFCURVE",
"366 144 CURVE",
"356 111 OFFCURVE",
"342 110 OFFCURVE",
"336 78 CURVE SMOOTH",
"321 -4 OFFCURVE",
"273 -85 OFFCURVE",
"182 -85 CURVE SMOOTH",
"113 -85 OFFCURVE",
"51 -38 OFFCURVE",
"51 29 CURVE SMOOTH",
"51 103 OFFCURVE",
"112 149 OFFCURVE",
"184 149 CURVE SMOOTH",
"222 149 OFFCURVE",
"245 145 OFFCURVE",
"245 102 CURVE SMOOTH",
"245 64 OFFCURVE",
"228 38 OFFCURVE",
"192 38 CURVE SMOOTH",
"187 38 OFFCURVE",
"186 42 OFFCURVE",
"186 47 CURVE SMOOTH",
"186 52 OFFCURVE",
"187 59 OFFCURVE",
"187 64 CURVE SMOOTH",
"187 75 OFFCURVE",
"189 76 OFFCURVE",
"195 78 CURVE SMOOTH",
"201 81 OFFCURVE",
"203 86 OFFCURVE",
"203 90 CURVE SMOOTH",
"203 98 OFFCURVE",
"198 105 OFFCURVE",
"190 105 CURVE SMOOTH",
"188 105 OFFCURVE",
"186 104 OFFCURVE",
"184 103 CURVE SMOOTH",
"169 95 OFFCURVE",
"147 88 OFFCURVE",
"147 62 CURVE SMOOTH",
"147 38 OFFCURVE",
"168 11 OFFCURVE",
"192 11 CURVE SMOOTH",
"242 11 OFFCURVE",
"280 58 OFFCURVE",
"280 109 CURVE SMOOTH",
"280 169 OFFCURVE",
"229 192 OFFCURVE",
"176 192 CURVE SMOOTH",
"91 192 OFFCURVE",
"24 118 OFFCURVE",
"24 29 CURVE SMOOTH",
"24 -51 OFFCURVE",
"98 -112 OFFCURVE",
"182 -112 CURVE SMOOTH",
"287 -112 OFFCURVE",
"348 -52 OFFCURVE",
"365 40 CURVE SMOOTH",
"371 70 OFFCURVE",
"387 96 OFFCURVE",
"397 130 CURVE",
"412 125 OFFCURVE",
"426 123 OFFCURVE",
"440 123 CURVE SMOOTH",
"454 123 OFFCURVE",
"467 124 OFFCURVE",
"480 126 CURVE",
"485 120 OFFCURVE",
"489 113 OFFCURVE",
"492 107 CURVE SMOOTH",
"508 71 OFFCURVE",
"576 -43 OFFCURVE",
"656 -58 CURVE SMOOTH",
"666 -60 OFFCURVE",
"677 -61 OFFCURVE",
"689 -61 CURVE SMOOTH",
"714 -61 OFFCURVE",
"738 -54 OFFCURVE",
"745 -27 CURVE"
);
},
{
closed = 1;
nodes = (
"454 150 OFFCURVE",
"447 149 OFFCURVE",
"440 149 CURVE SMOOTH",
"429 149 OFFCURVE",
"416 151 OFFCURVE",
"404 155 CURVE",
"406 168 OFFCURVE",
"408 180 OFFCURVE",
"410 194 CURVE",
"426 181 OFFCURVE",
"445 167 OFFCURVE",
"460 150 CURVE"
);
},
{
closed = 1;
nodes = (
"376 200 OFFCURVE",
"374 184 OFFCURVE",
"371 170 CURVE",
"352 182 OFFCURVE",
"338 199 OFFCURVE",
"338 218 CURVE SMOOTH",
"338 228 OFFCURVE",
"345 218 OFFCURVE",
"355 218 CURVE SMOOTH",
"362 218 OFFCURVE",
"371 217 OFFCURVE",
"378 215 CURVE"
);
}
);
width = 736;
}
);
note = R;
unicode = 0052;
},
{
glyphname = S;
lastChange = "2022-02-04 13:17:06 +0000";
layers = (
{
layerId = "5ED96FCC-ACEE-47D8-A1F6-56FBB5DDEA2A";
paths = (
{
closed = 1;
nodes = (
"384 510 OFFCURVE",
"388 525 OFFCURVE",
"388 540 CURVE SMOOTH",
"388 564 OFFCURVE",
"376 584 OFFCURVE",
"338 598 CURVE SMOOTH",
"315 606 OFFCURVE",
"291 611 OFFCURVE",
"267 611 CURVE SMOOTH",
"209 611 OFFCURVE",
"154 581 OFFCURVE",
"127 507 CURVE SMOOTH",
"119 485 OFFCURVE",
"116 466 OFFCURVE",
"116 450 CURVE SMOOTH",
"116 318 OFFCURVE",
"346 345 OFFCURVE",
"346 192 CURVE SMOOTH",
"346 169 OFFCURVE",
"341 143 OFFCURVE",
"329 111 CURVE SMOOTH",
"281 -23 OFFCURVE",
"128 -65 OFFCURVE",
"76 -65 CURVE SMOOTH",
"70 -65 OFFCURVE",
"65 -64 OFFCURVE",
"62 -63 CURVE SMOOTH",
"24 -49 OFFCURVE",
"6 -23 OFFCURVE",
"6 11 CURVE SMOOTH",
"6 25 OFFCURVE",
"9 41 OFFCURVE",
"15 58 CURVE SMOOTH",
"23 80 OFFCURVE",
"93 144 OFFCURVE",
"126 144 CURVE SMOOTH",
"135 144 OFFCURVE",
"142 139 OFFCURVE",
"143 127 CURVE SMOOTH",
"144 120 OFFCURVE",
"144 113 OFFCURVE",
"144 107 CURVE SMOOTH",
"144 84 OFFCURVE",
"139 63 OFFCURVE",
"118 58 CURVE SMOOTH",
"99 53 OFFCURVE",
"88 87 OFFCURVE",
"72 75 CURVE SMOOTH",
"63 69 OFFCURVE",
"56 59 OFFCURVE",
"56 48 CURVE SMOOTH",
"56 45 OFFCURVE",
"57 43 OFFCURVE",
"58 40 CURVE SMOOTH",
"64 29 OFFCURVE",
"78 29 OFFCURVE",
"93 29 CURVE SMOOTH",
"122 29 OFFCURVE",
"139 46 OFFCURVE",
"149 72 CURVE SMOOTH",
"154 87 OFFCURVE",
"157 100 OFFCURVE",
"157 113 CURVE SMOOTH",
"157 134 OFFCURVE",
"149 150 OFFCURVE",
"138 153 CURVE",
"132 155 OFFCURVE",
"126 156 OFFCURVE",
"119 156 CURVE SMOOTH",
"72 156 OFFCURVE",
"6 104 OFFCURVE",
"-8 65 CURVE SMOOTH",
"-14 48 OFFCURVE",
"-22 24 OFFCURVE",
"-22 -1 CURVE SMOOTH",
"-22 -38 OFFCURVE",
"-4 -78 OFFCURVE",
"62 -102 CURVE SMOOTH",
"84 -110 OFFCURVE",
"106 -114 OFFCURVE",
"128 -114 CURVE SMOOTH",
"224 -114 OFFCURVE",
"313 -41 OFFCURVE",
"347 51 CURVE SMOOTH",
"366 101 OFFCURVE",
"373 142 OFFCURVE",
"373 176 CURVE SMOOTH",
"373 352 OFFCURVE",
"167 340 OFFCURVE",
"167 456 CURVE SMOOTH",
"167 469 OFFCURVE",
"169 485 OFFCURVE",
"176 503 CURVE SMOOTH",
"193 552 OFFCURVE",
"247 582 OFFCURVE",
"295 582 CURVE SMOOTH",
"307 582 OFFCURVE",
"320 579 OFFCURVE",
"331 575 CURVE SMOOTH",
"356 565 OFFCURVE",
"374 541 OFFCURVE",
"374 521 CURVE SMOOTH",
"374 516 OFFCURVE",
"373 511 OFFCURVE",
"371 507 CURVE",
"358 467 OFFCURVE",
"331 444 OFFCURVE",
"311 444 CURVE SMOOTH",
"302 444 OFFCURVE",
"293 450 OFFCURVE",
"289 462 CURVE SMOOTH",
"282 482 OFFCURVE",
"314 495 OFFCURVE",
"314 510 CURVE SMOOTH",
"314 512 OFFCURVE",
"313 515 OFFCURVE",
"311 518 CURVE SMOOTH",
"304 527 OFFCURVE",
"296 530 OFFCURVE",
"286 530 CURVE SMOOTH",
"284 530 OFFCURVE",
"281 529 OFFCURVE",
"278 529 CURVE SMOOTH",
"257 527 OFFCURVE",
"245 507 OFFCURVE",
"245 486 CURVE SMOOTH",
"245 478 OFFCURVE",
"247 469 OFFCURVE",
"251 462 CURVE SMOOTH",
"261 441 OFFCURVE",
"280 433 OFFCURVE",
"301 433 CURVE SMOOTH",
"346 433 OFFCURVE",
"366 459 OFFCURVE",
"378 493 CURVE SMOOTH"
);
}
);
width = 407;
}
);
note = S;
unicode = 0053;
},
{
color = 3;
glyphname = Germandbls;
lastChange = "2022-02-04 13:17:06 +0000";
layers = (
{
layerId = "5ED96FCC-ACEE-47D8-A1F6-56FBB5DDEA2A";
paths = (
{
closed = 1;
nodes = (
"396 240 OFFCURVE",
"418 198 OFFCURVE",
"418 152 CURVE SMOOTH",
"418 147 OFFCURVE",
"418 141 OFFCURVE",
"417 135 CURVE SMOOTH",
"406 24 OFFCURVE",
"310 -64 OFFCURVE",
"199 -64 CURVE SMOOTH",
"184 -64 OFFCURVE",
"170 -61 OFFCURVE",
"156 -61 CURVE SMOOTH",
"147 -61 OFFCURVE",
"137 -67 OFFCURVE",
"137 -76 CURVE SMOOTH",
"137 -89 OFFCURVE",
"150 -96 OFFCURVE",
"162 -96 CURVE SMOOTH",
"290 -96 OFFCURVE",
"448 -3 OFFCURVE",
"463 138 CURVE SMOOTH",
"472 224 OFFCURVE",
"417 275 OFFCURVE",
"333 275 CURVE SMOOTH",
"327 275 OFFCURVE",
"320 275 OFFCURVE",
"314 275 CURVE",
"385 325 OFFCURVE",
"512 405 OFFCURVE",
"521 493 CURVE SMOOTH",
"528 564 OFFCURVE",
"438 615 OFFCURVE",
"367 615 CURVE SMOOTH",
"268 615 OFFCURVE",
"158 525 OFFCURVE",
"104 447 CURVE SMOOTH",
"49 367 OFFCURVE",
"48 266 OFFCURVE",
"39 175 CURVE SMOOTH",
"33 126 OFFCURVE",
"32 78 OFFCURVE",
"32 29 CURVE SMOOTH",
"32 0 OFFCURVE",
"32 -28 OFFCURVE",
"33 -57 CURVE SMOOTH",
"34 -63 OFFCURVE",
"34 -69 OFFCURVE",
"33 -75 CURVE SMOOTH",
"27 -139 OFFCURVE",
"-28 -145 OFFCURVE",
"-30 -163 CURVE SMOOTH",
"-31 -170 OFFCURVE",
"-27 -181 OFFCURVE",
"-19 -181 CURVE SMOOTH",
"-18 -181 OFFCURVE",
"-17 -181 OFFCURVE",
"-17 -181 CURVE",
"35 -166 OFFCURVE",
"63 -122 OFFCURVE",
"69 -71 CURVE SMOOTH",
"69 -66 OFFCURVE",
"70 -60 OFFCURVE",
"70 -55 CURVE SMOOTH",
"70 -39 OFFCURVE",
"70 -24 OFFCURVE",
"70 -8 CURVE SMOOTH",
"70 55 OFFCURVE",
"71 118 OFFCURVE",
"77 181 CURVE SMOOTH",
"86 265 OFFCURVE",
"105 362 OFFCURVE",
"159 435 CURVE SMOOTH",
"207 501 OFFCURVE",
"287 580 OFFCURVE",
"372 580 CURVE SMOOTH",
"418 580 OFFCURVE",
"453 553 OFFCURVE",
"453 507 CURVE SMOOTH",
"453 429 OFFCURVE",
"365 355 OFFCURVE",
"303 314 CURVE SMOOTH",
"282 300 OFFCURVE",
"261 289 OFFCURVE",
"238 276 CURVE SMOOTH",
"224 268 OFFCURVE",
"212 248 OFFCURVE",
"212 233 CURVE SMOOTH",
"212 227 OFFCURVE",
"215 223 OFFCURVE",
"222 223 CURVE SMOOTH",
"231 223 OFFCURVE",
"236 228 OFFCURVE",
"244 231 CURVE SMOOTH",
"268 239 OFFCURVE",
"318 240 OFFCURVE",
"343 240 CURVE SMOOTH"
);
}
);
width = 498;
}
);
unicode = 1E9E;
},
{
glyphname = Schwa;
lastChange = "2022-02-04 13:17:06 +0000";
layers = (
{
layerId = "5ED96FCC-ACEE-47D8-A1F6-56FBB5DDEA2A";
paths = (
{
closed = 1;
nodes = (
"94 549 OFFCURVE",
"89 540 OFFCURVE",
"89 532 CURVE SMOOTH",
"89 526 OFFCURVE",
"93 522 OFFCURVE",
"99 522 CURVE SMOOTH",
"104 522 OFFCURVE",
"112 526 OFFCURVE",
"121 534 CURVE SMOOTH",
"143 554 OFFCURVE",
"204 586 OFFCURVE",
"235 594 CURVE SMOOTH",
"262 602 OFFCURVE",
"289 606 OFFCURVE",
"322 606 CURVE SMOOTH",
"331 606 OFFCURVE",
"341 606 OFFCURVE",
"351 605 CURVE SMOOTH",
"417 601 OFFCURVE",
"455 552 OFFCURVE",
"494 515 CURVE SMOOTH",
"528 482 OFFCURVE",
"540 445 OFFCURVE",
"540 390 CURVE SMOOTH",
"540 365 OFFCURVE",
"537 337 OFFCURVE",
"533 304 CURVE SMOOTH",
"527 261 OFFCURVE",
"507 197 OFFCURVE",
"492 169 CURVE SMOOTH",
"461 113 OFFCURVE",
"425 56 OFFCURVE",
"368 24 CURVE SMOOTH",
"337 7 OFFCURVE",
"298 -18 OFFCURVE",
"235 -18 CURVE SMOOTH",
"222 -18 OFFCURVE",
"208 -17 OFFCURVE",
"193 -15 CURVE SMOOTH",
"140 -5 OFFCURVE",
"114 12 OFFCURVE",
"95 49 CURVE SMOOTH",
"89 60 OFFCURVE",
"85 76 OFFCURVE",
"85 95 CURVE SMOOTH",
"85 112 OFFCURVE",
"88 131 OFFCURVE",
"97 149 CURVE SMOOTH",
"123 205 OFFCURVE",
"212 277 OFFCURVE",
"320 300 CURVE SMOOTH",
"371 298 OFFCURVE",
"393 298 OFFCURVE",
"438 283 CURVE SMOOTH",
"476 268 OFFCURVE",
"493 240 OFFCURVE",
"498 231 CURVE SMOOTH",
"507 220 OFFCURVE",
"520 214 OFFCURVE",
"530 214 CURVE SMOOTH",
"539 214 OFFCURVE",
"545 218 OFFCURVE",
"545 226 CURVE SMOOTH",
"545 230 OFFCURVE",
"543 236 OFFCURVE",
"538 243 CURVE SMOOTH",
"529 254 OFFCURVE",
"507 299 OFFCURVE",
"458 314 CURVE SMOOTH",
"412 330 OFFCURVE",
"400 334 OFFCURVE",
"363 334 CURVE SMOOTH",
"354 334 OFFCURVE",
"342 333 OFFCURVE",
"328 333 CURVE SMOOTH",
"129 325 OFFCURVE",
"101 232 OFFCURVE",
"70 162 CURVE SMOOTH",
"60 139 OFFCURVE",
"56 116 OFFCURVE",
"56 94 CURVE SMOOTH",
"56 68 OFFCURVE",
"61 45 OFFCURVE",
"70 29 CURVE SMOOTH",
"92 -13 OFFCURVE",
"138 -59 OFFCURVE",
"202 -69 CURVE SMOOTH",
"221 -72 OFFCURVE",
"238 -74 OFFCURVE",
"253 -74 CURVE SMOOTH",
"319 -74 OFFCURVE",
"361 -48 OFFCURVE",
"393 -29 CURVE SMOOTH",
"455 7 OFFCURVE",
"497 70 OFFCURVE",
"529 130 CURVE SMOOTH",
"546 162 OFFCURVE",
"570 231 OFFCURVE",
"575 279 CURVE SMOOTH",
"578 303 OFFCURVE",
"580 327 OFFCURVE",
"580 349 CURVE SMOOTH",
"580 431 OFFCURVE",
"557 497 OFFCURVE",
"515 540 CURVE SMOOTH",
"475 579 OFFCURVE",
"430 633 OFFCURVE",
"355 637 CURVE SMOOTH",
"303 640 OFFCURVE",
"268 635 OFFCURVE",
"230 625 CURVE SMOOTH",
"197 617 OFFCURVE",
"128 581 OFFCURVE",
"104 559 CURVE SMOOTH"
);
}
);
width = 592;
}
);
unicode = 018F;
},
{
glyphname = T;
lastChange = "2022-02-04 13:17:06 +0000";
layers = (
{
layerId = "5ED96FCC-ACEE-47D8-A1F6-56FBB5DDEA2A";
paths = (
{
closed = 1;
nodes = (
"792 599 OFFCURVE",
"785 611 OFFCURVE",
"778 611 CURVE SMOOTH",
"773 611 OFFCURVE",
"768 604 OFFCURVE",
"767 585 CURVE",
"751 540 OFFCURVE",
"711 518 OFFCURVE",
"647 518 CURVE SMOOTH",
"578 518 OFFCURVE",
"514 538 OFFCURVE",
"453 562 CURVE",
"455 564 OFFCURVE",
"456 566 OFFCURVE",
"458 568 CURVE SMOOTH",
"468 579 OFFCURVE",
"472 587 OFFCURVE",
"472 592 CURVE SMOOTH",
"472 595 OFFCURVE",
"470 597 OFFCURVE",
"467 597 CURVE SMOOTH",
"461 597 OFFCURVE",
"452 592 OFFCURVE",
"445 582 CURVE SMOOTH",
"442 577 OFFCURVE",
"439 573 OFFCURVE",
"436 569 CURVE",
"389 588 OFFCURVE",
"345 609 OFFCURVE",
"303 622 CURVE SMOOTH",
"272 632 OFFCURVE",
"176 664 OFFCURVE",
"133 664 CURVE SMOOTH",
"92 664 OFFCURVE",
"46 625 OFFCURVE",
"43 585 CURVE SMOOTH",
"35 453 OFFCURVE",
"118 425 OFFCURVE",
"163 425 CURVE SMOOTH",
"193 425 OFFCURVE",
"209 442 OFFCURVE",
"223 458 CURVE",
"224 463 OFFCURVE",
"225 467 OFFCURVE",
"225 471 CURVE SMOOTH",
"225 481 OFFCURVE",
"220 485 OFFCURVE",
"215 485 CURVE SMOOTH",
"209 485 OFFCURVE",
"202 480 OFFCURVE",
"200 475 CURVE",
"192 465 OFFCURVE",
"182 454 OFFCURVE",
"163 455 CURVE SMOOTH",
"95 458 OFFCURVE",
"87 504 OFFCURVE",
"87 542 CURVE SMOOTH",
"87 553 OFFCURVE",
"88 564 OFFCURVE",
"88 572 CURVE SMOOTH",
"88 600 OFFCURVE",
"124 604 OFFCURVE",
"153 604 CURVE SMOOTH",
"193 604 OFFCURVE",
"205 593 OFFCURVE",
"233 584 CURVE SMOOTH",
"283 569 OFFCURVE",
"347 548 OFFCURVE",
"415 530 CURVE",
"394 485 OFFCURVE",
"383 433 OFFCURVE",
"372 368 CURVE SMOOTH",
"352 245 OFFCURVE",
"308 148 OFFCURVE",
"227 65 CURVE SMOOTH",
"196 33 OFFCURVE",
"171 -7 OFFCURVE",
"109 -7 CURVE SMOOTH",
"61 -7 OFFCURVE",
"54 18 OFFCURVE",
"54 54 CURVE SMOOTH",
"54 69 OFFCURVE",
"55 87 OFFCURVE",
"55 105 CURVE SMOOTH",
"55 118 OFFCURVE",
"71 160 OFFCURVE",
"75 172 CURVE SMOOTH",
"89 208 OFFCURVE",
"135 303 OFFCURVE",
"180 303 CURVE SMOOTH",
"188 303 OFFCURVE",
"196 269 OFFCURVE",
"196 260 CURVE SMOOTH",
"196 207 OFFCURVE",
"189 224 OFFCURVE",
"153 209 CURVE SMOOTH",
"140 204 OFFCURVE",
"135 198 OFFCURVE",
"135 193 CURVE SMOOTH",
"135 187 OFFCURVE",
"145 182 OFFCURVE",
"163 182 CURVE SMOOTH",
"168 182 OFFCURVE",
"173 182 OFFCURVE",
"178 183 CURVE",
"218 208 OFFCURVE",
"225 256 OFFCURVE",
"225 264 CURVE SMOOTH",
"225 285 OFFCURVE",
"196 332 OFFCURVE",
"180 332 CURVE SMOOTH",
"127 332 OFFCURVE",
"42 231 OFFCURVE",
"24 188 CURVE",
"16 173 OFFCURVE",
"4 112 OFFCURVE",
"4 98 CURVE SMOOTH",
"4 16 OFFCURVE",
"18 -36 OFFCURVE",
"109 -36 CURVE SMOOTH",
"178 -36 OFFCURVE",
"205 -5 OFFCURVE",
"247 20 CURVE SMOOTH",
"343 78 OFFCURVE",
"379 231 OFFCURVE",
"402 363 CURVE SMOOTH",
"413 426 OFFCURVE",
"416 479 OFFCURVE",
"434 525 CURVE",
"503 508 OFFCURVE",
"574 495 OFFCURVE",
"638 495 CURVE SMOOTH",
"718 495 OFFCURVE",
"773 527 OFFCURVE",
"792 584 CURVE"
);
}
);
width = 448;
}
);
note = T;
unicode = 0054;
},
{
glyphname = U;
lastChange = "2022-02-04 13:17:06 +0000";
layers = (
{
layerId = "5ED96FCC-ACEE-47D8-A1F6-56FBB5DDEA2A";
paths = (
{
closed = 1;
nodes = (
"742 416 OFFCURVE",
"735 495 OFFCURVE",
"712 495 CURVE SMOOTH",
"678 495 OFFCURVE",
"631 403 OFFCURVE",
"620 382 CURVE SMOOTH",
"588 319 OFFCURVE",
"569 205 OFFCURVE",
"569 118 CURVE SMOOTH",
"569 110 OFFCURVE",
"570 103 OFFCURVE",
"571 95 CURVE",
"549 62 OFFCURVE",
"529 33 OFFCURVE",
"491 8 CURVE SMOOTH",
"480 1 OFFCURVE",
"428 -28 OFFCURVE",
"413 -28 CURVE SMOOTH",
"394 -28 OFFCURVE",
"389 -15 OFFCURVE",
"389 3 CURVE SMOOTH",
"389 23 OFFCURVE",
"395 49 OFFCURVE",
"395 69 CURVE SMOOTH",
"395 238 OFFCURVE",
"518 335 OFFCURVE",
"518 504 CURVE SMOOTH",
"518 603 OFFCURVE",
"451 652 OFFCURVE",
"355 652 CURVE SMOOTH",
"285 652 OFFCURVE",
"247 630 OFFCURVE",
"205 605 CURVE SMOOTH",
"149 571 OFFCURVE",
"96 535 OFFCURVE",
"62 483 CURVE SMOOTH",
"29 433 OFFCURVE",
"9 385 OFFCURVE",
"9 338 CURVE SMOOTH",
"9 275 OFFCURVE",
"46 216 OFFCURVE",
"138 158 CURVE SMOOTH",
"160 144 OFFCURVE",
"197 136 OFFCURVE",
"230 136 CURVE SMOOTH",
"261 136 OFFCURVE",
"290 143 OFFCURVE",
"302 156 CURVE SMOOTH",
"345 204 OFFCURVE",
"391 236 OFFCURVE",
"387 328 CURVE SMOOTH",
"382 438 OFFCURVE",
"352 457 OFFCURVE",
"280 468 CURVE SMOOTH",
"272 469 OFFCURVE",
"265 470 OFFCURVE",
"258 470 CURVE SMOOTH",
"163 470 OFFCURVE",
"127 374 OFFCURVE",
"127 320 CURVE SMOOTH",
"127 264 OFFCURVE",
"178 232 OFFCURVE",
"235 232 CURVE SMOOTH",
"278 232 OFFCURVE",
"307 248 OFFCURVE",
"307 288 CURVE SMOOTH",
"307 338 OFFCURVE",
"300 356 OFFCURVE",
"249 362 CURVE SMOOTH",
"243 363 OFFCURVE",
"239 357 OFFCURVE",
"239 352 CURVE SMOOTH",
"239 348 OFFCURVE",
"242 344 OFFCURVE",
"247 343 CURVE SMOOTH",
"284 338 OFFCURVE",
"276 322 OFFCURVE",
"278 304 CURVE SMOOTH",
"282 277 OFFCURVE",
"256 271 OFFCURVE",
"227 271 CURVE SMOOTH",
"180 271 OFFCURVE",
"149 285 OFFCURVE",
"149 331 CURVE SMOOTH",
"149 382 OFFCURVE",
"223 438 OFFCURVE",
"272 438 CURVE SMOOTH",
"333 438 OFFCURVE",
"353 375 OFFCURVE",
"353 318 CURVE SMOOTH",
"353 233 OFFCURVE",
"331 220 OFFCURVE",
"291 175 CURVE SMOOTH",
"281 163 OFFCURVE",
"253 157 OFFCURVE",
"223 157 CURVE SMOOTH",
"195 157 OFFCURVE",
"166 162 OFFCURVE",
"149 173 CURVE SMOOTH",
"73 220 OFFCURVE",
"49 289 OFFCURVE",
"49 349 CURVE SMOOTH",
"49 405 OFFCURVE",
"71 455 OFFCURVE",
"91 472 CURVE SMOOTH",
"131 505 OFFCURVE",
"157 545 OFFCURVE",
"211 578 CURVE SMOOTH",
"249 602 OFFCURVE",
"291 624 OFFCURVE",
"355 624 CURVE SMOOTH",
"438 624 OFFCURVE",
"458 565 OFFCURVE",
"458 480 CURVE SMOOTH",
"458 311 OFFCURVE",
"351 228 OFFCURVE",
"351 58 CURVE SMOOTH",
"351 9 OFFCURVE",
"363 -48 OFFCURVE",
"413 -48 CURVE SMOOTH",
"431 -48 OFFCURVE",
"475 -28 OFFCURVE",
"488 -18 CURVE",
"524 4 OFFCURVE",
"552 36 OFFCURVE",
"576 70 CURVE",
"593 6 OFFCURVE",
"641 -54 OFFCURVE",
"700 -58 CURVE SMOOTH",
"708 -59 OFFCURVE",
"731 -50 OFFCURVE",
"731 -44 CURVE SMOOTH",
"731 -41 OFFCURVE",
"724 -38 OFFCURVE",
"703 -38 CURVE SMOOTH",
"644 -38 OFFCURVE",
"603 38 OFFCURVE",
"598 103 CURVE",
"611 123 LINE SMOOTH",
"651 184 OFFCURVE",
"742 307 OFFCURVE",
"742 398 CURVE SMOOTH"
);
},
{
closed = 1;
nodes = (
"700 293 OFFCURVE",
"637 196 OFFCURVE",
"598 138 CURVE",
"601 220 OFFCURVE",
"623 323 OFFCURVE",
"652 380 CURVE SMOOTH",
"662 399 OFFCURVE",
"660 422 OFFCURVE",
"688 422 CURVE SMOOTH",
"699 422 OFFCURVE",
"701 411 OFFCURVE",
"701 398 CURVE SMOOTH",
"701 391 OFFCURVE",
"700 384 OFFCURVE",
"700 378 CURVE SMOOTH"
);
}
);
width = 723;
}
);
note = U;
unicode = 0055;
},
{
glyphname = V;
lastChange = "2022-02-04 13:17:06 +0000";
layers = (
{
layerId = "5ED96FCC-ACEE-47D8-A1F6-56FBB5DDEA2A";
paths = (
{
closed = 1;
nodes = (
"762 602 OFFCURVE",
"763 616 OFFCURVE",
"738 616 CURVE SMOOTH",
"684 616 OFFCURVE",
"629 559 OFFCURVE",
"603 529 CURVE SMOOTH",
"554 474 OFFCURVE",
"538 437 OFFCURVE",
"512 403 CURVE SMOOTH",
"486 369 OFFCURVE",
"463 319 OFFCURVE",
"444 264 CURVE",
"428 314 OFFCURVE",
"410 360 OFFCURVE",
"398 392 CURVE SMOOTH",
"378 445 OFFCURVE",
"385 446 OFFCURVE",
"352 491 CURVE SMOOTH",
"324 528 OFFCURVE",
"283 616 OFFCURVE",
"222 616 CURVE SMOOTH",
"105 616 OFFCURVE",
"47 565 OFFCURVE",
"0 498 CURVE SMOOTH",
"-14 478 OFFCURVE",
"-24 431 OFFCURVE",
"-24 400 CURVE SMOOTH",
"-24 336 OFFCURVE",
"-4 280 OFFCURVE",
"27 244 CURVE SMOOTH",
"40 228 OFFCURVE",
"73 216 OFFCURVE",
"107 216 CURVE SMOOTH",
"176 216 OFFCURVE",
"265 265 OFFCURVE",
"267 336 CURVE SMOOTH",
"270 427 OFFCURVE",
"232 451 OFFCURVE",
"203 451 CURVE SMOOTH",
"182 451 OFFCURVE",
"173 433 OFFCURVE",
"164 418 CURVE SMOOTH",
"162 414 OFFCURVE",
"161 409 OFFCURVE",
"161 403 CURVE SMOOTH",
"161 386 OFFCURVE",
"170 364 OFFCURVE",
"178 378 CURVE SMOOTH",
"182 385 OFFCURVE",
"192 424 OFFCURVE",
"203 424 CURVE SMOOTH",
"224 424 OFFCURVE",
"240 362 OFFCURVE",
"240 336 CURVE SMOOTH",
"240 278 OFFCURVE",
"163 243 OFFCURVE",
"107 243 CURVE SMOOTH",
"84 243 OFFCURVE",
"58 252 OFFCURVE",
"47 263 CURVE SMOOTH",
"19 294 OFFCURVE",
"16 331 OFFCURVE",
"16 387 CURVE SMOOTH",
"16 412 OFFCURVE",
"28 452 OFFCURVE",
"40 469 CURVE SMOOTH",
"82 531 OFFCURVE",
"124 573 OFFCURVE",
"227 573 CURVE SMOOTH",
"280 573 OFFCURVE",
"301 525 OFFCURVE",
"325 493 CURVE SMOOTH",
"356 452 OFFCURVE",
"376 367 OFFCURVE",
"396 313 CURVE SMOOTH",
"407 283 OFFCURVE",
"420 256 OFFCURVE",
"432 229 CURVE",
"413 167 OFFCURVE",
"400 102 OFFCURVE",
"392 47 CURVE SMOOTH",
"389 23 OFFCURVE",
"400 -22 OFFCURVE",
"400 -43 CURVE SMOOTH",
"400 -63 OFFCURVE",
"407 -69 OFFCURVE",
"424 -84 CURVE",
"464 -58 OFFCURVE",
"488 -7 OFFCURVE",
"488 45 CURVE SMOOTH",
"488 95 OFFCURVE",
"475 157 OFFCURVE",
"458 216 CURVE",
"465 237 OFFCURVE",
"472 258 OFFCURVE",
"480 285 CURVE SMOOTH",
"518 411 OFFCURVE",
"579 448 OFFCURVE",
"624 502 CURVE SMOOTH",
"646 528 OFFCURVE",
"663 565 OFFCURVE",
"709 565 CURVE SMOOTH",
"719 565 OFFCURVE",
"727 566 OFFCURVE",
"735 566 CURVE SMOOTH",
"741 566 OFFCURVE",
"746 566 OFFCURVE",
"752 564 CURVE",
"751 556 OFFCURVE",
"762 524 OFFCURVE",
"758 518 CURVE SMOOTH",
"751 506 OFFCURVE",
"763 495 OFFCURVE",
"773 495 CURVE SMOOTH",
"778 495 OFFCURVE",
"783 497 OFFCURVE",
"785 502 CURVE SMOOTH",
"789 509 OFFCURVE",
"807 522 OFFCURVE",
"807 553 CURVE SMOOTH",
"807 565 OFFCURVE",
"804 579 OFFCURVE",
"798 596 CURVE"
);
},
{
closed = 1;
nodes = (
"464 47 OFFCURVE",
"458 4 OFFCURVE",
"451 -11 CURVE",
"449 -12 OFFCURVE",
"432 -25 OFFCURVE",
"432 -24 CURVE SMOOTH",
"432 -3 OFFCURVE",
"415 20 OFFCURVE",
"418 44 CURVE SMOOTH",
"427 108 OFFCURVE",
"437 147 OFFCURVE",
"448 185 CURVE",
"458 156 OFFCURVE",
"464 123 OFFCURVE",
"464 83 CURVE SMOOTH"
);
}
);
width = 558;
}
);
note = V;
unicode = 0056;
},
{
glyphname = W;
lastChange = "2022-02-04 13:17:06 +0000";
layers = (
{
layerId = "5ED96FCC-ACEE-47D8-A1F6-56FBB5DDEA2A";
paths = (
{
closed = 1;
nodes = (
"1013 736 OFFCURVE",
"983 760 OFFCURVE",
"955 760 CURVE SMOOTH",
"802 760 OFFCURVE",
"837 542 OFFCURVE",
"800 418 CURVE SMOOTH",
"781 355 OFFCURVE",
"765 264 OFFCURVE",
"752 200 CURVE SMOOTH",
"740 140 OFFCURVE",
"752 82 OFFCURVE",
"720 40 CURVE SMOOTH",
"715 33 OFFCURVE",
"709 22 OFFCURVE",
"698 22 CURVE SMOOTH",
"656 22 OFFCURVE",
"631 62 OFFCURVE",
"616 108 CURVE",
"620 118 LINE SMOOTH",
"648 189 OFFCURVE",
"685 278 OFFCURVE",
"685 363 CURVE SMOOTH",
"685 395 OFFCURVE",
"663 456 OFFCURVE",
"632 456 CURVE SMOOTH",
"616 456 OFFCURVE",
"600 431 OFFCURVE",
"593 416 CURVE SMOOTH",
"574 375 OFFCURVE",
"571 345 OFFCURVE",
"563 292 CURVE",
"563 223 LINE",
"567 199 OFFCURVE",
"574 168 OFFCURVE",
"585 136 CURVE",
"583 131 LINE SMOOTH",
"561 75 OFFCURVE",
"537 19 OFFCURVE",
"483 -7 CURVE SMOOTH",
"475 -10 OFFCURVE",
"444 -24 OFFCURVE",
"438 -24 CURVE SMOOTH",
"378 -24 OFFCURVE",
"360 48 OFFCURVE",
"360 109 CURVE SMOOTH",
"360 212 OFFCURVE",
"391 194 OFFCURVE",
"418 278 CURVE SMOOTH",
"429 312 OFFCURVE",
"467 409 OFFCURVE",
"467 456 CURVE SMOOTH",
"467 558 OFFCURVE",
"409 675 OFFCURVE",
"307 675 CURVE SMOOTH",
"207 675 OFFCURVE",
"137 616 OFFCURVE",
"91 555 CURVE SMOOTH",
"53 505 OFFCURVE",
"13 455 OFFCURVE",
"13 365 CURVE SMOOTH",
"13 242 OFFCURVE",
"43 178 OFFCURVE",
"168 178 CURVE SMOOTH",
"215 178 OFFCURVE",
"264 189 OFFCURVE",
"285 213 CURVE SMOOTH",
"309 242 OFFCURVE",
"349 278 OFFCURVE",
"349 331 CURVE SMOOTH",
"349 383 OFFCURVE",
"311 451 OFFCURVE",
"267 451 CURVE SMOOTH",
"240 451 OFFCURVE",
"235 444 OFFCURVE",
"225 428 CURVE SMOOTH",
"218 417 OFFCURVE",
"228 407 OFFCURVE",
"237 407 CURVE SMOOTH",
"242 407 OFFCURVE",
"246 410 OFFCURVE",
"249 415 CURVE SMOOTH",
"253 423 OFFCURVE",
"256 424 OFFCURVE",
"267 424 CURVE SMOOTH",
"300 424 OFFCURVE",
"323 369 OFFCURVE",
"323 331 CURVE SMOOTH",
"323 285 OFFCURVE",
"285 256 OFFCURVE",
"264 231 CURVE SMOOTH",
"251 216 OFFCURVE",
"222 201 OFFCURVE",
"194 201 CURVE SMOOTH",
"186 201 OFFCURVE",
"178 202 OFFCURVE",
"171 205 CURVE SMOOTH",
"77 239 OFFCURVE",
"80 263 OFFCURVE",
"80 371 CURVE SMOOTH",
"80 452 OFFCURVE",
"103 485 OFFCURVE",
"138 531 CURVE SMOOTH",
"179 585 OFFCURVE",
"218 648 OFFCURVE",
"307 648 CURVE SMOOTH",
"396 648 OFFCURVE",
"440 545 OFFCURVE",
"440 456 CURVE SMOOTH",
"440 412 OFFCURVE",
"417 371 OFFCURVE",
"408 340 CURVE SMOOTH",
"381 252 OFFCURVE",
"333 180 OFFCURVE",
"333 75 CURVE SMOOTH",
"333 -5 OFFCURVE",
"375 -51 OFFCURVE",
"451 -51 CURVE SMOOTH",
"460 -51 OFFCURVE",
"488 -40 OFFCURVE",
"496 -36 CURVE SMOOTH",
"547 -14 OFFCURVE",
"580 33 OFFCURVE",
"604 83 CURVE",
"626 34 OFFCURVE",
"657 -5 OFFCURVE",
"698 -5 CURVE SMOOTH",
"720 -5 OFFCURVE",
"742 2 OFFCURVE",
"749 13 CURVE",
"784 58 OFFCURVE",
"781 129 OFFCURVE",
"795 195 CURVE SMOOTH",
"809 258 OFFCURVE",
"811 318 OFFCURVE",
"829 380 CURVE SMOOTH",
"862 491 OFFCURVE",
"811 733 OFFCURVE",
"955 733 CURVE SMOOTH",
"969 733 OFFCURVE",
"987 723 OFFCURVE",
"987 709 CURVE SMOOTH",
"987 698 OFFCURVE",
"973 692 OFFCURVE",
"968 688 CURVE SMOOTH",
"964 685 OFFCURVE",
"962 681 OFFCURVE",
"962 678 CURVE SMOOTH",
"962 671 OFFCURVE",
"968 664 OFFCURVE",
"975 664 CURVE SMOOTH",
"978 664 OFFCURVE",
"981 665 OFFCURVE",
"984 667 CURVE SMOOTH",
"995 676 OFFCURVE",
"1013 691 OFFCURVE",
"1013 709 CURVE SMOOTH"
);
},
{
closed = 1;
nodes = (
"651 292 OFFCURVE",
"624 229 OFFCURVE",
"600 173 CURVE",
"598 182 OFFCURVE",
"597 192 OFFCURVE",
"595 200 CURVE",
"592 276 LINE",
"600 327 OFFCURVE",
"597 338 OFFCURVE",
"618 376 CURVE SMOOTH",
"621 383 OFFCURVE",
"632 389 OFFCURVE",
"640 389 CURVE SMOOTH",
"651 389 OFFCURVE",
"654 386 OFFCURVE",
"654 381 CURVE SMOOTH",
"654 376 OFFCURVE",
"651 368 OFFCURVE",
"651 358 CURVE SMOOTH"
);
}
);
width = 878;
}
);
note = W;
unicode = 0057;
},
{
glyphname = X;
lastChange = "2022-02-04 13:17:06 +0000";
layers = (
{
layerId = "5ED96FCC-ACEE-47D8-A1F6-56FBB5DDEA2A";
paths = (
{
closed = 1;
nodes = (
"660 76 OFFCURVE",
"664 88 OFFCURVE",
"664 93 CURVE SMOOTH",
"664 105 OFFCURVE",
"637 78 OFFCURVE",
"620 53 CURVE",
"607 40 OFFCURVE",
"569 16 OFFCURVE",
"542 16 CURVE SMOOTH",
"498 16 OFFCURVE",
"465 54 OFFCURVE",
"448 73 CURVE SMOOTH",
"395 132 OFFCURVE",
"384 191 OFFCURVE",
"369 278 CURVE SMOOTH",
"367 290 OFFCURVE",
"366 307 OFFCURVE",
"365 326 CURVE",
"412 383 OFFCURVE",
"443 404 OFFCURVE",
"503 464 CURVE SMOOTH",
"541 503 OFFCURVE",
"602 531 OFFCURVE",
"636 568 CURVE",
"644 574 OFFCURVE",
"647 581 OFFCURVE",
"647 588 CURVE SMOOTH",
"647 600 OFFCURVE",
"634 611 OFFCURVE",
"618 611 CURVE SMOOTH",
"612 611 OFFCURVE",
"606 610 OFFCURVE",
"600 607 CURVE",
"565 571 OFFCURVE",
"518 545 OFFCURVE",
"482 507 CURVE SMOOTH",
"443 466 OFFCURVE",
"402 414 OFFCURVE",
"363 362 CURVE",
"361 393 OFFCURVE",
"359 424 OFFCURVE",
"355 442 CURVE SMOOTH",
"339 512 OFFCURVE",
"312 605 OFFCURVE",
"213 605 CURVE SMOOTH",
"145 605 OFFCURVE",
"49 524 OFFCURVE",
"38 456 CURVE SMOOTH",
"37 448 OFFCURVE",
"36 440 OFFCURVE",
"36 432 CURVE SMOOTH",
"36 384 OFFCURVE",
"58 329 OFFCURVE",
"102 329 CURVE SMOOTH",
"165 329 OFFCURVE",
"212 376 OFFCURVE",
"220 427 CURVE",
"221 431 OFFCURVE",
"225 443 OFFCURVE",
"225 460 CURVE SMOOTH",
"225 479 OFFCURVE",
"220 502 OFFCURVE",
"203 524 CURVE",
"197 527 OFFCURVE",
"192 529 OFFCURVE",
"188 529 CURVE SMOOTH",
"180 529 OFFCURVE",
"176 524 OFFCURVE",
"176 516 CURVE SMOOTH",
"176 507 OFFCURVE",
"182 495 OFFCURVE",
"196 482 CURVE",
"202 474 OFFCURVE",
"204 466 OFFCURVE",
"204 458 CURVE SMOOTH",
"204 433 OFFCURVE",
"184 410 OFFCURVE",
"184 405 CURVE",
"178 371 OFFCURVE",
"149 363 OFFCURVE",
"107 363 CURVE SMOOTH",
"92 363 OFFCURVE",
"88 373 OFFCURVE",
"88 386 CURVE SMOOTH",
"88 405 OFFCURVE",
"97 432 OFFCURVE",
"100 453 CURVE SMOOTH",
"109 505 OFFCURVE",
"156 572 OFFCURVE",
"208 572 CURVE SMOOTH",
"291 572 OFFCURVE",
"309 488 OFFCURVE",
"322 428 CURVE SMOOTH",
"327 404 OFFCURVE",
"328 358 OFFCURVE",
"330 318 CURVE",
"311 293 OFFCURVE",
"293 268 OFFCURVE",
"276 245 CURVE SMOOTH",
"243 202 OFFCURVE",
"226 179 OFFCURVE",
"196 129 CURVE SMOOTH",
"150 52 OFFCURVE",
"130 12 OFFCURVE",
"103 -65 CURVE SMOOTH",
"91 -98 OFFCURVE",
"78 -149 OFFCURVE",
"78 -149 CURVE",
"77 -156 OFFCURVE",
"76 -162 OFFCURVE",
"76 -167 CURVE SMOOTH",
"76 -183 OFFCURVE",
"82 -190 OFFCURVE",
"88 -190 CURVE SMOOTH",
"98 -190 OFFCURVE",
"112 -173 OFFCURVE",
"111 -149 CURVE",
"113 -136 OFFCURVE",
"115 -123 OFFCURVE",
"115 -123 CURVE",
"131 -16 OFFCURVE",
"176 42 OFFCURVE",
"222 116 CURVE SMOOTH",
"249 160 OFFCURVE",
"299 238 OFFCURVE",
"333 285 CURVE",
"333 278 OFFCURVE",
"334 272 OFFCURVE",
"335 267 CURVE SMOOTH",
"352 175 OFFCURVE",
"365 112 OFFCURVE",
"422 49 CURVE SMOOTH",
"444 25 OFFCURVE",
"485 -18 OFFCURVE",
"536 -18 CURVE SMOOTH",
"575 -18 OFFCURVE",
"631 38 OFFCURVE",
"649 56 CURVE"
);
}
);
width = 618;
}
);
note = X;
unicode = 0058;
},
{
glyphname = Y;
lastChange = "2022-02-04 13:17:06 +0000";
layers = (
{
layerId = "5ED96FCC-ACEE-47D8-A1F6-56FBB5DDEA2A";
paths = (
{
closed = 1;
nodes = (
"721 430 OFFCURVE",
"704 478 OFFCURVE",
"677 478 CURVE SMOOTH",
"661 478 OFFCURVE",
"643 463 OFFCURVE",
"623 415 CURVE",
"601 379 OFFCURVE",
"599 301 OFFCURVE",
"595 214 CURVE",
"559 148 OFFCURVE",
"519 89 OFFCURVE",
"416 58 CURVE SMOOTH",
"409 56 OFFCURVE",
"401 55 OFFCURVE",
"395 55 CURVE SMOOTH",
"364 55 OFFCURVE",
"342 76 OFFCURVE",
"342 112 CURVE SMOOTH",
"342 200 OFFCURVE",
"352 222 OFFCURVE",
"380 285 CURVE SMOOTH",
"400 329 OFFCURVE",
"414 371 OFFCURVE",
"429 420 CURVE SMOOTH",
"437 444 OFFCURVE",
"438 522 OFFCURVE",
"438 549 CURVE SMOOTH",
"438 632 OFFCURVE",
"385 648 OFFCURVE",
"304 648 CURVE SMOOTH",
"209 648 OFFCURVE",
"176 623 OFFCURVE",
"123 582 CURVE SMOOTH",
"75 545 OFFCURVE",
"46 520 OFFCURVE",
"20 456 CURVE SMOOTH",
"12 437 OFFCURVE",
"10 419 OFFCURVE",
"10 401 CURVE SMOOTH",
"10 372 OFFCURVE",
"16 343 OFFCURVE",
"16 312 CURVE SMOOTH",
"16 260 OFFCURVE",
"36 223 OFFCURVE",
"78 198 CURVE SMOOTH",
"111 178 OFFCURVE",
"136 182 OFFCURVE",
"173 182 CURVE SMOOTH",
"204 182 OFFCURVE",
"233 185 OFFCURVE",
"253 193 CURVE SMOOTH",
"327 225 OFFCURVE",
"323 273 OFFCURVE",
"323 342 CURVE SMOOTH",
"323 382 OFFCURVE",
"293 424 OFFCURVE",
"253 424 CURVE SMOOTH",
"236 424 OFFCURVE",
"225 421 OFFCURVE",
"215 415 CURVE SMOOTH",
"207 410 OFFCURVE",
"203 404 OFFCURVE",
"203 400 CURVE SMOOTH",
"203 397 OFFCURVE",
"205 395 OFFCURVE",
"209 395 CURVE SMOOTH",
"211 395 OFFCURVE",
"214 396 OFFCURVE",
"218 398 CURVE SMOOTH",
"225 402 OFFCURVE",
"247 403 OFFCURVE",
"258 403 CURVE SMOOTH",
"285 403 OFFCURVE",
"296 368 OFFCURVE",
"296 342 CURVE SMOOTH",
"296 325 OFFCURVE",
"297 311 OFFCURVE",
"297 299 CURVE SMOOTH",
"297 272 OFFCURVE",
"291 256 OFFCURVE",
"248 238 CURVE SMOOTH",
"231 231 OFFCURVE",
"204 224 OFFCURVE",
"178 224 CURVE SMOOTH",
"156 224 OFFCURVE",
"135 213 OFFCURVE",
"115 213 CURVE SMOOTH",
"107 213 OFFCURVE",
"99 215 OFFCURVE",
"92 220 CURVE SMOOTH",
"57 242 OFFCURVE",
"43 271 OFFCURVE",
"43 312 CURVE SMOOTH",
"43 358 OFFCURVE",
"53 434 OFFCURVE",
"71 478 CURVE SMOOTH",
"95 536 OFFCURVE",
"129 544 OFFCURVE",
"171 578 CURVE SMOOTH",
"197 599 OFFCURVE",
"203 604 OFFCURVE",
"216 604 CURVE SMOOTH",
"227 604 OFFCURVE",
"244 600 OFFCURVE",
"285 600 CURVE SMOOTH",
"309 600 OFFCURVE",
"411 545 OFFCURVE",
"403 428 CURVE SMOOTH",
"399 378 OFFCURVE",
"392 362 OFFCURVE",
"372 318 CURVE SMOOTH",
"342 251 OFFCURVE",
"315 205 OFFCURVE",
"315 112 CURVE SMOOTH",
"315 49 OFFCURVE",
"342 16 OFFCURVE",
"403 16 CURVE SMOOTH",
"488 16 OFFCURVE",
"546 115 OFFCURVE",
"584 163 CURVE SMOOTH",
"592 173 LINE",
"589 134 OFFCURVE",
"585 94 OFFCURVE",
"578 56 CURVE SMOOTH",
"558 -51 OFFCURVE",
"527 -104 OFFCURVE",
"484 -183 CURVE SMOOTH",
"448 -249 OFFCURVE",
"402 -358 OFFCURVE",
"293 -358 CURVE SMOOTH",
"256 -358 OFFCURVE",
"176 -318 OFFCURVE",
"176 -280 CURVE SMOOTH",
"176 -196 OFFCURVE",
"240 -91 OFFCURVE",
"320 -91 CURVE SMOOTH",
"360 -91 OFFCURVE",
"389 -98 OFFCURVE",
"389 -142 CURVE SMOOTH",
"389 -183 OFFCURVE",
"356 -229 OFFCURVE",
"315 -229 CURVE SMOOTH",
"291 -229 OFFCURVE",
"278 -225 OFFCURVE",
"275 -207 CURVE",
"298 -171 LINE SMOOTH",
"304 -162 OFFCURVE",
"299 -158 OFFCURVE",
"292 -158 CURVE SMOOTH",
"285 -158 OFFCURVE",
"276 -162 OFFCURVE",
"273 -171 CURVE SMOOTH",
"258 -211 LINE",
"264 -249 OFFCURVE",
"271 -256 OFFCURVE",
"315 -256 CURVE SMOOTH",
"369 -256 OFFCURVE",
"416 -196 OFFCURVE",
"416 -142 CURVE SMOOTH",
"416 -78 OFFCURVE",
"376 -64 OFFCURVE",
"320 -64 CURVE SMOOTH",
"309 -64 OFFCURVE",
"298 -64 OFFCURVE",
"287 -64 CURVE SMOOTH",
"209 -64 OFFCURVE",
"148 -75 OFFCURVE",
"155 -269 CURVE SMOOTH",
"158 -348 OFFCURVE",
"262 -382 OFFCURVE",
"309 -382 CURVE SMOOTH",
"428 -382 OFFCURVE",
"483 -314 OFFCURVE",
"522 -242 CURVE SMOOTH",
"567 -160 OFFCURVE",
"591 -85 OFFCURVE",
"611 24 CURVE SMOOTH",
"622 87 OFFCURVE",
"625 159 OFFCURVE",
"628 224 CURVE",
"636 235 OFFCURVE",
"642 246 OFFCURVE",
"649 258 CURVE SMOOTH",
"678 310 OFFCURVE",
"709 365 OFFCURVE",
"720 424 CURVE SMOOTH"
);
},
{
closed = 1;
nodes = (
"683 378 OFFCURVE",
"658 331 OFFCURVE",
"632 283 CURVE",
"635 333 OFFCURVE",
"641 375 OFFCURVE",
"655 398 CURVE",
"670 433 OFFCURVE",
"680 442 OFFCURVE",
"686 442 CURVE SMOOTH",
"692 442 OFFCURVE",
"694 432 OFFCURVE",
"693 429 CURVE"
);
}
);
width = 685;
}
);
note = Y;
unicode = 0059;
},
{
glyphname = Z;
lastChange = "2022-02-04 13:17:06 +0000";
layers = (
{
layerId = "5ED96FCC-ACEE-47D8-A1F6-56FBB5DDEA2A";
paths = (
{
closed = 1;
nodes = (
"555 112 OFFCURVE",
"524 217 OFFCURVE",
"445 235 CURVE SMOOTH",
"441 236 OFFCURVE",
"437 236 OFFCURVE",
"434 236 CURVE SMOOTH",
"415 236 OFFCURVE",
"394 228 OFFCURVE",
"378 222 CURVE",
"350 207 OFFCURVE",
"334 187 OFFCURVE",
"334 159 CURVE SMOOTH",
"334 115 OFFCURVE",
"368 74 OFFCURVE",
"405 74 CURVE SMOOTH",
"430 74 OFFCURVE",
"457 92 OFFCURVE",
"476 140 CURVE SMOOTH",
"479 147 OFFCURVE",
"478 150 OFFCURVE",
"475 150 CURVE SMOOTH",
"468 150 OFFCURVE",
"447 129 OFFCURVE",
"438 109 CURVE SMOOTH",
"433 97 OFFCURVE",
"427 92 OFFCURVE",
"420 92 CURVE SMOOTH",
"400 92 OFFCURVE",
"377 142 OFFCURVE",
"377 157 CURVE SMOOTH",
"377 172 OFFCURVE",
"388 187 OFFCURVE",
"402 195 CURVE",
"413 198 OFFCURVE",
"448 208 OFFCURVE",
"462 205 CURVE SMOOTH",
"503 195 OFFCURVE",
"512 144 OFFCURVE",
"512 93 CURVE SMOOTH",
"512 72 OFFCURVE",
"511 51 OFFCURVE",
"509 33 CURVE SMOOTH",
"504 -13 OFFCURVE",
"473 -76 OFFCURVE",
"418 -76 CURVE SMOOTH",
"228 -76 OFFCURVE",
"268 32 OFFCURVE",
"78 65 CURVE SMOOTH",
"67 67 OFFCURVE",
"63 72 OFFCURVE",
"63 78 CURVE SMOOTH",
"63 106 OFFCURVE",
"135 167 OFFCURVE",
"168 203 CURVE SMOOTH",
"212 253 OFFCURVE",
"291 344 OFFCURVE",
"363 400 CURVE SMOOTH",
"424 448 OFFCURVE",
"478 460 OFFCURVE",
"543 508 CURVE",
"548 513 OFFCURVE",
"551 521 OFFCURVE",
"551 529 CURVE SMOOTH",
"551 553 OFFCURVE",
"534 583 OFFCURVE",
"516 583 CURVE SMOOTH",
"448 583 OFFCURVE",
"445 597 OFFCURVE",
"383 603 CURVE SMOOTH",
"368 604 OFFCURVE",
"354 605 OFFCURVE",
"341 605 CURVE SMOOTH",
"322 605 OFFCURVE",
"305 604 OFFCURVE",
"287 604 CURVE SMOOTH",
"264 604 OFFCURVE",
"241 605 OFFCURVE",
"218 609 CURVE",
"183 599 OFFCURVE",
"150 586 OFFCURVE",
"150 548 CURVE SMOOTH",
"150 536 OFFCURVE",
"153 521 OFFCURVE",
"162 503 CURVE SMOOTH",
"167 494 OFFCURVE",
"182 490 OFFCURVE",
"197 490 CURVE SMOOTH",
"207 490 OFFCURVE",
"217 492 OFFCURVE",
"223 495 CURVE SMOOTH",
"233 500 OFFCURVE",
"195 516 OFFCURVE",
"189 528 CURVE SMOOTH",
"187 532 OFFCURVE",
"186 536 OFFCURVE",
"186 540 CURVE SMOOTH",
"186 562 OFFCURVE",
"218 579 OFFCURVE",
"248 584 CURVE",
"300 575 OFFCURVE",
"317 575 OFFCURVE",
"375 572 CURVE SMOOTH",
"431 569 OFFCURVE",
"416 549 OFFCURVE",
"456 544 CURVE",
"448 489 OFFCURVE",
"204 327 OFFCURVE",
"132 244 CURVE SMOOTH",
"84 189 OFFCURVE",
"61 161 OFFCURVE",
"18 92 CURVE SMOOTH",
"10 79 OFFCURVE",
"-5 47 OFFCURVE",
"-5 30 CURVE SMOOTH",
"-5 23 OFFCURVE",
"-2 18 OFFCURVE",
"4 18 CURVE",
"4 18 OFFCURVE",
"47 43 OFFCURVE",
"72 38 CURVE SMOOTH",
"158 19 OFFCURVE",
"220 -109 OFFCURVE",
"409 -109 CURVE SMOOTH",
"489 -109 OFFCURVE",
"544 -37 OFFCURVE",
"549 29 CURVE SMOOTH"
);
}
);
width = 571;
}
);
note = Z;
unicode = 005A;
},
{
glyphname = a;
lastChange = "2022-02-04 13:17:06 +0000";
layers = (
{
layerId = "5ED96FCC-ACEE-47D8-A1F6-56FBB5DDEA2A";
paths = (
{
closed = 1;
nodes = (
"333 65 OFFCURVE",
"311 47 OFFCURVE",
"297 44 CURVE SMOOTH",
"277 40 OFFCURVE",
"245 48 OFFCURVE",
"231 80 CURVE",
"228 91 OFFCURVE",
"233 124 OFFCURVE",
"233 143 CURVE SMOOTH",
"233 164 OFFCURVE",
"248 203 OFFCURVE",
"251 220 CURVE SMOOTH",
"253 233 OFFCURVE",
"260 245 OFFCURVE",
"261 253 CURVE SMOOTH",
"261 269 OFFCURVE",
"258 291 OFFCURVE",
"249 298 CURVE SMOOTH",
"244 301 OFFCURVE",
"240 303 OFFCURVE",
"236 303 CURVE SMOOTH",
"228 303 OFFCURVE",
"221 297 OFFCURVE",
"216 291 CURVE SMOOTH",
"206 278 OFFCURVE",
"200 258 OFFCURVE",
"191 256 CURVE SMOOTH",
"161 249 OFFCURVE",
"117 240 OFFCURVE",
"91 229 CURVE SMOOTH",
"48 211 OFFCURVE",
"31 178 OFFCURVE",
"15 115 CURVE SMOOTH",
"10 95 OFFCURVE",
"8 78 OFFCURVE",
"8 64 CURVE SMOOTH",
"8 12 OFFCURVE",
"39 2 OFFCURVE",
"71 2 CURVE SMOOTH",
"157 2 OFFCURVE",
"173 44 OFFCURVE",
"197 63 CURVE",
"201 48 OFFCURVE",
"215 11 OFFCURVE",
"270 11 CURVE SMOOTH",
"303 11 OFFCURVE",
"319 27 OFFCURVE",
"338 43 CURVE SMOOTH",
"356 58 OFFCURVE",
"361 68 OFFCURVE",
"361 74 CURVE SMOOTH",
"361 79 OFFCURVE",
"358 81 OFFCURVE",
"354 81 CURVE SMOOTH",
"351 81 OFFCURVE",
"348 80 OFFCURVE",
"346 78 CURVE SMOOTH"
);
},
{
closed = 1;
nodes = (
"185 188 OFFCURVE",
"187 176 OFFCURVE",
"187 160 CURVE SMOOTH",
"187 143 OFFCURVE",
"184 122 OFFCURVE",
"177 105 CURVE SMOOTH",
"162 69 OFFCURVE",
"141 44 OFFCURVE",
"109 31 CURVE SMOOTH",
"86 21 OFFCURVE",
"62 69 OFFCURVE",
"63 90 CURVE SMOOTH",
"66 160 OFFCURVE",
"114 204 OFFCURVE",
"148 216 CURVE SMOOTH",
"151 217 OFFCURVE",
"154 218 OFFCURVE",
"156 218 CURVE SMOOTH",
"171 218 OFFCURVE",
"181 203 OFFCURVE",
"184 192 CURVE SMOOTH"
);
}
);
width = 335;
}
);
note = a;
unicode = 0061;
},
{
glyphname = ae;
lastChange = "2022-02-04 13:17:06 +0000";
layers = (
{
layerId = "5ED96FCC-ACEE-47D8-A1F6-56FBB5DDEA2A";
paths = (
{
closed = 1;
nodes = (
"386 87 OFFCURVE",
"348 38 OFFCURVE",
"317 38 CURVE SMOOTH",
"261 38 OFFCURVE",
"235 62 OFFCURVE",
"235 84 CURVE SMOOTH",
"235 92 OFFCURVE",
"244 96 OFFCURVE",
"261 122 CURVE SMOOTH",
"268 133 OFFCURVE",
"279 152 OFFCURVE",
"288 172 CURVE SMOOTH",
"300 196 OFFCURVE",
"305 221 OFFCURVE",
"305 241 CURVE SMOOTH",
"305 267 OFFCURVE",
"296 285 OFFCURVE",
"282 285 CURVE SMOOTH",
"270 285 OFFCURVE",
"261 280 OFFCURVE",
"251 274 CURVE",
"252 280 OFFCURVE",
"253 284 OFFCURVE",
"253 288 CURVE SMOOTH",
"253 292 OFFCURVE",
"252 296 OFFCURVE",
"249 298 CURVE SMOOTH",
"244 301 OFFCURVE",
"240 303 OFFCURVE",
"236 303 CURVE SMOOTH",
"228 303 OFFCURVE",
"221 297 OFFCURVE",
"216 291 CURVE SMOOTH",
"206 278 OFFCURVE",
"200 258 OFFCURVE",
"191 256 CURVE SMOOTH",
"161 249 OFFCURVE",
"117 240 OFFCURVE",
"91 229 CURVE SMOOTH",
"48 211 OFFCURVE",
"31 178 OFFCURVE",
"15 115 CURVE SMOOTH",
"10 95 OFFCURVE",
"8 78 OFFCURVE",
"8 64 CURVE SMOOTH",
"8 12 OFFCURVE",
"39 2 OFFCURVE",
"71 2 CURVE SMOOTH",
"157 2 OFFCURVE",
"173 44 OFFCURVE",
"197 63 CURVE",
"201 49 OFFCURVE",
"204 -5 OFFCURVE",
"221 0 CURVE SMOOTH",
"232 3 OFFCURVE",
"238 12 OFFCURVE",
"240 24 CURVE",
"255 16 OFFCURVE",
"275 13 OFFCURVE",
"313 13 CURVE SMOOTH",
"350 13 OFFCURVE",
"401 77 OFFCURVE",
"428 122 CURVE SMOOTH",
"429 124 OFFCURVE",
"430 127 OFFCURVE",
"430 130 CURVE SMOOTH",
"430 135 OFFCURVE",
"428 139 OFFCURVE",
"424 139 CURVE SMOOTH",
"421 139 OFFCURVE",
"417 136 OFFCURVE",
"413 129 CURVE SMOOTH"
);
},
{
closed = 1;
nodes = (
"280 246 OFFCURVE",
"281 243 OFFCURVE",
"281 239 CURVE SMOOTH",
"281 227 OFFCURVE",
"272 208 OFFCURVE",
"270 198 CURVE SMOOTH",
"264 176 OFFCURVE",
"256 162 OFFCURVE",
"234 124 CURVE",
"233 134 OFFCURVE",
"232 145 OFFCURVE",
"232 156 CURVE SMOOTH",
"232 174 OFFCURVE",
"234 191 OFFCURVE",
"239 207 CURVE SMOOTH",
"252 247 OFFCURVE",
"272 256 OFFCURVE",
"278 248 CURVE SMOOTH"
);
},
{
closed = 1;
nodes = (
"162 69 OFFCURVE",
"141 44 OFFCURVE",
"109 31 CURVE SMOOTH",
"86 21 OFFCURVE",
"62 69 OFFCURVE",
"63 90 CURVE SMOOTH",
"66 160 OFFCURVE",
"114 204 OFFCURVE",
"148 216 CURVE SMOOTH",
"151 217 OFFCURVE",
"154 218 OFFCURVE",
"156 218 CURVE SMOOTH",
"171 218 OFFCURVE",
"181 203 OFFCURVE",
"184 192 CURVE SMOOTH",
"185 188 OFFCURVE",
"187 176 OFFCURVE",
"187 160 CURVE SMOOTH",
"187 143 OFFCURVE",
"184 122 OFFCURVE",
"177 105 CURVE SMOOTH"
);
}
);
width = 365;
}
);
note = ae;
unicode = 00E6;
},
{
glyphname = b;
lastChange = "2022-02-04 13:17:06 +0000";
layers = (
{
layerId = "5ED96FCC-ACEE-47D8-A1F6-56FBB5DDEA2A";
paths = (
{
closed = 1;
nodes = (
"257 149 OFFCURVE",
"262 157 OFFCURVE",
"262 162 CURVE SMOOTH",
"262 166 OFFCURVE",
"259 168 OFFCURVE",
"253 168 CURVE SMOOTH",
"250 168 OFFCURVE",
"248 168 OFFCURVE",
"245 167 CURVE SMOOTH",
"238 165 OFFCURVE",
"219 146 OFFCURVE",
"197 140 CURVE",
"203 155 OFFCURVE",
"203 156 OFFCURVE",
"204 163 CURVE",
"207 170 OFFCURVE",
"208 177 OFFCURVE",
"208 183 CURVE SMOOTH",
"208 202 OFFCURVE",
"196 214 OFFCURVE",
"181 214 CURVE SMOOTH",
"165 214 OFFCURVE",
"147 200 OFFCURVE",
"138 168 CURVE SMOOTH",
"136 162 OFFCURVE",
"135 155 OFFCURVE",
"135 150 CURVE SMOOTH",
"135 129 OFFCURVE",
"146 113 OFFCURVE",
"162 105 CURVE",
"145 69 OFFCURVE",
"115 13 OFFCURVE",
"94 13 CURVE SMOOTH",
"71 13 OFFCURVE",
"56 57 OFFCURVE",
"56 95 CURVE SMOOTH",
"56 103 OFFCURVE",
"56 111 OFFCURVE",
"58 118 CURVE",
"58 123 OFFCURVE",
"98 180 OFFCURVE",
"123 228 CURVE SMOOTH",
"155 292 OFFCURVE",
"191 378 OFFCURVE",
"205 451 CURVE SMOOTH",
"217 515 OFFCURVE",
"218 604 OFFCURVE",
"218 604 CURVE",
"219 617 OFFCURVE",
"208 629 OFFCURVE",
"195 629 CURVE SMOOTH",
"189 629 OFFCURVE",
"182 626 OFFCURVE",
"176 618 CURVE",
"122 564 OFFCURVE",
"100 489 OFFCURVE",
"76 413 CURVE SMOOTH",
"38 293 OFFCURVE",
"20 168 OFFCURVE",
"20 98 CURVE SMOOTH",
"20 29 OFFCURVE",
"27 -18 OFFCURVE",
"96 -18 CURVE SMOOTH",
"131 -18 OFFCURVE",
"166 59 OFFCURVE",
"185 106 CURVE",
"214 111 OFFCURVE",
"224 120 OFFCURVE",
"247 140 CURVE SMOOTH"
);
},
{
closed = 1;
nodes = (
"189 560 OFFCURVE",
"190 552 OFFCURVE",
"190 540 CURVE SMOOTH",
"190 508 OFFCURVE",
"179 446 OFFCURVE",
"164 398 CURVE SMOOTH",
"145 338 OFFCURVE",
"108 271 OFFCURVE",
"65 184 CURVE",
"75 248 OFFCURVE",
"96 344 OFFCURVE",
"111 393 CURVE SMOOTH",
"142 497 OFFCURVE",
"173 564 OFFCURVE",
"185 562 CURVE"
);
}
);
width = 247;
}
);
note = b;
unicode = 0062;
},
{
glyphname = c;
lastChange = "2022-02-04 13:17:06 +0000";
layers = (
{
layerId = "5ED96FCC-ACEE-47D8-A1F6-56FBB5DDEA2A";
paths = (
{
closed = 1;
nodes = (
"211 68 OFFCURVE",
"216 79 OFFCURVE",
"216 85 CURVE SMOOTH",
"216 87 OFFCURVE",
"215 89 OFFCURVE",
"213 89 CURVE SMOOTH",
"211 89 OFFCURVE",
"210 89 OFFCURVE",
"207 87 CURVE",
"182 53 OFFCURVE",
"144 39 OFFCURVE",
"107 35 CURVE SMOOTH",
"73 32 OFFCURVE",
"47 56 OFFCURVE",
"47 88 CURVE SMOOTH",
"47 115 OFFCURVE",
"54 158 OFFCURVE",
"71 189 CURVE SMOOTH",
"86 217 OFFCURVE",
"111 234 OFFCURVE",
"129 234 CURVE SMOOTH",
"132 234 OFFCURVE",
"135 233 OFFCURVE",
"138 232 CURVE SMOOTH",
"147 228 OFFCURVE",
"150 221 OFFCURVE",
"150 213 CURVE SMOOTH",
"150 210 OFFCURVE",
"150 206 OFFCURVE",
"149 202 CURVE",
"149 189 OFFCURVE",
"133 171 OFFCURVE",
"127 145 CURVE",
"124 139 OFFCURVE",
"127 136 OFFCURVE",
"131 136 CURVE SMOOTH",
"135 136 OFFCURVE",
"140 138 OFFCURVE",
"144 142 CURVE",
"155 167 OFFCURVE",
"170 198 OFFCURVE",
"173 215 CURVE SMOOTH",
"174 220 OFFCURVE",
"175 226 OFFCURVE",
"175 232 CURVE SMOOTH",
"175 241 OFFCURVE",
"173 251 OFFCURVE",
"167 256 CURVE SMOOTH",
"160 262 OFFCURVE",
"147 266 OFFCURVE",
"135 266 CURVE SMOOTH",
"129 266 OFFCURVE",
"123 265 OFFCURVE",
"118 263 CURVE SMOOTH",
"98 254 OFFCURVE",
"56 249 OFFCURVE",
"27 187 CURVE SMOOTH",
"6 143 OFFCURVE",
"3 104 OFFCURVE",
"5 78 CURVE SMOOTH",
"7 38 OFFCURVE",
"32 3 OFFCURVE",
"78 3 CURVE SMOOTH",
"121 3 OFFCURVE",
"158 2 OFFCURVE",
"209 66 CURVE SMOOTH"
);
}
);
width = 185;
}
);
note = c;
unicode = 0063;
},
{
glyphname = d;
lastChange = "2022-02-04 13:17:06 +0000";
layers = (
{
layerId = "5ED96FCC-ACEE-47D8-A1F6-56FBB5DDEA2A";
paths = (
{
closed = 1;
nodes = (
"447 561 OFFCURVE",
"448 573 OFFCURVE",
"448 584 CURVE SMOOTH",
"448 606 OFFCURVE",
"442 626 OFFCURVE",
"417 626 CURVE SMOOTH",
"400 626 OFFCURVE",
"388 614 OFFCURVE",
"376 598 CURVE SMOOTH",
"343 557 OFFCURVE",
"315 509 OFFCURVE",
"296 464 CURVE SMOOTH",
"266 395 OFFCURVE",
"250 365 OFFCURVE",
"221 258 CURVE",
"206 262 OFFCURVE",
"189 264 OFFCURVE",
"173 264 CURVE SMOOTH",
"96 264 OFFCURVE",
"14 220 OFFCURVE",
"14 113 CURVE SMOOTH",
"14 76 OFFCURVE",
"54 38 OFFCURVE",
"101 38 CURVE SMOOTH",
"143 38 OFFCURVE",
"168 71 OFFCURVE",
"218 93 CURVE",
"227 71 OFFCURVE",
"240 9 OFFCURVE",
"294 9 CURVE SMOOTH",
"316 9 OFFCURVE",
"338 29 OFFCURVE",
"360 48 CURVE SMOOTH",
"366 53 OFFCURVE",
"375 68 OFFCURVE",
"375 74 CURVE SMOOTH",
"375 76 OFFCURVE",
"374 77 OFFCURVE",
"372 77 CURVE SMOOTH",
"368 77 OFFCURVE",
"361 72 OFFCURVE",
"347 60 CURVE SMOOTH",
"334 49 OFFCURVE",
"306 33 OFFCURVE",
"288 33 CURVE SMOOTH",
"258 33 OFFCURVE",
"247 112 OFFCURVE",
"247 112 CURVE",
"247 143 OFFCURVE",
"409 338 OFFCURVE",
"445 551 CURVE SMOOTH"
);
},
{
closed = 1;
nodes = (
"420 529 OFFCURVE",
"393 442 OFFCURVE",
"373 395 CURVE SMOOTH",
"328 292 OFFCURVE",
"258 188 OFFCURVE",
"249 175 CURVE",
"253 191 OFFCURVE",
"255 207 OFFCURVE",
"255 220 CURVE SMOOTH",
"255 233 OFFCURVE",
"253 243 OFFCURVE",
"248 248 CURVE",
"257 267 OFFCURVE",
"296 355 OFFCURVE",
"333 431 CURVE SMOOTH",
"365 496 OFFCURVE",
"403 553 OFFCURVE",
"421 567 CURVE"
);
},
{
closed = 1;
nodes = (
"203 172 OFFCURVE",
"206 155 OFFCURVE",
"201 142 CURVE SMOOTH",
"184 97 OFFCURVE",
"130 61 OFFCURVE",
"102 61 CURVE SMOOTH",
"99 61 OFFCURVE",
"96 61 OFFCURVE",
"94 62 CURVE SMOOTH",
"78 68 OFFCURVE",
"72 83 OFFCURVE",
"72 101 CURVE SMOOTH",
"72 123 OFFCURVE",
"81 148 OFFCURVE",
"87 156 CURVE SMOOTH",
"113 194 OFFCURVE",
"147 231 OFFCURVE",
"184 231 CURVE SMOOTH",
"190 231 OFFCURVE",
"195 230 OFFCURVE",
"201 228 CURVE SMOOTH",
"206 227 OFFCURVE",
"208 222 OFFCURVE",
"208 215 CURVE SMOOTH",
"208 208 OFFCURVE",
"206 198 OFFCURVE",
"205 188 CURVE SMOOTH"
);
}
);
width = 351;
}
);
note = d;
unicode = 0064;
},
{
glyphname = eth;
lastChange = "2022-02-04 13:16:50 +0000";
layers = (
{
layerId = "5ED96FCC-ACEE-47D8-A1F6-56FBB5DDEA2A";
paths = (
{
closed = 1;
nodes = (
"332 476 OFFCURVE",
"322 479 OFFCURVE",
"315 479 CURVE SMOOTH",
"287 479 OFFCURVE",
"250 465 OFFCURVE",
"225 453 CURVE",
"187 484 OFFCURVE",
"105 519 OFFCURVE",
"54 519 CURVE SMOOTH",
"47 519 OFFCURVE",
"37 516 OFFCURVE",
"37 507 CURVE SMOOTH",
"37 495 OFFCURVE",
"50 491 OFFCURVE",
"60 490 CURVE SMOOTH",
"108 483 OFFCURVE",
"154 463 OFFCURVE",
"193 434 CURVE",
"173 420 OFFCURVE",
"146 404 OFFCURVE",
"127 389 CURVE SMOOTH",
"122 385 OFFCURVE",
"118 381 OFFCURVE",
"118 374 CURVE SMOOTH",
"118 364 OFFCURVE",
"127 355 OFFCURVE",
"137 355 CURVE SMOOTH",
"150 355 OFFCURVE",
"205 401 OFFCURVE",
"218 411 CURVE",
"251 374 OFFCURVE",
"255 279 OFFCURVE",
"255 231 CURVE SMOOTH",
"255 168 OFFCURVE",
"226 58 OFFCURVE",
"147 58 CURVE SMOOTH",
"83 58 OFFCURVE",
"33 121 OFFCURVE",
"33 182 CURVE SMOOTH",
"33 191 OFFCURVE",
"33 199 OFFCURVE",
"35 207 CURVE SMOOTH",
"43 243 OFFCURVE",
"102 251 OFFCURVE",
"133 251 CURVE SMOOTH",
"143 251 OFFCURVE",
"154 251 OFFCURVE",
"164 247 CURVE SMOOTH",
"171 245 OFFCURVE",
"197 235 OFFCURVE",
"202 235 CURVE SMOOTH",
"208 235 OFFCURVE",
"211 239 OFFCURVE",
"211 244 CURVE SMOOTH",
"211 275 OFFCURVE",
"147 280 OFFCURVE",
"126 280 CURVE SMOOTH",
"54 280 OFFCURVE",
"5 250 OFFCURVE",
"5 173 CURVE SMOOTH",
"5 107 OFFCURVE",
"64 11 OFFCURVE",
"137 11 CURVE SMOOTH",
"208 11 OFFCURVE",
"262 87 OFFCURVE",
"283 147 CURVE SMOOTH",
"292 174 OFFCURVE",
"297 202 OFFCURVE",
"297 231 CURVE SMOOTH",
"297 286 OFFCURVE",
"282 388 OFFCURVE",
"247 431 CURVE",
"269 444 OFFCURVE",
"289 451 OFFCURVE",
"315 456 CURVE SMOOTH",
"321 457 OFFCURVE",
"332 459 OFFCURVE",
"332 468 CURVE SMOOTH"
);
}
);
width = 331;
}
);
note = eth;
unicode = 00F0;
},
{
glyphname = e;
lastChange = "2022-02-04 13:17:06 +0000";
layers = (
{
layerId = "5ED96FCC-ACEE-47D8-A1F6-56FBB5DDEA2A";
paths = (
{
closed = 1;
nodes = (
"246 124 OFFCURVE",
"247 127 OFFCURVE",
"247 130 CURVE SMOOTH",
"247 135 OFFCURVE",
"245 139 OFFCURVE",
"241 139 CURVE SMOOTH",
"238 139 OFFCURVE",
"234 136 OFFCURVE",
"230 129 CURVE SMOOTH",
"203 87 OFFCURVE",
"165 38 OFFCURVE",
"134 38 CURVE SMOOTH",
"78 38 OFFCURVE",
"52 62 OFFCURVE",
"52 84 CURVE SMOOTH",
"52 92 OFFCURVE",
"61 96 OFFCURVE",
"78 122 CURVE SMOOTH",
"85 133 OFFCURVE",
"96 152 OFFCURVE",
"105 172 CURVE SMOOTH",
"116 196 OFFCURVE",
"122 220 OFFCURVE",
"122 241 CURVE SMOOTH",
"122 269 OFFCURVE",
"112 288 OFFCURVE",
"95 285 CURVE SMOOTH",
"39 273 OFFCURVE",
"7 205 OFFCURVE",
"7 127 CURVE SMOOTH",
"7 120 OFFCURVE",
"7 112 OFFCURVE",
"8 104 CURVE SMOOTH",
"11 75 OFFCURVE",
"28 44 OFFCURVE",
"53 27 CURVE SMOOTH",
"68 17 OFFCURVE",
"88 13 OFFCURVE",
"130 13 CURVE SMOOTH",
"167 13 OFFCURVE",
"218 77 OFFCURVE",
"245 122 CURVE SMOOTH"
);
},
{
closed = 1;
nodes = (
"97 246 OFFCURVE",
"98 243 OFFCURVE",
"98 239 CURVE SMOOTH",
"98 227 OFFCURVE",
"89 208 OFFCURVE",
"87 198 CURVE SMOOTH",
"81 176 OFFCURVE",
"73 162 OFFCURVE",
"51 124 CURVE",
"50 134 OFFCURVE",
"49 145 OFFCURVE",
"49 156 CURVE SMOOTH",
"49 174 OFFCURVE",
"51 191 OFFCURVE",
"56 207 CURVE SMOOTH",
"69 247 OFFCURVE",
"89 256 OFFCURVE",
"95 248 CURVE SMOOTH"
);
}
);
width = 182;
}
);
note = e;
unicode = 0065;
},
{
glyphname = schwa;
lastChange = "2022-02-04 13:17:06 +0000";
layers = (
{
layerId = "5ED96FCC-ACEE-47D8-A1F6-56FBB5DDEA2A";
paths = (
{
closed = 1;
nodes = (
"-20 152 OFFCURVE",
"-21 148 OFFCURVE",
"-21 145 CURVE SMOOTH",
"-21 141 OFFCURVE",
"-20 138 OFFCURVE",
"-17 138 CURVE SMOOTH",
"-14 138 OFFCURVE",
"-10 141 OFFCURVE",
"-4 148 CURVE SMOOTH",
"29 190 OFFCURVE",
"74 239 OFFCURVE",
"105 239 CURVE SMOOTH",
"134 239 OFFCURVE",
"156 215 OFFCURVE",
"153 193 CURVE SMOOTH",
"152 185 OFFCURVE",
"142 181 OFFCURVE",
"122 155 CURVE SMOOTH",
"113 144 OFFCURVE",
"100 125 OFFCURVE",
"88 105 CURVE SMOOTH",
"70 75 OFFCURVE",
"61 44 OFFCURVE",
"61 22 CURVE SMOOTH",
"61 2 OFFCURVE",
"68 -11 OFFCURVE",
"82 -8 CURVE SMOOTH",
"146 5 OFFCURVE",
"189 86 OFFCURVE",
"194 173 CURVE SMOOTH",
"195 202 OFFCURVE",
"183 233 OFFCURVE",
"160 250 CURVE SMOOTH",
"146 260 OFFCURVE",
"127 264 OFFCURVE",
"112 264 CURVE SMOOTH",
"75 264 OFFCURVE",
"15 200 OFFCURVE",
"-18 155 CURVE SMOOTH"
);
},
{
closed = 1;
nodes = (
"85 47 OFFCURVE",
"98 68 OFFCURVE",
"102 79 CURVE SMOOTH",
"111 101 OFFCURVE",
"121 115 OFFCURVE",
"149 153 CURVE",
"148 126 OFFCURVE",
"143 95 OFFCURVE",
"132 70 CURVE SMOOTH",
"110 23 OFFCURVE",
"85 19 OFFCURVE",
"85 35 CURVE SMOOTH"
);
}
);
width = 233;
}
);
unicode = 0259;
},
{
glyphname = f;
lastChange = "2022-02-04 13:17:06 +0000";
layers = (
{
layerId = "5ED96FCC-ACEE-47D8-A1F6-56FBB5DDEA2A";
paths = (
{
closed = 1;
nodes = (
"311 629 OFFCURVE",
"305 633 OFFCURVE",
"298 633 CURVE SMOOTH",
"262 633 OFFCURVE",
"192 516 OFFCURVE",
"152 436 CURVE SMOOTH",
"40 212 OFFCURVE",
"-38 -74 OFFCURVE",
"-38 -188 CURVE SMOOTH",
"-38 -213 OFFCURVE",
"-35 -272 OFFCURVE",
"-29 -294 CURVE SMOOTH",
"-25 -309 OFFCURVE",
"-7 -320 OFFCURVE",
"6 -320 CURVE SMOOTH",
"10 -320 OFFCURVE",
"14 -318 OFFCURVE",
"17 -316 CURVE SMOOTH",
"80 -263 OFFCURVE",
"98 -187 OFFCURVE",
"115 -96 CURVE SMOOTH",
"127 -28 OFFCURVE",
"128 -20 OFFCURVE",
"132 -3 CURVE",
"132 -3 OFFCURVE",
"161 -3 OFFCURVE",
"198 13 CURVE SMOOTH",
"234 29 OFFCURVE",
"260 58 OFFCURVE",
"287 100 CURVE SMOOTH",
"291 107 OFFCURVE",
"287 116 OFFCURVE",
"281 116 CURVE SMOOTH",
"279 116 OFFCURVE",
"276 115 OFFCURVE",
"273 111 CURVE SMOOTH",
"261 94 OFFCURVE",
"232 52 OFFCURVE",
"190 33 CURVE SMOOTH",
"177 27 OFFCURVE",
"161 25 OFFCURVE",
"148 25 CURVE SMOOTH",
"140 25 OFFCURVE",
"132 26 OFFCURVE",
"128 27 CURVE",
"126 55 OFFCURVE",
"119 100 OFFCURVE",
"110 120 CURVE",
"110 138 OFFCURVE",
"180 179 OFFCURVE",
"262 405 CURVE SMOOTH",
"282 460 OFFCURVE",
"317 562 OFFCURVE",
"317 605 CURVE SMOOTH",
"317 610 OFFCURVE",
"316 615 OFFCURVE",
"315 618 CURVE SMOOTH"
);
},
{
closed = 1;
nodes = (
"281 570 OFFCURVE",
"283 568 OFFCURVE",
"283 562 CURVE SMOOTH",
"283 539 OFFCURVE",
"262 468 OFFCURVE",
"239 412 CURVE SMOOTH",
"201 316 OFFCURVE",
"123 184 OFFCURVE",
"93 156 CURVE",
"128 269 OFFCURVE",
"165 352 OFFCURVE",
"201 425 CURVE SMOOTH",
"225 473 OFFCURVE",
"253 553 OFFCURVE",
"278 568 CURVE SMOOTH"
);
},
{
closed = 1;
nodes = (
"97 69 OFFCURVE",
"97 65 OFFCURVE",
"97 61 CURVE SMOOTH",
"97 52 OFFCURVE",
"92 51 OFFCURVE",
"88 48 CURVE",
"75 44 OFFCURVE",
"65 56 OFFCURVE",
"65 56 CURVE",
"65 78 OFFCURVE",
"70 89 OFFCURVE",
"78 98 CURVE",
"88 100 OFFCURVE",
"92 85 OFFCURVE",
"95 75 CURVE SMOOTH"
);
},
{
closed = 1;
nodes = (
"99 5 OFFCURVE",
"97 -48 OFFCURVE",
"92 -75 CURVE SMOOTH",
"74 -162 OFFCURVE",
"73 -178 OFFCURVE",
"56 -205 CURVE SMOOTH",
"44 -223 OFFCURVE",
"28 -265 OFFCURVE",
"17 -267 CURVE SMOOTH",
"10 -268 OFFCURVE",
"7 -255 OFFCURVE",
"7 -235 CURVE SMOOTH",
"7 -209 OFFCURVE",
"12 -171 OFFCURVE",
"17 -144 CURVE SMOOTH",
"40 -13 OFFCURVE",
"25 -83 OFFCURVE",
"53 25 CURVE",
"58 7 OFFCURVE",
"74 3 OFFCURVE",
"85 3 CURVE SMOOTH",
"93 3 OFFCURVE",
"99 5 OFFCURVE",
"99 5 CURVE"
);
}
);
width = 237;
}
);
note = f;
unicode = 0066;
},
{
glyphname = g;
lastChange = "2022-02-04 13:17:06 +0000";
layers = (
{
layerId = "5ED96FCC-ACEE-47D8-A1F6-56FBB5DDEA2A";
paths = (
{
closed = 1;
nodes = (
"291 305 OFFCURVE",
"281 309 OFFCURVE",
"271 309 CURVE SMOOTH",
"255 309 OFFCURVE",
"235 301 OFFCURVE",
"216 298 CURVE SMOOTH",
"132 284 OFFCURVE",
"32 195 OFFCURVE",
"32 132 CURVE SMOOTH",
"32 120 OFFCURVE",
"36 109 OFFCURVE",
"43 100 CURVE SMOOTH",
"63 74 OFFCURVE",
"89 61 OFFCURVE",
"118 61 CURVE SMOOTH",
"143 61 OFFCURVE",
"171 70 OFFCURVE",
"202 87 CURVE",
"201 70 OFFCURVE",
"201 57 OFFCURVE",
"201 46 CURVE SMOOTH",
"201 9 OFFCURVE",
"204 -1 OFFCURVE",
"204 -16 CURVE SMOOTH",
"204 -22 OFFCURVE",
"204 -30 OFFCURVE",
"202 -42 CURVE SMOOTH",
"194 -95 OFFCURVE",
"194 -175 OFFCURVE",
"171 -216 CURVE SMOOTH",
"146 -263 OFFCURVE",
"106 -301 OFFCURVE",
"66 -306 CURVE SMOOTH",
"59 -307 OFFCURVE",
"53 -307 OFFCURVE",
"46 -307 CURVE SMOOTH",
"-16 -307 OFFCURVE",
"-58 -263 OFFCURVE",
"-60 -186 CURVE",
"-62 -176 OFFCURVE",
"-63 -163 OFFCURVE",
"-63 -150 CURVE SMOOTH",
"-63 -129 OFFCURVE",
"-60 -107 OFFCURVE",
"-51 -89 CURVE SMOOTH",
"-36 -58 OFFCURVE",
"-15 -49 OFFCURVE",
"2 -51 CURVE SMOOTH",
"33 -56 OFFCURVE",
"57 -84 OFFCURVE",
"71 -117 CURVE SMOOTH",
"79 -137 OFFCURVE",
"83 -155 OFFCURVE",
"83 -168 CURVE SMOOTH",
"83 -184 OFFCURVE",
"78 -194 OFFCURVE",
"70 -194 CURVE SMOOTH",
"64 -194 OFFCURVE",
"47 -185 OFFCURVE",
"47 -162 CURVE SMOOTH",
"47 -153 OFFCURVE",
"53 -149 OFFCURVE",
"53 -145 CURVE SMOOTH",
"53 -145 OFFCURVE",
"53 -144 OFFCURVE",
"53 -144 CURVE",
"52 -137 OFFCURVE",
"51 -130 OFFCURVE",
"46 -130 CURVE SMOOTH",
"44 -130 OFFCURVE",
"40 -132 OFFCURVE",
"35 -137 CURVE SMOOTH",
"29 -142 OFFCURVE",
"21 -159 OFFCURVE",
"21 -175 CURVE SMOOTH",
"21 -199 OFFCURVE",
"44 -216 OFFCURVE",
"57 -218 CURVE",
"67 -222 OFFCURVE",
"76 -224 OFFCURVE",
"84 -224 CURVE SMOOTH",
"93 -224 OFFCURVE",
"101 -221 OFFCURVE",
"108 -213 CURVE SMOOTH",
"115 -206 OFFCURVE",
"117 -195 OFFCURVE",
"117 -181 CURVE SMOOTH",
"117 -164 OFFCURVE",
"113 -145 OFFCURVE",
"109 -129 CURVE SMOOTH",
"99 -92 OFFCURVE",
"53 -21 OFFCURVE",
"2 -21 CURVE SMOOTH",
"-63 -21 OFFCURVE",
"-83 -91 OFFCURVE",
"-93 -151 CURVE SMOOTH",
"-95 -163 OFFCURVE",
"-96 -175 OFFCURVE",
"-96 -187 CURVE SMOOTH",
"-96 -278 OFFCURVE",
"-42 -352 OFFCURVE",
"-4 -356 CURVE SMOOTH",
"60 -362 OFFCURVE",
"121 -339 OFFCURVE",
"173 -275 CURVE",
"226 -140 OFFCURVE",
"237 -111 OFFCURVE",
"240 -4 CURVE SMOOTH",
"242 81 OFFCURVE",
"304 214 OFFCURVE",
"304 273 CURVE SMOOTH",
"304 283 OFFCURVE",
"302 291 OFFCURVE",
"298 296 CURVE SMOOTH"
);
},
{
closed = 1;
nodes = (
"238 183 OFFCURVE",
"224 141 OFFCURVE",
"184 104 CURVE SMOOTH",
"167 89 OFFCURVE",
"139 80 OFFCURVE",
"119 80 CURVE SMOOTH",
"109 80 OFFCURVE",
"101 82 OFFCURVE",
"97 87 CURVE SMOOTH",
"93 93 OFFCURVE",
"92 101 OFFCURVE",
"92 111 CURVE SMOOTH",
"92 134 OFFCURVE",
"100 163 OFFCURVE",
"107 180 CURVE SMOOTH",
"131 241 OFFCURVE",
"195 282 OFFCURVE",
"229 282 CURVE SMOOTH",
"237 282 OFFCURVE",
"244 280 OFFCURVE",
"248 275 CURVE SMOOTH",
"254 269 OFFCURVE",
"255 262 OFFCURVE",
"255 255 CURVE SMOOTH",
"255 245 OFFCURVE",
"251 234 OFFCURVE",
"248 222 CURVE SMOOTH"
);
}
);
width = 311;
}
);
note = g;
unicode = 0067;
},
{
glyphname = h;
lastChange = "2022-02-04 13:17:06 +0000";
layers = (
{
layerId = "5ED96FCC-ACEE-47D8-A1F6-56FBB5DDEA2A";
paths = (
{
closed = 1;
nodes = (
"326 60 OFFCURVE",
"321 63 OFFCURVE",
"317 63 CURVE SMOOTH",
"314 63 OFFCURVE",
"312 63 OFFCURVE",
"311 61 CURVE SMOOTH",
"300 46 OFFCURVE",
"281 38 OFFCURVE",
"263 38 CURVE SMOOTH",
"242 38 OFFCURVE",
"224 49 OFFCURVE",
"224 72 CURVE SMOOTH",
"224 139 OFFCURVE",
"235 187 OFFCURVE",
"235 221 CURVE SMOOTH",
"235 238 OFFCURVE",
"233 251 OFFCURVE",
"225 262 CURVE SMOOTH",
"217 273 OFFCURVE",
"191 283 OFFCURVE",
"165 283 CURVE SMOOTH",
"157 283 OFFCURVE",
"150 282 OFFCURVE",
"143 280 CURVE",
"208 405 OFFCURVE",
"228 512 OFFCURVE",
"236 602 CURVE SMOOTH",
"237 610 OFFCURVE",
"237 618 OFFCURVE",
"237 624 CURVE SMOOTH",
"237 661 OFFCURVE",
"226 673 OFFCURVE",
"207 673 CURVE SMOOTH",
"138 673 OFFCURVE",
"113 549 OFFCURVE",
"83 363 CURVE SMOOTH",
"73 305 OFFCURVE",
"70 238 OFFCURVE",
"51 182 CURVE SMOOTH",
"39 146 OFFCURVE",
"-16 104 OFFCURVE",
"-4 91 CURVE",
"13 88 OFFCURVE",
"43 128 OFFCURVE",
"47 131 CURVE",
"42 78 OFFCURVE",
"36 13 OFFCURVE",
"36 13 CURVE",
"41 7 OFFCURVE",
"47 4 OFFCURVE",
"53 4 CURVE SMOOTH",
"60 4 OFFCURVE",
"66 8 OFFCURVE",
"71 18 CURVE SMOOTH",
"91 58 OFFCURVE",
"97 151 OFFCURVE",
"127 228 CURVE SMOOTH",
"135 248 OFFCURVE",
"143 254 OFFCURVE",
"150 254 CURVE SMOOTH",
"161 254 OFFCURVE",
"170 239 OFFCURVE",
"170 239 CURVE",
"189 101 OFFCURVE",
"184 60 OFFCURVE",
"212 13 CURVE",
"220 4 OFFCURVE",
"230 0 OFFCURVE",
"243 0 CURVE SMOOTH",
"268 0 OFFCURVE",
"299 18 OFFCURVE",
"323 53 CURVE"
);
},
{
closed = 1;
nodes = (
"212 585 OFFCURVE",
"198 476 OFFCURVE",
"168 388 CURVE SMOOTH",
"153 343 OFFCURVE",
"128 312 OFFCURVE",
"108 280 CURVE",
"108 280 OFFCURVE",
"109 327 OFFCURVE",
"112 358 CURVE SMOOTH",
"118 424 OFFCURVE",
"129 465 OFFCURVE",
"145 527 CURVE SMOOTH",
"160 584 OFFCURVE",
"195 641 OFFCURVE",
"208 641 CURVE SMOOTH",
"210 641 OFFCURVE",
"212 638 OFFCURVE",
"212 632 CURVE SMOOTH"
);
}
);
width = 315;
}
);
note = h;
unicode = 0068;
},
{
glyphname = i;
lastChange = "2022-02-04 13:17:06 +0000";
layers = (
{
layerId = "5ED96FCC-ACEE-47D8-A1F6-56FBB5DDEA2A";
paths = (
{
closed = 1;
nodes = (
"241 495 OFFCURVE",
"234 497 OFFCURVE",
"228 497 CURVE SMOOTH",
"221 497 OFFCURVE",
"215 495 OFFCURVE",
"209 489 CURVE SMOOTH",
"194 474 OFFCURVE",
"188 457 OFFCURVE",
"188 443 CURVE SMOOTH",
"188 429 OFFCURVE",
"193 418 OFFCURVE",
"202 414 CURVE SMOOTH",
"212 409 OFFCURVE",
"222 404 OFFCURVE",
"231 404 CURVE SMOOTH",
"236 404 OFFCURVE",
"241 406 OFFCURVE",
"245 410 CURVE SMOOTH",
"252 417 OFFCURVE",
"255 436 OFFCURVE",
"255 454 CURVE SMOOTH",
"255 469 OFFCURVE",
"253 483 OFFCURVE",
"247 489 CURVE SMOOTH"
);
},
{
closed = 1;
nodes = (
"210 97 OFFCURVE",
"198 80 OFFCURVE",
"181 62 CURVE SMOOTH",
"168 49 OFFCURVE",
"150 30 OFFCURVE",
"113 32 CURVE SMOOTH",
"95 32 OFFCURVE",
"87 45 OFFCURVE",
"87 64 CURVE SMOOTH",
"87 93 OFFCURVE",
"105 139 OFFCURVE",
"133 184 CURVE SMOOTH",
"159 228 OFFCURVE",
"174 249 OFFCURVE",
"189 291 CURVE SMOOTH",
"191 296 OFFCURVE",
"192 301 OFFCURVE",
"192 305 CURVE SMOOTH",
"192 321 OFFCURVE",
"179 327 OFFCURVE",
"166 327 CURVE SMOOTH",
"157 327 OFFCURVE",
"149 324 OFFCURVE",
"146 318 CURVE SMOOTH",
"124 279 OFFCURVE",
"118 243 OFFCURVE",
"106 205 CURVE",
"84 172 OFFCURVE",
"68 140 OFFCURVE",
"-15 52 CURVE SMOOTH",
"-19 48 OFFCURVE",
"-21 43 OFFCURVE",
"-21 38 CURVE SMOOTH",
"-21 34 OFFCURVE",
"-19 31 OFFCURVE",
"-15 31 CURVE SMOOTH",
"-13 31 OFFCURVE",
"-10 32 OFFCURVE",
"-7 34 CURVE",
"17 53 OFFCURVE",
"50 89 OFFCURVE",
"63 113 CURVE",
"59 98 OFFCURVE",
"56 83 OFFCURVE",
"56 69 CURVE SMOOTH",
"56 37 OFFCURVE",
"71 11 OFFCURVE",
"121 11 CURVE SMOOTH",
"170 11 OFFCURVE",
"199 53 OFFCURVE",
"219 82 CURVE SMOOTH",
"223 87 OFFCURVE",
"227 100 OFFCURVE",
"227 107 CURVE SMOOTH",
"227 111 OFFCURVE",
"225 113 OFFCURVE",
"221 109 CURVE SMOOTH"
);
}
);
width = 185;
}
);
note = i;
unicode = 0069;
},
{
color = 11;
glyphname = idotless;
lastChange = "2022-02-04 13:17:06 +0000";
layers = (
{
layerId = "5ED96FCC-ACEE-47D8-A1F6-56FBB5DDEA2A";
paths = (
{
closed = 1;
nodes = (
"210 97 OFFCURVE",
"198 80 OFFCURVE",
"181 62 CURVE SMOOTH",
"168 49 OFFCURVE",
"150 30 OFFCURVE",
"113 32 CURVE SMOOTH",
"95 32 OFFCURVE",
"87 45 OFFCURVE",
"87 64 CURVE SMOOTH",
"87 93 OFFCURVE",
"105 139 OFFCURVE",
"133 184 CURVE SMOOTH",
"159 228 OFFCURVE",
"174 249 OFFCURVE",
"189 291 CURVE SMOOTH",
"191 296 OFFCURVE",
"192 301 OFFCURVE",
"192 305 CURVE SMOOTH",
"192 321 OFFCURVE",
"179 327 OFFCURVE",
"166 327 CURVE SMOOTH",
"157 327 OFFCURVE",
"149 324 OFFCURVE",
"146 318 CURVE SMOOTH",
"124 279 OFFCURVE",
"118 243 OFFCURVE",
"106 205 CURVE",
"84 172 OFFCURVE",
"68 140 OFFCURVE",
"-15 52 CURVE SMOOTH",
"-19 48 OFFCURVE",
"-21 43 OFFCURVE",
"-21 38 CURVE SMOOTH",
"-21 34 OFFCURVE",
"-19 31 OFFCURVE",
"-15 31 CURVE SMOOTH",
"-13 31 OFFCURVE",
"-10 32 OFFCURVE",
"-7 34 CURVE",
"17 53 OFFCURVE",
"50 89 OFFCURVE",
"63 113 CURVE",
"59 98 OFFCURVE",
"56 83 OFFCURVE",
"56 69 CURVE SMOOTH",
"56 37 OFFCURVE",
"71 11 OFFCURVE",
"121 11 CURVE SMOOTH",
"170 11 OFFCURVE",
"199 53 OFFCURVE",
"219 82 CURVE SMOOTH",
"223 87 OFFCURVE",
"227 100 OFFCURVE",
"227 107 CURVE SMOOTH",
"227 111 OFFCURVE",
"225 113 OFFCURVE",
"221 109 CURVE SMOOTH"
);
}
);
width = 185;
}
);
unicode = 0131;
},
{
glyphname = j;
lastChange = "2022-02-04 13:17:06 +0000";
layers = (
{
layerId = "5ED96FCC-ACEE-47D8-A1F6-56FBB5DDEA2A";
paths = (
{
closed = 1;
nodes = (
"128 311 OFFCURVE",
"131 328 OFFCURVE",
"131 345 CURVE SMOOTH",
"131 361 OFFCURVE",
"128 377 OFFCURVE",
"122 383 CURVE SMOOTH",
"116 388 OFFCURVE",
"108 391 OFFCURVE",
"101 391 CURVE SMOOTH",
"95 391 OFFCURVE",
"88 388 OFFCURVE",
"83 383 CURVE SMOOTH",
"68 368 OFFCURVE",
"61 351 OFFCURVE",
"61 337 CURVE SMOOTH",
"61 324 OFFCURVE",
"67 313 OFFCURVE",
"76 308 CURVE SMOOTH",
"86 303 OFFCURVE",
"97 298 OFFCURVE",
"107 298 CURVE SMOOTH",
"113 298 OFFCURVE",
"118 300 OFFCURVE",
"122 304 CURVE SMOOTH"
);
},
{
closed = 1;
nodes = (
"129 213 OFFCURVE",
"116 232 OFFCURVE",
"100 232 CURVE SMOOTH",
"93 232 OFFCURVE",
"85 228 OFFCURVE",
"78 216 CURVE SMOOTH",
"56 178 OFFCURVE",
"51 156 OFFCURVE",
"47 104 CURVE SMOOTH",
"35 -31 OFFCURVE",
"-31 -151 OFFCURVE",
"-63 -191 CURVE SMOOTH",
"-70 -201 OFFCURVE",
"-112 -234 OFFCURVE",
"-135 -234 CURVE SMOOTH",
"-138 -234 OFFCURVE",
"-141 -233 OFFCURVE",
"-143 -232 CURVE SMOOTH",
"-157 -222 OFFCURVE",
"-165 -199 OFFCURVE",
"-165 -181 CURVE SMOOTH",
"-165 -177 OFFCURVE",
"-164 -174 OFFCURVE",
"-164 -171 CURVE SMOOTH",
"-160 -145 OFFCURVE",
"-151 -133 OFFCURVE",
"-151 -123 CURVE",
"-153 -119 OFFCURVE",
"-156 -116 OFFCURVE",
"-160 -116 CURVE SMOOTH",
"-166 -116 OFFCURVE",
"-173 -123 OFFCURVE",
"-180 -144 CURVE SMOOTH",
"-186 -164 OFFCURVE",
"-196 -190 OFFCURVE",
"-196 -214 CURVE SMOOTH",
"-196 -231 OFFCURVE",
"-191 -248 OFFCURVE",
"-175 -260 CURVE SMOOTH",
"-170 -264 OFFCURVE",
"-163 -266 OFFCURVE",
"-156 -266 CURVE SMOOTH",
"-120 -266 OFFCURVE",
"-62 -230 OFFCURVE",
"-38 -216 CURVE",
"36 -136 OFFCURVE",
"61 -58 OFFCURVE",
"95 103 CURVE SMOOTH",
"103 140 OFFCURVE",
"111 160 OFFCURVE",
"124 202 CURVE"
);
}
);
width = 155;
}
);
note = j;
unicode = 006A;
},
{
color = 11;
glyphname = jdotless;
lastChange = "2022-02-04 13:17:06 +0000";
layers = (
{
layerId = "5ED96FCC-ACEE-47D8-A1F6-56FBB5DDEA2A";
paths = (
{
closed = 1;
nodes = (
"189 213 OFFCURVE",
"176 232 OFFCURVE",
"160 232 CURVE SMOOTH",
"153 232 OFFCURVE",
"145 228 OFFCURVE",
"138 216 CURVE SMOOTH",
"116 178 OFFCURVE",
"111 156 OFFCURVE",
"107 104 CURVE SMOOTH",
"95 -31 OFFCURVE",
"29 -151 OFFCURVE",
"-3 -191 CURVE SMOOTH",
"-10 -201 OFFCURVE",
"-52 -234 OFFCURVE",
"-75 -234 CURVE SMOOTH",
"-78 -234 OFFCURVE",
"-81 -233 OFFCURVE",
"-83 -232 CURVE SMOOTH",
"-97 -222 OFFCURVE",
"-105 -199 OFFCURVE",
"-105 -181 CURVE SMOOTH",
"-105 -177 OFFCURVE",
"-104 -174 OFFCURVE",
"-104 -171 CURVE SMOOTH",
"-100 -145 OFFCURVE",
"-91 -133 OFFCURVE",
"-91 -123 CURVE",
"-93 -119 OFFCURVE",
"-96 -116 OFFCURVE",
"-100 -116 CURVE SMOOTH",
"-106 -116 OFFCURVE",
"-113 -123 OFFCURVE",
"-120 -144 CURVE SMOOTH",
"-126 -164 OFFCURVE",
"-136 -190 OFFCURVE",
"-136 -214 CURVE SMOOTH",
"-136 -231 OFFCURVE",
"-131 -248 OFFCURVE",
"-115 -260 CURVE SMOOTH",
"-110 -264 OFFCURVE",
"-103 -266 OFFCURVE",
"-96 -266 CURVE SMOOTH",
"-60 -266 OFFCURVE",
"-2 -230 OFFCURVE",
"22 -216 CURVE",
"96 -136 OFFCURVE",
"121 -58 OFFCURVE",
"155 103 CURVE SMOOTH",
"163 140 OFFCURVE",
"171 160 OFFCURVE",
"184 202 CURVE"
);
}
);
width = 195;
}
);
unicode = 0237;
},
{
glyphname = k;
lastChange = "2022-02-04 13:17:06 +0000";
layers = (
{
layerId = "5ED96FCC-ACEE-47D8-A1F6-56FBB5DDEA2A";
paths = (
{
closed = 1;
nodes = (
"366 632 OFFCURVE",
"370 651 OFFCURVE",
"370 666 CURVE SMOOTH",
"370 695 OFFCURVE",
"353 707 OFFCURVE",
"328 707 CURVE",
"268 692 OFFCURVE",
"195 548 OFFCURVE",
"184 527 CURVE SMOOTH",
"121 408 OFFCURVE",
"119 391 OFFCURVE",
"89 262 CURVE SMOOTH",
"76 204 OFFCURVE",
"74 205 OFFCURVE",
"56 158 CURVE SMOOTH",
"37 108 OFFCURVE",
"23 68 OFFCURVE",
"15 18 CURVE SMOOTH",
"13 8 OFFCURVE",
"23 3 OFFCURVE",
"33 3 CURVE SMOOTH",
"41 3 OFFCURVE",
"49 6 OFFCURVE",
"53 13 CURVE SMOOTH",
"69 44 OFFCURVE",
"98 85 OFFCURVE",
"108 120 CURVE SMOOTH",
"116 145 OFFCURVE",
"138 168 OFFCURVE",
"152 191 CURVE",
"151 177 OFFCURVE",
"149 164 OFFCURVE",
"149 148 CURVE SMOOTH",
"149 120 OFFCURVE",
"169 65 OFFCURVE",
"169 65 CURVE",
"178 32 OFFCURVE",
"207 -2 OFFCURVE",
"247 -2 CURVE SMOOTH",
"264 -2 OFFCURVE",
"284 5 OFFCURVE",
"305 20 CURVE SMOOTH",
"313 26 OFFCURVE",
"317 35 OFFCURVE",
"317 42 CURVE SMOOTH",
"317 48 OFFCURVE",
"314 52 OFFCURVE",
"309 52 CURVE SMOOTH",
"306 52 OFFCURVE",
"301 50 OFFCURVE",
"296 45 CURVE SMOOTH",
"283 33 OFFCURVE",
"266 28 OFFCURVE",
"250 28 CURVE SMOOTH",
"225 28 OFFCURVE",
"201 41 OFFCURVE",
"196 68 CURVE",
"196 68 OFFCURVE",
"198 169 OFFCURVE",
"202 187 CURVE",
"222 188 LINE SMOOTH",
"268 190 OFFCURVE",
"340 258 OFFCURVE",
"340 307 CURVE SMOOTH",
"340 329 OFFCURVE",
"323 360 OFFCURVE",
"300 360 CURVE SMOOTH",
"284 360 OFFCURVE",
"253 327 OFFCURVE",
"244 320 CURVE SMOOTH",
"218 301 OFFCURVE",
"204 278 OFFCURVE",
"189 267 CURVE",
"202 287 OFFCURVE",
"210 312 OFFCURVE",
"224 333 CURVE SMOOTH",
"325 489 OFFCURVE",
"301 489 OFFCURVE",
"355 608 CURVE SMOOTH"
);
},
{
closed = 1;
nodes = (
"341 679 OFFCURVE",
"346 675 OFFCURVE",
"346 666 CURVE SMOOTH",
"346 656 OFFCURVE",
"340 640 OFFCURVE",
"331 618 CURVE SMOOTH",
"278 498 OFFCURVE",
"259 462 OFFCURVE",
"198 333 CURVE SMOOTH",
"170 273 OFFCURVE",
"176 276 OFFCURVE",
"136 228 CURVE",
"142 247 OFFCURVE",
"139 249 OFFCURVE",
"145 278 CURVE SMOOTH",
"155 322 OFFCURVE",
"166 340 OFFCURVE",
"182 388 CURVE SMOOTH",
"209 471 OFFCURVE",
"190 437 OFFCURVE",
"229 511 CURVE SMOOTH",
"239 529 OFFCURVE",
"280 668 OFFCURVE",
"332 680 CURVE"
);
},
{
closed = 1;
nodes = (
"296 277 OFFCURVE",
"246 226 OFFCURVE",
"213 226 CURVE SMOOTH",
"204 226 OFFCURVE",
"195 228 OFFCURVE",
"187 231 CURVE",
"209 253 OFFCURVE",
"217 263 OFFCURVE",
"255 288 CURVE SMOOTH",
"262 293 OFFCURVE",
"291 311 OFFCURVE",
"301 311 CURVE SMOOTH",
"305 311 OFFCURVE",
"307 309 OFFCURVE",
"305 304 CURVE SMOOTH"
);
}
);
width = 324;
}
);
note = k;
unicode = 006B;
},
{
glyphname = kgreenlandic;
lastChange = "2022-02-04 13:17:06 +0000";
layers = (
{
layerId = "5ED96FCC-ACEE-47D8-A1F6-56FBB5DDEA2A";
paths = (
{
closed = 1;
nodes = (
"103 346 OFFCURVE",
"105 294 OFFCURVE",
"87 244 CURVE",
"79 245 OFFCURVE",
"68 245 OFFCURVE",
"62 240 CURVE SMOOTH",
"58 236 OFFCURVE",
"57 230 OFFCURVE",
"57 224 CURVE SMOOTH",
"57 212 OFFCURVE",
"62 198 OFFCURVE",
"62 198 CURVE",
"63 194 OFFCURVE",
"66 190 OFFCURVE",
"67 186 CURVE",
"57 160 OFFCURVE",
"50 134 OFFCURVE",
"42 107 CURVE SMOOTH",
"36 84 OFFCURVE",
"27 59 OFFCURVE",
"20 39 CURVE SMOOTH",
"-5 -25 OFFCURVE",
"-5 -25 OFFCURVE",
"-49 -70 CURVE SMOOTH",
"-52 -73 OFFCURVE",
"-53 -76 OFFCURVE",
"-53 -79 CURVE SMOOTH",
"-53 -89 OFFCURVE",
"-43 -99 OFFCURVE",
"-33 -99 CURVE SMOOTH",
"-28 -99 OFFCURVE",
"-23 -98 OFFCURVE",
"-19 -93 CURVE SMOOTH",
"27 -46 OFFCURVE",
"29 -44 OFFCURVE",
"54 23 CURVE SMOOTH",
"62 45 OFFCURVE",
"73 70 OFFCURVE",
"79 92 CURVE SMOOTH",
"83 110 OFFCURVE",
"88 132 OFFCURVE",
"94 153 CURVE",
"107 145 OFFCURVE",
"122 139 OFFCURVE",
"142 139 CURVE SMOOTH",
"152 139 OFFCURVE",
"162 141 OFFCURVE",
"173 145 CURVE",
"175 141 OFFCURVE",
"179 137 OFFCURVE",
"181 133 CURVE SMOOTH",
"218 91 OFFCURVE",
"259 22 OFFCURVE",
"303 -12 CURVE SMOOTH",
"331 -34 OFFCURVE",
"384 -87 OFFCURVE",
"432 -87 CURVE",
"436 -88 OFFCURVE",
"439 -88 OFFCURVE",
"442 -88 CURVE SMOOTH",
"451 -88 OFFCURVE",
"454 -85 OFFCURVE",
"454 -81 CURVE SMOOTH",
"454 -72 OFFCURVE",
"435 -57 OFFCURVE",
"418 -57 CURVE SMOOTH",
"373 -57 OFFCURVE",
"305 31 OFFCURVE",
"280 52 CURVE SMOOTH",
"249 77 OFFCURVE",
"232 126 OFFCURVE",
"204 167 CURVE",
"238 193 OFFCURVE",
"263 237 OFFCURVE",
"279 265 CURVE SMOOTH",
"297 295 OFFCURVE",
"310 321 OFFCURVE",
"324 345 CURVE",
"328 353 OFFCURVE",
"330 359 OFFCURVE",
"330 363 CURVE SMOOTH",
"330 371 OFFCURVE",
"325 374 OFFCURVE",
"319 374 CURVE SMOOTH",
"311 374 OFFCURVE",
"302 369 OFFCURVE",
"298 362 CURVE",
"285 336 OFFCURVE",
"272 310 OFFCURVE",
"257 284 CURVE SMOOTH",
"241 258 OFFCURVE",
"221 211 OFFCURVE",
"192 185 CURVE",
"187 190 OFFCURVE",
"185 194 OFFCURVE",
"179 198 CURVE",
"151 231 OFFCURVE",
"153 225 OFFCURVE",
"119 236 CURVE",
"119 237 OFFCURVE",
"121 238 OFFCURVE",
"121 239 CURVE",
"142 297 OFFCURVE",
"150 336 OFFCURVE",
"151 406 CURVE",
"151 419 OFFCURVE",
"142 428 OFFCURVE",
"131 428 CURVE SMOOTH",
"123 428 OFFCURVE",
"114 422 OFFCURVE",
"108 410 CURVE"
);
},
{
closed = 1;
nodes = (
"153 163 OFFCURVE",
"147 163 OFFCURVE",
"142 163 CURVE SMOOTH",
"125 163 OFFCURVE",
"111 168 OFFCURVE",
"101 178 CURVE",
"104 190 OFFCURVE",
"108 202 OFFCURVE",
"111 212 CURVE",
"135 202 OFFCURVE",
"147 184 OFFCURVE",
"159 165 CURVE"
);
}
);
width = 294;
}
);
unicode = 0138;
},
{
glyphname = l;
lastChange = "2022-02-04 13:17:06 +0000";
layers = (
{
layerId = "5ED96FCC-ACEE-47D8-A1F6-56FBB5DDEA2A";
paths = (
{
closed = 1;
nodes = (
"290 95 OFFCURVE",
"292 100 OFFCURVE",
"292 103 CURVE SMOOTH",
"292 107 OFFCURVE",
"290 110 OFFCURVE",
"287 110 CURVE SMOOTH",
"283 110 OFFCURVE",
"277 106 OFFCURVE",
"268 93 CURVE SMOOTH",
"248 63 OFFCURVE",
"193 28 OFFCURVE",
"148 15 CURVE SMOOTH",
"142 13 OFFCURVE",
"135 12 OFFCURVE",
"128 12 CURVE SMOOTH",
"111 12 OFFCURVE",
"93 18 OFFCURVE",
"78 33 CURVE SMOOTH",
"72 40 OFFCURVE",
"69 65 OFFCURVE",
"69 89 CURVE SMOOTH",
"69 101 OFFCURVE",
"69 113 OFFCURVE",
"71 122 CURVE SMOOTH",
"77 147 OFFCURVE",
"91 146 OFFCURVE",
"133 228 CURVE SMOOTH",
"167 293 OFFCURVE",
"203 379 OFFCURVE",
"215 451 CURVE SMOOTH",
"227 515 OFFCURVE",
"228 604 OFFCURVE",
"228 604 CURVE",
"229 617 OFFCURVE",
"218 629 OFFCURVE",
"206 629 CURVE SMOOTH",
"200 629 OFFCURVE",
"193 626 OFFCURVE",
"188 618 CURVE",
"132 564 OFFCURVE",
"110 489 OFFCURVE",
"86 413 CURVE SMOOTH",
"50 293 OFFCURVE",
"32 168 OFFCURVE",
"32 98 CURVE SMOOTH",
"32 28 OFFCURVE",
"51 -15 OFFCURVE",
"120 -15 CURVE SMOOTH",
"192 -15 OFFCURVE",
"272 53 OFFCURVE",
"288 90 CURVE SMOOTH"
);
},
{
closed = 1;
nodes = (
"200 560 OFFCURVE",
"201 552 OFFCURVE",
"201 540 CURVE SMOOTH",
"201 508 OFFCURVE",
"192 446 OFFCURVE",
"175 398 CURVE SMOOTH",
"156 338 OFFCURVE",
"119 271 OFFCURVE",
"77 184 CURVE",
"85 248 OFFCURVE",
"107 344 OFFCURVE",
"121 393 CURVE SMOOTH",
"152 498 OFFCURVE",
"183 564 OFFCURVE",
"197 562 CURVE"
);
}
);
width = 245;
}
);
note = l;
unicode = 006C;
},
{
glyphname = m;
lastChange = "2022-02-04 13:17:06 +0000";
layers = (
{
layerId = "5ED96FCC-ACEE-47D8-A1F6-56FBB5DDEA2A";
paths = (
{
closed = 1;
nodes = (
"336 55 OFFCURVE",
"337 60 OFFCURVE",
"337 64 CURVE SMOOTH",
"337 68 OFFCURVE",
"336 70 OFFCURVE",
"334 70 CURVE SMOOTH",
"333 70 OFFCURVE",
"331 69 OFFCURVE",
"329 67 CURVE SMOOTH",
"317 54 OFFCURVE",
"308 48 OFFCURVE",
"300 48 CURVE SMOOTH",
"297 48 OFFCURVE",
"294 49 OFFCURVE",
"292 51 CURVE SMOOTH",
"279 60 OFFCURVE",
"277 82 OFFCURVE",
"277 100 CURVE SMOOTH",
"277 110 OFFCURVE",
"277 119 OFFCURVE",
"278 125 CURVE SMOOTH",
"282 151 OFFCURVE",
"285 178 OFFCURVE",
"285 195 CURVE SMOOTH",
"285 207 OFFCURVE",
"268 216 OFFCURVE",
"262 216 CURVE SMOOTH",
"243 218 OFFCURVE",
"233 203 OFFCURVE",
"231 204 CURVE SMOOTH",
"228 205 OFFCURVE",
"229 236 OFFCURVE",
"220 248 CURVE SMOOTH",
"217 253 OFFCURVE",
"209 257 OFFCURVE",
"200 257 CURVE SMOOTH",
"195 257 OFFCURVE",
"189 256 OFFCURVE",
"183 253 CURVE",
"156 235 OFFCURVE",
"138 212 OFFCURVE",
"116 193 CURVE",
"113 222 OFFCURVE",
"96 243 OFFCURVE",
"83 243 CURVE SMOOTH",
"37 242 OFFCURVE",
"8 144 OFFCURVE",
"-15 120 CURVE",
"-20 113 OFFCURVE",
"-21 106 OFFCURVE",
"-21 101 CURVE SMOOTH",
"-21 97 OFFCURVE",
"-20 94 OFFCURVE",
"-18 95 CURVE SMOOTH",
"-5 100 OFFCURVE",
"12 147 OFFCURVE",
"51 180 CURVE",
"55 182 OFFCURVE",
"59 183 OFFCURVE",
"62 183 CURVE SMOOTH",
"69 183 OFFCURVE",
"75 178 OFFCURVE",
"75 169 CURVE SMOOTH",
"75 168 OFFCURVE",
"75 168 OFFCURVE",
"75 167 CURVE SMOOTH",
"73 156 OFFCURVE",
"71 131 OFFCURVE",
"67 115 CURVE SMOOTH",
"56 68 OFFCURVE",
"47 36 OFFCURVE",
"44 12 CURVE",
"44 4 OFFCURVE",
"56 -3 OFFCURVE",
"66 -3 CURVE SMOOTH",
"71 -3 OFFCURVE",
"76 -1 OFFCURVE",
"78 3 CURVE SMOOTH",
"94 32 OFFCURVE",
"90 94 OFFCURVE",
"116 148 CURVE SMOOTH",
"131 178 OFFCURVE",
"171 224 OFFCURVE",
"184 222 CURVE SMOOTH",
"197 220 OFFCURVE",
"199 209 OFFCURVE",
"199 199 CURVE SMOOTH",
"199 193 OFFCURVE",
"198 188 OFFCURVE",
"198 185 CURVE",
"198 185 OFFCURVE",
"188 136 OFFCURVE",
"178 109 CURVE",
"178 109 OFFCURVE",
"170 83 OFFCURVE",
"170 65 CURVE SMOOTH",
"170 55 OFFCURVE",
"172 48 OFFCURVE",
"179 48 CURVE SMOOTH",
"194 48 OFFCURVE",
"200 73 OFFCURVE",
"215 107 CURVE SMOOTH",
"221 122 OFFCURVE",
"232 158 OFFCURVE",
"244 173 CURVE",
"254 176 OFFCURVE",
"257 170 OFFCURVE",
"257 160 CURVE SMOOTH",
"257 150 OFFCURVE",
"254 136 OFFCURVE",
"251 122 CURVE SMOOTH",
"248 108 OFFCURVE",
"247 93 OFFCURVE",
"247 78 CURVE SMOOTH",
"247 42 OFFCURVE",
"255 9 OFFCURVE",
"276 12 CURVE SMOOTH",
"307 16 OFFCURVE",
"329 44 OFFCURVE",
"333 52 CURVE"
);
}
);
width = 327;
}
);
note = m;
unicode = 006D;
},
{
glyphname = n;
lastChange = "2022-02-04 13:17:06 +0000";
layers = (
{
layerId = "5ED96FCC-ACEE-47D8-A1F6-56FBB5DDEA2A";
paths = (
{
closed = 1;
nodes = (
"206 232 OFFCURVE",
"182 253 OFFCURVE",
"154 253 CURVE SMOOTH",
"145 253 OFFCURVE",
"135 251 OFFCURVE",
"126 247 CURVE SMOOTH",
"122 245 OFFCURVE",
"133 276 OFFCURVE",
"112 276 CURVE SMOOTH",
"109 276 OFFCURVE",
"105 276 OFFCURVE",
"100 274 CURVE",
"87 277 OFFCURVE",
"61 254 OFFCURVE",
"55 244 CURVE SMOOTH",
"34 209 OFFCURVE",
"27 189 OFFCURVE",
"27 178 CURVE SMOOTH",
"27 168 OFFCURVE",
"33 166 OFFCURVE",
"42 166 CURVE SMOOTH",
"48 166 OFFCURVE",
"55 167 OFFCURVE",
"62 167 CURVE",
"62 167 OFFCURVE",
"39 62 OFFCURVE",
"34 40 CURVE SMOOTH",
"31 29 OFFCURVE",
"25 15 OFFCURVE",
"25 6 CURVE SMOOTH",
"25 1 OFFCURVE",
"27 -2 OFFCURVE",
"30 -4 CURVE SMOOTH",
"33 -5 OFFCURVE",
"38 -8 OFFCURVE",
"43 -8 CURVE SMOOTH",
"49 -8 OFFCURVE",
"56 -5 OFFCURVE",
"60 5 CURVE SMOOTH",
"68 26 OFFCURVE",
"76 156 OFFCURVE",
"105 198 CURVE SMOOTH",
"111 207 OFFCURVE",
"114 211 OFFCURVE",
"126 211 CURVE SMOOTH",
"149 211 OFFCURVE",
"150 196 OFFCURVE",
"152 172 CURVE SMOOTH",
"154 120 OFFCURVE",
"145 105 OFFCURVE",
"145 39 CURVE SMOOTH",
"145 12 OFFCURVE",
"157 -16 OFFCURVE",
"187 -16 CURVE SMOOTH",
"195 -16 OFFCURVE",
"208 -3 OFFCURVE",
"208 4 CURVE SMOOTH",
"208 6 OFFCURVE",
"206 8 OFFCURVE",
"202 8 CURVE SMOOTH",
"184 8 OFFCURVE",
"169 19 OFFCURVE",
"169 37 CURVE SMOOTH",
"169 146 OFFCURVE",
"206 107 OFFCURVE",
"206 182 CURVE SMOOTH"
);
}
);
width = 264;
}
);
note = n;
unicode = 006E;
},
{
color = 3;
glyphname = eng;
lastChange = "2022-02-04 13:17:06 +0000";
layers = (
{
layerId = "5ED96FCC-ACEE-47D8-A1F6-56FBB5DDEA2A";
paths = (
{
closed = 1;
nodes = (
"220 232 OFFCURVE",
"200 253 OFFCURVE",
"173 253 CURVE SMOOTH",
"165 253 OFFCURVE",
"155 251 OFFCURVE",
"146 247 CURVE SMOOTH",
"142 245 OFFCURVE",
"153 276 OFFCURVE",
"132 276 CURVE SMOOTH",
"129 276 OFFCURVE",
"125 276 OFFCURVE",
"120 274 CURVE",
"107 277 OFFCURVE",
"81 254 OFFCURVE",
"75 244 CURVE SMOOTH",
"54 209 OFFCURVE",
"47 189 OFFCURVE",
"47 178 CURVE SMOOTH",
"47 168 OFFCURVE",
"53 166 OFFCURVE",
"62 166 CURVE SMOOTH",
"68 166 OFFCURVE",
"75 167 OFFCURVE",
"82 167 CURVE",
"54 40 LINE SMOOTH",
"51 29 OFFCURVE",
"45 15 OFFCURVE",
"45 6 CURVE SMOOTH",
"45 1 OFFCURVE",
"47 -2 OFFCURVE",
"50 -4 CURVE SMOOTH",
"53 -5 OFFCURVE",
"58 -8 OFFCURVE",
"63 -8 CURVE SMOOTH",
"69 -8 OFFCURVE",
"76 -5 OFFCURVE",
"80 5 CURVE SMOOTH",
"88 26 OFFCURVE",
"96 156 OFFCURVE",
"125 198 CURVE SMOOTH",
"131 207 OFFCURVE",
"134 211 OFFCURVE",
"146 211 CURVE SMOOTH",
"169 211 OFFCURVE",
"170 206 OFFCURVE",
"172 182 CURVE SMOOTH",
"174 143 OFFCURVE",
"165 119 OFFCURVE",
"165 68 CURVE SMOOTH",
"165 52 OFFCURVE",
"166 33 OFFCURVE",
"168 10 CURVE SMOOTH",
"175 -61 OFFCURVE",
"136 -123 OFFCURVE",
"97 -192 CURVE SMOOTH",
"91 -204 OFFCURVE",
"44 -254 OFFCURVE",
"25 -245 CURVE SMOOTH",
"6 -236 OFFCURVE",
"-5 -208 OFFCURVE",
"-6 -188 CURVE SMOOTH",
"-6 -162 OFFCURVE",
"1 -148 OFFCURVE",
"0 -139 CURVE",
"-2 -135 OFFCURVE",
"-6 -133 OFFCURVE",
"-9 -133 CURVE SMOOTH",
"-15 -133 OFFCURVE",
"-22 -141 OFFCURVE",
"-26 -164 CURVE SMOOTH",
"-28 -180 OFFCURVE",
"-32 -200 OFFCURVE",
"-32 -219 CURVE SMOOTH",
"-32 -243 OFFCURVE",
"-26 -265 OFFCURVE",
"-3 -278 CURVE SMOOTH",
"1 -280 OFFCURVE",
"5 -281 OFFCURVE",
"10 -281 CURVE SMOOTH",
"45 -281 OFFCURVE",
"103 -231 OFFCURVE",
"126 -213 CURVE",
"170 -147 OFFCURVE",
"189 -86 OFFCURVE",
"192 10 CURVE SMOOTH",
"196 139 OFFCURVE",
"220 114 OFFCURVE",
"220 182 CURVE SMOOTH"
);
}
);
width = 254;
}
);
unicode = 014B;
},
{
glyphname = o;
lastChange = "2022-02-04 13:17:06 +0000";
layers = (
{
layerId = "5ED96FCC-ACEE-47D8-A1F6-56FBB5DDEA2A";
paths = (
{
closed = 1;
nodes = (
"233 230 OFFCURVE",
"209 268 OFFCURVE",
"160 268 CURVE SMOOTH",
"140 268 OFFCURVE",
"58 248 OFFCURVE",
"20 176 CURVE SMOOTH",
"15 166 OFFCURVE",
"13 157 OFFCURVE",
"13 147 CURVE SMOOTH",
"13 130 OFFCURVE",
"20 114 OFFCURVE",
"31 101 CURVE",
"27 86 OFFCURVE",
"25 70 OFFCURVE",
"25 55 CURVE SMOOTH",
"25 9 OFFCURVE",
"52 8 OFFCURVE",
"60 0 CURVE SMOOTH",
"66 -6 OFFCURVE",
"79 -11 OFFCURVE",
"91 -11 CURVE SMOOTH",
"97 -11 OFFCURVE",
"103 -9 OFFCURVE",
"109 -7 CURVE SMOOTH",
"129 2 OFFCURVE",
"171 7 OFFCURVE",
"200 69 CURVE SMOOTH",
"220 109 OFFCURVE",
"233 160 OFFCURVE",
"233 188 CURVE SMOOTH"
);
},
{
closed = 1;
nodes = (
"192 156 OFFCURVE",
"173 98 OFFCURVE",
"156 67 CURVE SMOOTH",
"140 39 OFFCURVE",
"117 22 OFFCURVE",
"99 22 CURVE SMOOTH",
"95 22 OFFCURVE",
"92 23 OFFCURVE",
"89 24 CURVE SMOOTH",
"76 30 OFFCURVE",
"49 38 OFFCURVE",
"49 76 CURVE SMOOTH",
"49 80 OFFCURVE",
"49 83 OFFCURVE",
"50 85 CURVE",
"57 80 OFFCURVE",
"66 78 OFFCURVE",
"76 78 CURVE SMOOTH",
"97 78 OFFCURVE",
"164 87 OFFCURVE",
"164 124 CURVE SMOOTH",
"164 132 OFFCURVE",
"161 142 OFFCURVE",
"153 153 CURVE",
"145 162 OFFCURVE",
"138 166 OFFCURVE",
"131 166 CURVE SMOOTH",
"127 166 OFFCURVE",
"122 164 OFFCURVE",
"118 160 CURVE SMOOTH",
"115 157 OFFCURVE",
"111 153 OFFCURVE",
"111 149 CURVE SMOOTH",
"111 146 OFFCURVE",
"114 144 OFFCURVE",
"122 144 CURVE SMOOTH",
"122 144 OFFCURVE",
"123 144 OFFCURVE",
"124 144 CURVE SMOOTH",
"135 145 OFFCURVE",
"149 143 OFFCURVE",
"149 130 CURVE SMOOTH",
"149 127 OFFCURVE",
"148 124 OFFCURVE",
"147 120 CURVE SMOOTH",
"142 106 OFFCURVE",
"123 99 OFFCURVE",
"104 99 CURVE SMOOTH",
"86 99 OFFCURVE",
"67 105 OFFCURVE",
"56 118 CURVE",
"73 166 OFFCURVE",
"112 191 OFFCURVE",
"112 200 CURVE SMOOTH",
"112 204 OFFCURVE",
"107 206 OFFCURVE",
"101 206 CURVE SMOOTH",
"97 206 OFFCURVE",
"92 205 OFFCURVE",
"88 202 CURVE SMOOTH",
"80 196 OFFCURVE",
"61 174 OFFCURVE",
"46 142 CURVE",
"46 148 OFFCURVE",
"46 155 OFFCURVE",
"48 163 CURVE SMOOTH",
"56 195 OFFCURVE",
"99 236 OFFCURVE",
"138 236 CURVE SMOOTH",
"168 236 OFFCURVE",
"192 213 OFFCURVE",
"192 183 CURVE SMOOTH"
);
}
);
width = 242;
}
);
note = o;
unicode = 006F;
},
{
glyphname = oslash;
lastChange = "2022-02-04 13:17:06 +0000";
layers = (
{
layerId = "5ED96FCC-ACEE-47D8-A1F6-56FBB5DDEA2A";
paths = (
{
closed = 1;
nodes = (
"167 190 OFFCURVE",
"226 159 OFFCURVE",
"226 133 CURVE SMOOTH",
"226 90 OFFCURVE",
"199 56 OFFCURVE",
"154 56 CURVE SMOOTH",
"132 56 OFFCURVE",
"112 63 OFFCURVE",
"94 74 CURVE",
"111 115 OFFCURVE",
"133 161 OFFCURVE",
"154 203 CURVE"
);
},
{
closed = 1;
nodes = (
"51 109 OFFCURVE",
"33 145 OFFCURVE",
"33 182 CURVE SMOOTH",
"33 191 OFFCURVE",
"34 199 OFFCURVE",
"35 207 CURVE SMOOTH",
"43 243 OFFCURVE",
"103 251 OFFCURVE",
"133 251 CURVE SMOOTH",
"138 251 OFFCURVE",
"144 251 OFFCURVE",
"150 250 CURVE",
"126 201 OFFCURVE",
"99 140 OFFCURVE",
"78 85 CURVE"
);
},
{
closed = 1;
nodes = (
"56 -31 OFFCURVE",
"64 -3 OFFCURVE",
"77 33 CURVE",
"95 20 OFFCURVE",
"116 14 OFFCURVE",
"139 14 CURVE SMOOTH",
"204 14 OFFCURVE",
"254 65 OFFCURVE",
"254 130 CURVE SMOOTH",
"254 185 OFFCURVE",
"209 210 OFFCURVE",
"159 209 CURVE SMOOTH",
"158 209 LINE",
"164 221 OFFCURVE",
"169 232 OFFCURVE",
"175 243 CURVE",
"185 240 OFFCURVE",
"198 235 OFFCURVE",
"202 235 CURVE SMOOTH",
"208 235 OFFCURVE",
"211 239 OFFCURVE",
"211 244 CURVE SMOOTH",
"211 256 OFFCURVE",
"202 264 OFFCURVE",
"189 269 CURVE",
"205 298 OFFCURVE",
"218 321 OFFCURVE",
"226 334 CURVE",
"226 334 OFFCURVE",
"226 335 OFFCURVE",
"226 336 CURVE SMOOTH",
"225 341 OFFCURVE",
"216 342 OFFCURVE",
"210 342 CURVE SMOOTH",
"208 342 OFFCURVE",
"207 342 OFFCURVE",
"206 342 CURVE SMOOTH",
"204 341 OFFCURVE",
"201 340 OFFCURVE",
"199 338 CURVE SMOOTH",
"191 327 OFFCURVE",
"178 305 OFFCURVE",
"164 277 CURVE",
"149 280 OFFCURVE",
"134 280 OFFCURVE",
"126 280 CURVE SMOOTH",
"54 280 OFFCURVE",
"5 250 OFFCURVE",
"5 173 CURVE SMOOTH",
"5 125 OFFCURVE",
"30 79 OFFCURVE",
"63 46 CURVE SMOOTH",
"64 45 LINE",
"50 3 OFFCURVE",
"42 -32 OFFCURVE",
"45 -48 CURVE SMOOTH",
"47 -55 OFFCURVE",
"55 -67 OFFCURVE",
"64 -67 CURVE SMOOTH",
"65 -67 OFFCURVE",
"65 -67 OFFCURVE",
"66 -67 CURVE SMOOTH",
"68 -67 OFFCURVE",
"68 -65 OFFCURVE",
"68 -63 CURVE",
"66 -56 OFFCURVE",
"60 -51 OFFCURVE",
"59 -45 CURVE SMOOTH"
);
}
);
width = 258;
}
);
note = oslash;
unicode = 00F8;
},
{
glyphname = oe;
lastChange = "2022-02-04 13:17:06 +0000";
layers = (
{
layerId = "5ED96FCC-ACEE-47D8-A1F6-56FBB5DDEA2A";
paths = (
{
closed = 1;
nodes = (
"387 87 OFFCURVE",
"349 38 OFFCURVE",
"318 38 CURVE SMOOTH",
"262 38 OFFCURVE",
"236 62 OFFCURVE",
"236 84 CURVE SMOOTH",
"236 92 OFFCURVE",
"245 96 OFFCURVE",
"262 122 CURVE SMOOTH",
"269 133 OFFCURVE",
"280 152 OFFCURVE",
"289 172 CURVE SMOOTH",
"300 196 OFFCURVE",
"306 220 OFFCURVE",
"306 241 CURVE SMOOTH",
"306 269 OFFCURVE",
"296 288 OFFCURVE",
"279 285 CURVE SMOOTH",
"254 280 OFFCURVE",
"233 263 OFFCURVE",
"218 239 CURVE",
"206 256 OFFCURVE",
"187 268 OFFCURVE",
"160 268 CURVE SMOOTH",
"140 268 OFFCURVE",
"58 248 OFFCURVE",
"20 176 CURVE SMOOTH",
"15 166 OFFCURVE",
"13 157 OFFCURVE",
"13 147 CURVE SMOOTH",
"13 130 OFFCURVE",
"20 114 OFFCURVE",
"31 101 CURVE",
"27 86 OFFCURVE",
"25 70 OFFCURVE",
"25 55 CURVE SMOOTH",
"25 9 OFFCURVE",
"52 8 OFFCURVE",
"60 0 CURVE SMOOTH",
"66 -6 OFFCURVE",
"79 -11 OFFCURVE",
"91 -11 CURVE SMOOTH",
"97 -11 OFFCURVE",
"103 -9 OFFCURVE",
"109 -7 CURVE SMOOTH",
"129 2 OFFCURVE",
"171 7 OFFCURVE",
"200 69 CURVE",
"200 70 OFFCURVE",
"201 70 OFFCURVE",
"201 71 CURVE",
"209 54 OFFCURVE",
"221 38 OFFCURVE",
"237 27 CURVE SMOOTH",
"252 17 OFFCURVE",
"272 13 OFFCURVE",
"314 13 CURVE SMOOTH",
"351 13 OFFCURVE",
"402 77 OFFCURVE",
"429 122 CURVE SMOOTH",
"430 124 OFFCURVE",
"431 127 OFFCURVE",
"431 130 CURVE SMOOTH",
"431 135 OFFCURVE",
"429 139 OFFCURVE",
"425 139 CURVE SMOOTH",
"422 139 OFFCURVE",
"418 136 OFFCURVE",
"414 129 CURVE SMOOTH"
);
},
{
closed = 1;
nodes = (
"253 247 OFFCURVE",
"273 256 OFFCURVE",
"279 248 CURVE SMOOTH",
"281 246 OFFCURVE",
"282 243 OFFCURVE",
"282 239 CURVE SMOOTH",
"282 227 OFFCURVE",
"273 208 OFFCURVE",
"271 198 CURVE SMOOTH",
"265 176 OFFCURVE",
"257 162 OFFCURVE",
"235 124 CURVE",
"234 134 OFFCURVE",
"233 145 OFFCURVE",
"233 156 CURVE SMOOTH",
"233 174 OFFCURVE",
"235 191 OFFCURVE",
"240 207 CURVE SMOOTH"
);
},
{
closed = 1;
nodes = (
"140 39 OFFCURVE",
"117 22 OFFCURVE",
"99 22 CURVE SMOOTH",
"95 22 OFFCURVE",
"92 23 OFFCURVE",
"89 24 CURVE SMOOTH",
"76 30 OFFCURVE",
"49 38 OFFCURVE",
"49 76 CURVE SMOOTH",
"49 80 OFFCURVE",
"49 83 OFFCURVE",
"50 85 CURVE",
"57 80 OFFCURVE",
"66 78 OFFCURVE",
"76 78 CURVE SMOOTH",
"97 78 OFFCURVE",
"164 87 OFFCURVE",
"164 124 CURVE SMOOTH",
"164 132 OFFCURVE",
"161 142 OFFCURVE",
"153 153 CURVE",
"145 162 OFFCURVE",
"138 166 OFFCURVE",
"131 166 CURVE SMOOTH",
"127 166 OFFCURVE",
"122 164 OFFCURVE",
"118 160 CURVE SMOOTH",
"115 157 OFFCURVE",
"111 153 OFFCURVE",
"111 149 CURVE SMOOTH",
"111 146 OFFCURVE",
"114 144 OFFCURVE",
"122 144 CURVE SMOOTH",
"122 144 OFFCURVE",
"123 144 OFFCURVE",
"124 144 CURVE SMOOTH",
"135 145 OFFCURVE",
"149 143 OFFCURVE",
"149 130 CURVE SMOOTH",
"149 127 OFFCURVE",
"148 124 OFFCURVE",
"147 120 CURVE SMOOTH",
"142 106 OFFCURVE",
"123 99 OFFCURVE",
"104 99 CURVE SMOOTH",
"86 99 OFFCURVE",
"67 105 OFFCURVE",
"56 118 CURVE",
"73 166 OFFCURVE",
"112 191 OFFCURVE",
"112 200 CURVE SMOOTH",
"112 204 OFFCURVE",
"107 206 OFFCURVE",
"101 206 CURVE SMOOTH",
"97 206 OFFCURVE",
"92 205 OFFCURVE",
"88 202 CURVE SMOOTH",
"80 196 OFFCURVE",
"61 174 OFFCURVE",
"46 142 CURVE",
"46 148 OFFCURVE",
"46 155 OFFCURVE",
"48 163 CURVE SMOOTH",
"56 195 OFFCURVE",
"99 236 OFFCURVE",
"138 236 CURVE SMOOTH",
"168 236 OFFCURVE",
"192 213 OFFCURVE",
"192 183 CURVE SMOOTH",
"192 156 OFFCURVE",
"173 98 OFFCURVE",
"156 67 CURVE SMOOTH"
);
}
);
width = 366;
}
);
note = oe;
unicode = 0153;
},
{
glyphname = p;
lastChange = "2022-02-04 13:17:06 +0000";
layers = (
{
layerId = "5ED96FCC-ACEE-47D8-A1F6-56FBB5DDEA2A";
paths = (
{
closed = 1;
nodes = (
"334 87 OFFCURVE",
"337 95 OFFCURVE",
"337 100 CURVE SMOOTH",
"337 105 OFFCURVE",
"334 108 OFFCURVE",
"331 108 CURVE SMOOTH",
"329 108 OFFCURVE",
"326 106 OFFCURVE",
"323 102 CURVE SMOOTH",
"286 53 OFFCURVE",
"251 34 OFFCURVE",
"218 34 CURVE SMOOTH",
"205 34 OFFCURVE",
"193 37 OFFCURVE",
"181 42 CURVE",
"240 78 OFFCURVE",
"249 156 OFFCURVE",
"249 176 CURVE SMOOTH",
"249 216 OFFCURVE",
"232 238 OFFCURVE",
"213 249 CURVE SMOOTH",
"196 260 OFFCURVE",
"164 255 OFFCURVE",
"147 263 CURVE SMOOTH",
"144 265 OFFCURVE",
"144 268 OFFCURVE",
"144 272 CURVE SMOOTH",
"144 275 OFFCURVE",
"144 278 OFFCURVE",
"144 281 CURVE SMOOTH",
"144 284 OFFCURVE",
"144 287 OFFCURVE",
"143 289 CURVE SMOOTH",
"140 295 OFFCURVE",
"133 298 OFFCURVE",
"124 298 CURVE SMOOTH",
"120 298 OFFCURVE",
"115 297 OFFCURVE",
"111 296 CURVE",
"78 273 OFFCURVE",
"78 157 OFFCURVE",
"74 104 CURVE",
"59 108 OFFCURVE",
"26 93 OFFCURVE",
"26 69 CURVE SMOOTH",
"26 61 OFFCURVE",
"32 60 OFFCURVE",
"33 49 CURVE",
"25 28 OFFCURVE",
"19 9 OFFCURVE",
"15 -4 CURVE SMOOTH",
"-9 -82 OFFCURVE",
"-11 -63 OFFCURVE",
"-44 -171 CURVE SMOOTH",
"-51 -195 OFFCURVE",
"-57 -226 OFFCURVE",
"-57 -253 CURVE SMOOTH",
"-57 -283 OFFCURVE",
"-50 -307 OFFCURVE",
"-30 -304 CURVE SMOOTH",
"26 -296 OFFCURVE",
"61 -222 OFFCURVE",
"83 -118 CURVE SMOOTH",
"98 -44 OFFCURVE",
"98 -12 OFFCURVE",
"102 15 CURVE",
"115 5 OFFCURVE",
"147 0 OFFCURVE",
"181 0 CURVE SMOOTH",
"236 0 OFFCURVE",
"271 5 OFFCURVE",
"327 77 CURVE SMOOTH"
);
},
{
closed = 1;
nodes = (
"218 182 OFFCURVE",
"219 155 OFFCURVE",
"211 131 CURVE SMOOTH",
"202 104 OFFCURVE",
"178 64 OFFCURVE",
"158 64 CURVE SMOOTH",
"152 64 OFFCURVE",
"138 73 OFFCURVE",
"124 85 CURVE SMOOTH",
"118 91 OFFCURVE",
"113 92 OFFCURVE",
"110 92 CURVE SMOOTH",
"107 92 OFFCURVE",
"105 90 OFFCURVE",
"103 90 CURVE SMOOTH",
"103 90 OFFCURVE",
"102 90 OFFCURVE",
"101 91 CURVE",
"113 168 OFFCURVE",
"120 238 OFFCURVE",
"165 238 CURVE SMOOTH",
"189 238 OFFCURVE",
"218 213 OFFCURVE",
"218 189 CURVE SMOOTH"
);
},
{
closed = 1;
nodes = (
"151 47 OFFCURVE",
"129 36 OFFCURVE",
"113 40 CURVE SMOOTH",
"107 42 OFFCURVE",
"105 49 OFFCURVE",
"105 55 CURVE SMOOTH",
"105 61 OFFCURVE",
"107 63 OFFCURVE",
"110 63 CURVE SMOOTH",
"112 63 OFFCURVE",
"114 63 OFFCURVE",
"116 62 CURVE",
"131 53 OFFCURVE",
"151 47 OFFCURVE",
"151 47 CURVE"
);
},
{
closed = 1;
nodes = (
"71 25 OFFCURVE",
"64 -24 OFFCURVE",
"56 -64 CURVE SMOOTH",
"44 -122 OFFCURVE",
"59 -150 OFFCURVE",
"7 -230 CURVE SMOOTH",
"0 -242 OFFCURVE",
"-11 -256 OFFCURVE",
"-17 -256 CURVE SMOOTH",
"-20 -256 OFFCURVE",
"-22 -252 OFFCURVE",
"-22 -243 CURVE SMOOTH",
"-22 -238 OFFCURVE",
"-22 -231 OFFCURVE",
"-20 -221 CURVE SMOOTH",
"-2 -120 OFFCURVE",
"25 -63 OFFCURVE",
"53 35 CURVE",
"58 32 OFFCURVE",
"65 31 OFFCURVE",
"68 28 CURVE SMOOTH"
);
}
);
width = 292;
}
);
note = p;
unicode = 0070;
},
{
glyphname = thorn;
lastChange = "2022-02-04 13:17:06 +0000";
layers = (
{
layerId = "5ED96FCC-ACEE-47D8-A1F6-56FBB5DDEA2A";
paths = (
{
closed = 1;
nodes = (
"286 53 OFFCURVE",
"251 34 OFFCURVE",
"218 34 CURVE SMOOTH",
"205 34 OFFCURVE",
"193 37 OFFCURVE",
"181 42 CURVE",
"240 78 OFFCURVE",
"249 156 OFFCURVE",
"249 176 CURVE SMOOTH",
"249 216 OFFCURVE",
"232 238 OFFCURVE",
"213 249 CURVE SMOOTH",
"196 260 OFFCURVE",
"164 255 OFFCURVE",
"147 263 CURVE SMOOTH",
"144 265 OFFCURVE",
"141 265 OFFCURVE",
"138 265 CURVE SMOOTH",
"133 265 OFFCURVE",
"128 265 OFFCURVE",
"126 270 CURVE",
"117 290 OFFCURVE",
"115 380 OFFCURVE",
"107 446 CURVE SMOOTH",
"104 471 OFFCURVE",
"103 499 OFFCURVE",
"96 522 CURVE SMOOTH",
"93 533 OFFCURVE",
"88 538 OFFCURVE",
"76 538 CURVE SMOOTH",
"62 538 OFFCURVE",
"44 527 OFFCURVE",
"44 511 CURVE SMOOTH",
"44 509 OFFCURVE",
"44 507 OFFCURVE",
"45 505 CURVE SMOOTH",
"69 427 OFFCURVE",
"84 341 OFFCURVE",
"90 258 CURVE",
"78 213 OFFCURVE",
"77 142 OFFCURVE",
"74 104 CURVE",
"59 108 OFFCURVE",
"26 93 OFFCURVE",
"26 69 CURVE SMOOTH",
"26 61 OFFCURVE",
"32 60 OFFCURVE",
"33 49 CURVE",
"25 28 OFFCURVE",
"19 9 OFFCURVE",
"15 -4 CURVE SMOOTH",
"-9 -82 OFFCURVE",
"-11 -63 OFFCURVE",
"-44 -171 CURVE SMOOTH",
"-51 -195 OFFCURVE",
"-57 -226 OFFCURVE",
"-57 -253 CURVE SMOOTH",
"-57 -283 OFFCURVE",
"-50 -307 OFFCURVE",
"-30 -304 CURVE SMOOTH",
"26 -296 OFFCURVE",
"61 -222 OFFCURVE",
"83 -118 CURVE SMOOTH",
"98 -44 OFFCURVE",
"98 -12 OFFCURVE",
"102 15 CURVE",
"115 5 OFFCURVE",
"147 0 OFFCURVE",
"181 0 CURVE SMOOTH",
"236 0 OFFCURVE",
"271 5 OFFCURVE",
"327 77 CURVE SMOOTH",
"334 87 OFFCURVE",
"337 95 OFFCURVE",
"337 100 CURVE SMOOTH",
"337 105 OFFCURVE",
"334 108 OFFCURVE",
"331 108 CURVE SMOOTH",
"329 108 OFFCURVE",
"326 106 OFFCURVE",
"323 102 CURVE SMOOTH"
);
},
{
closed = 1;
nodes = (
"152 64 OFFCURVE",
"138 73 OFFCURVE",
"124 85 CURVE SMOOTH",
"118 91 OFFCURVE",
"113 92 OFFCURVE",
"110 92 CURVE SMOOTH",
"107 92 OFFCURVE",
"105 90 OFFCURVE",
"103 90 CURVE SMOOTH",
"103 90 OFFCURVE",
"102 90 OFFCURVE",
"101 91 CURVE",
"113 168 OFFCURVE",
"120 238 OFFCURVE",
"165 238 CURVE SMOOTH",
"189 238 OFFCURVE",
"218 213 OFFCURVE",
"218 189 CURVE SMOOTH",
"218 182 OFFCURVE",
"219 155 OFFCURVE",
"211 131 CURVE SMOOTH",
"202 104 OFFCURVE",
"178 64 OFFCURVE",
"158 64 CURVE SMOOTH"
);
},
{
closed = 1;
nodes = (
"107 42 OFFCURVE",
"105 49 OFFCURVE",
"105 55 CURVE SMOOTH",
"105 61 OFFCURVE",
"107 63 OFFCURVE",
"110 63 CURVE SMOOTH",
"112 63 OFFCURVE",
"114 63 OFFCURVE",
"116 62 CURVE",
"131 53 OFFCURVE",
"151 47 OFFCURVE",
"151 47 CURVE",
"151 47 OFFCURVE",
"129 36 OFFCURVE",
"113 40 CURVE SMOOTH"
);
},
{
closed = 1;
nodes = (
"44 -122 OFFCURVE",
"59 -150 OFFCURVE",
"7 -230 CURVE SMOOTH",
"0 -242 OFFCURVE",
"-11 -256 OFFCURVE",
"-17 -256 CURVE SMOOTH",
"-20 -256 OFFCURVE",
"-22 -252 OFFCURVE",
"-22 -243 CURVE SMOOTH",
"-22 -238 OFFCURVE",
"-22 -231 OFFCURVE",
"-20 -221 CURVE SMOOTH",
"-2 -120 OFFCURVE",
"25 -63 OFFCURVE",
"53 35 CURVE",
"58 32 OFFCURVE",
"65 31 OFFCURVE",
"68 28 CURVE SMOOTH",
"71 25 OFFCURVE",
"64 -24 OFFCURVE",
"56 -64 CURVE SMOOTH"
);
}
);
width = 292;
}
);
note = thorn;
unicode = 00FE;
},
{
glyphname = q;
lastChange = "2022-02-04 13:17:06 +0000";
layers = (
{
layerId = "5ED96FCC-ACEE-47D8-A1F6-56FBB5DDEA2A";
paths = (
{
closed = 1;
nodes = (
"387 -212 OFFCURVE",
"391 -192 OFFCURVE",
"391 -176 CURVE SMOOTH",
"391 -162 OFFCURVE",
"388 -150 OFFCURVE",
"382 -144 CURVE SMOOTH",
"374 -137 OFFCURVE",
"366 -133 OFFCURVE",
"356 -133 CURVE SMOOTH",
"349 -133 OFFCURVE",
"341 -135 OFFCURVE",
"331 -138 CURVE SMOOTH",
"316 -142 OFFCURVE",
"294 -158 OFFCURVE",
"294 -182 CURVE SMOOTH",
"294 -198 OFFCURVE",
"302 -215 OFFCURVE",
"308 -220 CURVE SMOOTH",
"313 -225 OFFCURVE",
"317 -227 OFFCURVE",
"320 -227 CURVE SMOOTH",
"325 -227 OFFCURVE",
"326 -220 OFFCURVE",
"327 -213 CURVE SMOOTH",
"328 -208 OFFCURVE",
"320 -205 OFFCURVE",
"320 -194 CURVE SMOOTH",
"320 -193 OFFCURVE",
"320 -192 OFFCURVE",
"320 -191 CURVE SMOOTH",
"322 -171 OFFCURVE",
"338 -163 OFFCURVE",
"344 -163 CURVE SMOOTH",
"351 -163 OFFCURVE",
"356 -173 OFFCURVE",
"356 -188 CURVE SMOOTH",
"356 -201 OFFCURVE",
"352 -220 OFFCURVE",
"344 -240 CURVE SMOOTH",
"331 -273 OFFCURVE",
"307 -301 OFFCURVE",
"275 -305 CURVE SMOOTH",
"258 -307 OFFCURVE",
"238 -288 OFFCURVE",
"227 -115 CURVE SMOOTH",
"225 -87 OFFCURVE",
"225 -59 OFFCURVE",
"225 -33 CURVE SMOOTH",
"225 58 OFFCURVE",
"233 128 OFFCURVE",
"233 143 CURVE SMOOTH",
"233 164 OFFCURVE",
"248 203 OFFCURVE",
"251 220 CURVE SMOOTH",
"253 233 OFFCURVE",
"260 245 OFFCURVE",
"262 253 CURVE",
"262 269 OFFCURVE",
"258 291 OFFCURVE",
"249 298 CURVE SMOOTH",
"244 301 OFFCURVE",
"240 303 OFFCURVE",
"236 303 CURVE SMOOTH",
"228 303 OFFCURVE",
"221 297 OFFCURVE",
"216 291 CURVE SMOOTH",
"207 278 OFFCURVE",
"200 258 OFFCURVE",
"192 256 CURVE SMOOTH",
"162 249 OFFCURVE",
"117 240 OFFCURVE",
"92 229 CURVE SMOOTH",
"48 211 OFFCURVE",
"31 178 OFFCURVE",
"15 115 CURVE SMOOTH",
"10 95 OFFCURVE",
"8 78 OFFCURVE",
"8 65 CURVE SMOOTH",
"8 12 OFFCURVE",
"40 2 OFFCURVE",
"71 2 CURVE SMOOTH",
"158 2 OFFCURVE",
"158 31 OFFCURVE",
"182 49 CURVE",
"182 37 OFFCURVE",
"182 26 OFFCURVE",
"182 15 CURVE SMOOTH",
"182 -173 OFFCURVE",
"198 -311 OFFCURVE",
"251 -329 CURVE SMOOTH",
"260 -332 OFFCURVE",
"268 -333 OFFCURVE",
"277 -333 CURVE SMOOTH",
"336 -333 OFFCURVE",
"375 -261 OFFCURVE",
"383 -228 CURVE SMOOTH"
);
},
{
closed = 1;
nodes = (
"185 188 OFFCURVE",
"187 173 OFFCURVE",
"187 155 CURVE SMOOTH",
"187 134 OFFCURVE",
"185 110 OFFCURVE",
"178 93 CURVE SMOOTH",
"162 57 OFFCURVE",
"149 46 OFFCURVE",
"115 33 CURVE SMOOTH",
"111 31 OFFCURVE",
"107 31 OFFCURVE",
"103 31 CURVE SMOOTH",
"78 31 OFFCURVE",
"63 67 OFFCURVE",
"65 85 CURVE SMOOTH",
"71 135 OFFCURVE",
"107 186 OFFCURVE",
"142 198 CURVE SMOOTH",
"150 201 OFFCURVE",
"158 203 OFFCURVE",
"165 203 CURVE SMOOTH",
"174 203 OFFCURVE",
"182 199 OFFCURVE",
"184 192 CURVE SMOOTH"
);
}
);
width = 285;
}
);
note = q;
unicode = 0071;
},
{
glyphname = r;
lastChange = "2022-02-04 13:17:06 +0000";
layers = (
{
layerId = "5ED96FCC-ACEE-47D8-A1F6-56FBB5DDEA2A";
paths = (
{
closed = 1;
nodes = (
"223 42 OFFCURVE",
"212 35 OFFCURVE",
"192 28 CURVE SMOOTH",
"185 26 OFFCURVE",
"178 24 OFFCURVE",
"171 24 CURVE SMOOTH",
"161 24 OFFCURVE",
"153 28 OFFCURVE",
"151 45 CURVE SMOOTH",
"148 64 OFFCURVE",
"175 142 OFFCURVE",
"205 196 CURVE SMOOTH",
"211 208 OFFCURVE",
"214 217 OFFCURVE",
"214 223 CURVE SMOOTH",
"214 237 OFFCURVE",
"204 241 OFFCURVE",
"195 243 CURVE SMOOTH",
"182 245 OFFCURVE",
"165 229 OFFCURVE",
"148 204 CURVE",
"136 200 OFFCURVE",
"124 198 OFFCURVE",
"115 198 CURVE SMOOTH",
"109 198 OFFCURVE",
"104 199 OFFCURVE",
"102 202 CURVE",
"106 211 OFFCURVE",
"111 225 OFFCURVE",
"111 237 CURVE SMOOTH",
"111 248 OFFCURVE",
"107 258 OFFCURVE",
"93 262 CURVE SMOOTH",
"71 268 OFFCURVE",
"48 238 OFFCURVE",
"48 209 CURVE SMOOTH",
"48 196 OFFCURVE",
"65 178 OFFCURVE",
"65 178 CURVE",
"65 168 OFFCURVE",
"62 151 OFFCURVE",
"49 131 CURVE SMOOTH",
"22 89 OFFCURVE",
"-13 45 OFFCURVE",
"-45 33 CURVE SMOOTH",
"-57 29 OFFCURVE",
"-62 24 OFFCURVE",
"-62 20 CURVE SMOOTH",
"-62 16 OFFCURVE",
"-57 13 OFFCURVE",
"-49 13 CURVE SMOOTH",
"-12 13 OFFCURVE",
"33 69 OFFCURVE",
"65 122 CURVE SMOOTH",
"77 142 OFFCURVE",
"82 158 OFFCURVE",
"91 172 CURVE",
"105 175 OFFCURVE",
"127 172 OFFCURVE",
"143 178 CURVE",
"135 146 OFFCURVE",
"123 98 OFFCURVE",
"123 57 CURVE SMOOTH",
"123 40 OFFCURVE",
"125 24 OFFCURVE",
"131 12 CURVE SMOOTH",
"135 3 OFFCURVE",
"158 -9 OFFCURVE",
"169 -7 CURVE SMOOTH",
"192 -2 OFFCURVE",
"218 10 OFFCURVE",
"240 30 CURVE SMOOTH",
"252 41 OFFCURVE",
"256 48 OFFCURVE",
"256 52 CURVE SMOOTH",
"256 56 OFFCURVE",
"253 58 OFFCURVE",
"249 58 CURVE SMOOTH",
"246 58 OFFCURVE",
"241 57 OFFCURVE",
"238 54 CURVE SMOOTH"
);
},
{
closed = 1;
nodes = (
"89 213 OFFCURVE",
"82 207 OFFCURVE",
"75 203 CURVE SMOOTH",
"68 199 OFFCURVE",
"67 211 OFFCURVE",
"67 218 CURVE SMOOTH",
"67 226 OFFCURVE",
"73 237 OFFCURVE",
"80 237 CURVE SMOOTH",
"81 237 OFFCURVE",
"82 237 OFFCURVE",
"83 236 CURVE SMOOTH",
"88 233 OFFCURVE",
"89 228 OFFCURVE",
"89 223 CURVE SMOOTH"
);
}
);
width = 251;
}
);
note = r;
unicode = 0072;
},
{
glyphname = s;
lastChange = "2022-02-04 13:17:06 +0000";
layers = (
{
layerId = "5ED96FCC-ACEE-47D8-A1F6-56FBB5DDEA2A";
paths = (
{
closed = 1;
nodes = (
"246 76 OFFCURVE",
"256 104 OFFCURVE",
"249 104 CURVE SMOOTH",
"247 104 OFFCURVE",
"244 102 OFFCURVE",
"240 98 CURVE SMOOTH",
"228 85 OFFCURVE",
"195 43 OFFCURVE",
"178 45 CURVE",
"182 58 OFFCURVE",
"192 76 OFFCURVE",
"192 102 CURVE SMOOTH",
"192 123 OFFCURVE",
"185 150 OFFCURVE",
"162 182 CURVE SMOOTH",
"153 195 OFFCURVE",
"145 209 OFFCURVE",
"142 216 CURVE",
"138 220 OFFCURVE",
"158 240 OFFCURVE",
"158 245 CURVE",
"162 255 OFFCURVE",
"165 265 OFFCURVE",
"165 273 CURVE SMOOTH",
"165 275 OFFCURVE",
"164 277 OFFCURVE",
"164 278 CURVE SMOOTH",
"161 288 OFFCURVE",
"160 295 OFFCURVE",
"149 300 CURVE SMOOTH",
"140 304 OFFCURVE",
"120 298 OFFCURVE",
"111 291 CURVE",
"99 270 OFFCURVE",
"94 256 OFFCURVE",
"94 239 CURVE SMOOTH",
"94 230 OFFCURVE",
"95 221 OFFCURVE",
"98 209 CURVE SMOOTH",
"99 205 OFFCURVE",
"104 203 OFFCURVE",
"104 199 CURVE SMOOTH",
"104 198 OFFCURVE",
"104 196 OFFCURVE",
"103 195 CURVE",
"96 182 OFFCURVE",
"65 152 OFFCURVE",
"42 118 CURVE SMOOTH",
"20 87 OFFCURVE",
"13 80 OFFCURVE",
"-24 43 CURVE SMOOTH",
"-30 37 OFFCURVE",
"-23 28 OFFCURVE",
"-16 28 CURVE SMOOTH",
"-14 28 OFFCURVE",
"-13 28 OFFCURVE",
"-12 29 CURVE",
"-8 32 OFFCURVE",
"22 58 OFFCURVE",
"24 60 CURVE",
"35 28 OFFCURVE",
"51 -22 OFFCURVE",
"103 -20 CURVE SMOOTH",
"155 -17 OFFCURVE",
"168 4 OFFCURVE",
"173 12 CURVE",
"218 35 OFFCURVE",
"223 51 OFFCURVE",
"240 68 CURVE"
);
},
{
closed = 1;
nodes = (
"143 256 OFFCURVE",
"123 235 OFFCURVE",
"118 238 CURVE",
"113 244 OFFCURVE",
"118 251 OFFCURVE",
"122 262 CURVE SMOOTH",
"124 267 OFFCURVE",
"128 275 OFFCURVE",
"135 275 CURVE SMOOTH",
"135 275 OFFCURVE",
"136 275 OFFCURVE",
"136 275 CURVE SMOOTH",
"143 273 OFFCURVE",
"143 265 OFFCURVE",
"143 260 CURVE SMOOTH"
);
},
{
closed = 1;
nodes = (
"145 79 OFFCURVE",
"136 48 OFFCURVE",
"109 42 CURVE SMOOTH",
"82 36 OFFCURVE",
"51 82 OFFCURVE",
"51 82 CURVE",
"53 98 OFFCURVE",
"68 122 OFFCURVE",
"80 136 CURVE SMOOTH",
"98 158 OFFCURVE",
"118 182 OFFCURVE",
"118 182 CURVE",
"123 173 OFFCURVE",
"145 130 OFFCURVE",
"145 100 CURVE SMOOTH"
);
},
{
closed = 1;
nodes = (
"111 22 OFFCURVE",
"104 4 OFFCURVE",
"95 2 CURVE SMOOTH",
"82 -2 OFFCURVE",
"76 4 OFFCURVE",
"65 12 CURVE",
"58 19 OFFCURVE",
"57 26 OFFCURVE",
"57 31 CURVE SMOOTH",
"57 35 OFFCURVE",
"58 38 OFFCURVE",
"58 38 CURVE",
"58 38 OFFCURVE",
"76 27 OFFCURVE",
"83 24 CURVE SMOOTH",
"89 22 OFFCURVE",
"96 22 OFFCURVE",
"102 22 CURVE SMOOTH",
"107 22 OFFCURVE",
"111 22 OFFCURVE",
"111 22 CURVE"
);
}
);
width = 212;
}
);
note = s;
unicode = 0073;
},
{
glyphname = germandbls;
lastChange = "2022-02-04 13:16:50 +0000";
layers = (
{
layerId = "5ED96FCC-ACEE-47D8-A1F6-56FBB5DDEA2A";
paths = (
{
closed = 1;
nodes = (
"-9 -146 OFFCURVE",
"1 -140 OFFCURVE",
"10 -131 CURVE SMOOTH",
"57 -84 OFFCURVE",
"119 90 OFFCURVE",
"134 156 CURVE SMOOTH",
"138 177 OFFCURVE",
"215 451 OFFCURVE",
"220 463 CURVE SMOOTH",
"226 478 OFFCURVE",
"253 592 OFFCURVE",
"326 592 CURVE SMOOTH",
"357 592 OFFCURVE",
"380 571 OFFCURVE",
"380 499 CURVE SMOOTH",
"380 457 OFFCURVE",
"367 402 OFFCURVE",
"328 334 CURVE",
"282 315 OFFCURVE",
"263 283 OFFCURVE",
"263 248 CURVE SMOOTH",
"263 235 OFFCURVE",
"266 222 OFFCURVE",
"270 209 CURVE SMOOTH",
"272 204 OFFCURVE",
"281 188 OFFCURVE",
"288 176 CURVE SMOOTH",
"293 166 OFFCURVE",
"321 123 OFFCURVE",
"317 93 CURVE SMOOTH",
"314 73 OFFCURVE",
"305 47 OFFCURVE",
"281 42 CURVE",
"245 49 OFFCURVE",
"219 70 OFFCURVE",
"206 106 CURVE",
"201 109 OFFCURVE",
"191 107 OFFCURVE",
"191 93 CURVE SMOOTH",
"191 91 OFFCURVE",
"191 89 OFFCURVE",
"191 87 CURVE",
"194 33 OFFCURVE",
"227 -22 OFFCURVE",
"275 -20 CURVE SMOOTH",
"327 -17 OFFCURVE",
"340 4 OFFCURVE",
"345 12 CURVE",
"390 35 OFFCURVE",
"395 51 OFFCURVE",
"412 68 CURVE",
"418 76 OFFCURVE",
"428 104 OFFCURVE",
"421 104 CURVE SMOOTH",
"419 104 OFFCURVE",
"416 102 OFFCURVE",
"412 98 CURVE SMOOTH",
"400 85 OFFCURVE",
"367 43 OFFCURVE",
"350 45 CURVE",
"354 58 OFFCURVE",
"364 76 OFFCURVE",
"364 102 CURVE SMOOTH",
"364 123 OFFCURVE",
"357 150 OFFCURVE",
"334 182 CURVE SMOOTH",
"325 195 OFFCURVE",
"317 209 OFFCURVE",
"314 216 CURVE SMOOTH",
"306 231 OFFCURVE",
"292 246 OFFCURVE",
"292 265 CURVE SMOOTH",
"292 280 OFFCURVE",
"302 298 OFFCURVE",
"335 319 CURVE",
"384 368 OFFCURVE",
"418 443 OFFCURVE",
"418 507 CURVE SMOOTH",
"418 573 OFFCURVE",
"384 611 OFFCURVE",
"315 611 CURVE SMOOTH",
"221 611 OFFCURVE",
"212 560 OFFCURVE",
"172 429 CURVE SMOOTH",
"160 391 OFFCURVE",
"108 207 OFFCURVE",
"96 158 CURVE SMOOTH",
"86 120 OFFCURVE",
"59 35 OFFCURVE",
"43 -1 CURVE SMOOTH",
"36 -15 OFFCURVE",
"-3 -93 OFFCURVE",
"-22 -104 CURVE SMOOTH",
"-32 -110 OFFCURVE",
"-40 -112 OFFCURVE",
"-45 -112 CURVE SMOOTH",
"-54 -112 OFFCURVE",
"-58 -105 OFFCURVE",
"-58 -95 CURVE SMOOTH",
"-58 -75 OFFCURVE",
"-42 -42 OFFCURVE",
"-36 -37 CURVE",
"-35 -32 OFFCURVE",
"-37 -22 OFFCURVE",
"-46 -22 CURVE SMOOTH",
"-66 -22 OFFCURVE",
"-78 -67 OFFCURVE",
"-78 -82 CURVE SMOOTH",
"-80 -124 OFFCURVE",
"-66 -146 OFFCURVE",
"-21 -146 CURVE SMOOTH"
);
},
{
closed = 1;
nodes = (
"254 -2 OFFCURVE",
"248 4 OFFCURVE",
"237 12 CURVE",
"230 19 OFFCURVE",
"229 26 OFFCURVE",
"229 31 CURVE SMOOTH",
"229 35 OFFCURVE",
"230 38 OFFCURVE",
"230 38 CURVE",
"230 38 OFFCURVE",
"248 27 OFFCURVE",
"255 24 CURVE SMOOTH",
"261 22 OFFCURVE",
"268 22 OFFCURVE",
"274 22 CURVE SMOOTH",
"279 22 OFFCURVE",
"283 22 OFFCURVE",
"283 22 CURVE",
"283 22 OFFCURVE",
"276 4 OFFCURVE",
"267 2 CURVE SMOOTH"
);
}
);
width = 384;
}
);
note = germandbls;
rightMetricsKey = s;
unicode = 00DF;
},
{
glyphname = t;
lastChange = "2022-02-04 13:17:06 +0000";
layers = (
{
layerId = "5ED96FCC-ACEE-47D8-A1F6-56FBB5DDEA2A";
paths = (
{
closed = 1;
nodes = (
"280 401 OFFCURVE",
"277 404 OFFCURVE",
"274 404 CURVE SMOOTH",
"269 404 OFFCURVE",
"264 396 OFFCURVE",
"264 384 CURVE",
"264 384 OFFCURVE",
"264 376 OFFCURVE",
"252 369 CURVE SMOOTH",
"248 367 OFFCURVE",
"239 365 OFFCURVE",
"229 365 CURVE SMOOTH",
"222 365 OFFCURVE",
"215 366 OFFCURVE",
"207 367 CURVE",
"218 396 OFFCURVE",
"225 425 OFFCURVE",
"229 451 CURVE SMOOTH",
"240 515 OFFCURVE",
"243 604 OFFCURVE",
"243 604 CURVE",
"244 617 OFFCURVE",
"233 629 OFFCURVE",
"221 629 CURVE SMOOTH",
"214 629 OFFCURVE",
"207 626 OFFCURVE",
"202 618 CURVE",
"151 569 OFFCURVE",
"129 504 OFFCURVE",
"107 436 CURVE SMOOTH",
"103 424 OFFCURVE",
"101 418 OFFCURVE",
"98 405 CURVE SMOOTH",
"96 398 OFFCURVE",
"93 392 OFFCURVE",
"91 384 CURVE",
"78 387 OFFCURVE",
"66 389 OFFCURVE",
"56 389 CURVE SMOOTH",
"45 389 OFFCURVE",
"37 387 OFFCURVE",
"32 382 CURVE SMOOTH",
"27 377 OFFCURVE",
"23 365 OFFCURVE",
"23 356 CURVE SMOOTH",
"23 348 OFFCURVE",
"26 341 OFFCURVE",
"33 341 CURVE SMOOTH",
"36 341 OFFCURVE",
"39 342 OFFCURVE",
"43 344 CURVE SMOOTH",
"48 347 OFFCURVE",
"55 348 OFFCURVE",
"63 348 CURVE SMOOTH",
"68 348 OFFCURVE",
"75 347 OFFCURVE",
"82 347 CURVE",
"56 251 OFFCURVE",
"45 160 OFFCURVE",
"45 102 CURVE SMOOTH",
"45 27 OFFCURVE",
"62 -2 OFFCURVE",
"132 -2 CURVE SMOOTH",
"184 -2 OFFCURVE",
"222 41 OFFCURVE",
"234 57 CURVE SMOOTH",
"242 68 OFFCURVE",
"245 75 OFFCURVE",
"245 79 CURVE SMOOTH",
"245 82 OFFCURVE",
"243 83 OFFCURVE",
"241 83 CURVE SMOOTH",
"237 83 OFFCURVE",
"230 79 OFFCURVE",
"223 73 CURVE SMOOTH",
"203 54 OFFCURVE",
"169 26 OFFCURVE",
"139 26 CURVE SMOOTH",
"112 26 OFFCURVE",
"76 48 OFFCURVE",
"76 97 CURVE SMOOTH",
"76 103 OFFCURVE",
"77 110 OFFCURVE",
"78 118 CURVE SMOOTH",
"83 143 OFFCURVE",
"105 147 OFFCURVE",
"147 228 CURVE SMOOTH",
"165 262 OFFCURVE",
"183 303 OFFCURVE",
"198 342 CURVE",
"224 343 OFFCURVE",
"248 345 OFFCURVE",
"256 351 CURVE SMOOTH",
"289 371 OFFCURVE",
"282 395 OFFCURVE",
"282 395 CURVE"
);
},
{
closed = 1;
nodes = (
"214 560 OFFCURVE",
"216 553 OFFCURVE",
"216 541 CURVE SMOOTH",
"216 511 OFFCURVE",
"205 453 OFFCURVE",
"191 404 CURVE",
"187 395 OFFCURVE",
"183 383 OFFCURVE",
"178 369 CURVE",
"172 371 OFFCURVE",
"165 371 OFFCURVE",
"160 372 CURVE SMOOTH",
"149 374 OFFCURVE",
"140 375 OFFCURVE",
"131 378 CURVE",
"132 383 OFFCURVE",
"133 388 OFFCURVE",
"135 393 CURVE SMOOTH",
"163 480 OFFCURVE",
"198 564 OFFCURVE",
"211 562 CURVE"
);
},
{
closed = 1;
nodes = (
"144 283 OFFCURVE",
"115 211 OFFCURVE",
"92 184 CURVE",
"98 229 OFFCURVE",
"111 292 OFFCURVE",
"123 343 CURVE",
"131 342 OFFCURVE",
"140 342 OFFCURVE",
"149 342 CURVE SMOOTH",
"155 342 OFFCURVE",
"162 342 OFFCURVE",
"167 342 CURVE"
);
}
);
width = 215;
}
);
note = t;
unicode = 0074;
},
{
glyphname = u;
lastChange = "2022-02-04 13:17:06 +0000";
layers = (
{
layerId = "5ED96FCC-ACEE-47D8-A1F6-56FBB5DDEA2A";
paths = (
{
closed = 1;
nodes = (
"314 66 OFFCURVE",
"315 71 OFFCURVE",
"315 75 CURVE SMOOTH",
"315 81 OFFCURVE",
"313 86 OFFCURVE",
"309 86 CURVE SMOOTH",
"306 86 OFFCURVE",
"301 83 OFFCURVE",
"296 75 CURVE SMOOTH",
"284 58 OFFCURVE",
"258 35 OFFCURVE",
"233 35 CURVE SMOOTH",
"222 35 OFFCURVE",
"211 51 OFFCURVE",
"205 62 CURVE SMOOTH",
"195 80 OFFCURVE",
"192 95 OFFCURVE",
"192 115 CURVE SMOOTH",
"192 123 OFFCURVE",
"229 283 OFFCURVE",
"244 318 CURVE SMOOTH",
"247 324 OFFCURVE",
"235 335 OFFCURVE",
"225 335 CURVE SMOOTH",
"221 335 OFFCURVE",
"218 333 OFFCURVE",
"216 328 CURVE SMOOTH",
"204 296 OFFCURVE",
"191 218 OFFCURVE",
"171 164 CURVE SMOOTH",
"148 103 OFFCURVE",
"96 62 OFFCURVE",
"74 62 CURVE SMOOTH",
"57 62 OFFCURVE",
"52 85 OFFCURVE",
"52 108 CURVE SMOOTH",
"52 124 OFFCURVE",
"54 140 OFFCURVE",
"56 148 CURVE SMOOTH",
"73 211 OFFCURVE",
"96 258 OFFCURVE",
"112 303 CURVE",
"112 303 OFFCURVE",
"119 318 OFFCURVE",
"119 332 CURVE SMOOTH",
"119 342 OFFCURVE",
"115 352 OFFCURVE",
"99 352 CURVE SMOOTH",
"86 352 OFFCURVE",
"71 343 OFFCURVE",
"67 331 CURVE SMOOTH",
"42 270 OFFCURVE",
"12 155 OFFCURVE",
"12 89 CURVE SMOOTH",
"12 46 OFFCURVE",
"37 24 OFFCURVE",
"80 24 CURVE SMOOTH",
"103 24 OFFCURVE",
"142 55 OFFCURVE",
"168 78 CURVE",
"178 63 OFFCURVE",
"197 8 OFFCURVE",
"233 8 CURVE SMOOTH",
"251 8 OFFCURVE",
"276 22 OFFCURVE",
"311 63 CURVE"
);
}
);
width = 287;
}
);
note = u;
unicode = 0075;
},
{
glyphname = v;
lastChange = "2022-02-04 13:17:06 +0000";
layers = (
{
layerId = "5ED96FCC-ACEE-47D8-A1F6-56FBB5DDEA2A";
paths = (
{
closed = 1;
nodes = (
"255 278 OFFCURVE",
"256 286 OFFCURVE",
"256 292 CURVE SMOOTH",
"256 301 OFFCURVE",
"254 308 OFFCURVE",
"246 308 CURVE SMOOTH",
"244 308 OFFCURVE",
"240 307 OFFCURVE",
"236 305 CURVE",
"208 278 OFFCURVE",
"169 188 OFFCURVE",
"158 158 CURVE SMOOTH",
"140 111 OFFCURVE",
"107 68 OFFCURVE",
"80 48 CURVE",
"56 51 OFFCURVE",
"55 75 OFFCURVE",
"55 102 CURVE SMOOTH",
"55 153 OFFCURVE",
"71 191 OFFCURVE",
"78 198 CURVE",
"108 208 OFFCURVE",
"112 220 OFFCURVE",
"122 238 CURVE SMOOTH",
"126 245 OFFCURVE",
"127 251 OFFCURVE",
"127 256 CURVE SMOOTH",
"127 264 OFFCURVE",
"123 269 OFFCURVE",
"122 273 CURVE SMOOTH",
"119 282 OFFCURVE",
"112 288 OFFCURVE",
"104 288 CURVE SMOOTH",
"99 288 OFFCURVE",
"92 284 OFFCURVE",
"85 276 CURVE SMOOTH",
"68 256 OFFCURVE",
"69 229 OFFCURVE",
"45 222 CURVE",
"43 220 OFFCURVE",
"23 231 OFFCURVE",
"11 244 CURVE SMOOTH",
"7 249 OFFCURVE",
"3 237 OFFCURVE",
"3 229 CURVE SMOOTH",
"3 226 OFFCURVE",
"3 224 OFFCURVE",
"4 223 CURVE SMOOTH",
"16 211 OFFCURVE",
"43 205 OFFCURVE",
"43 198 CURVE SMOOTH",
"43 180 OFFCURVE",
"29 144 OFFCURVE",
"23 111 CURVE SMOOTH",
"20 91 OFFCURVE",
"25 2 OFFCURVE",
"52 -5 CURVE SMOOTH",
"76 -12 OFFCURVE",
"107 44 OFFCURVE",
"138 78 CURVE",
"165 127 OFFCURVE",
"196 165 OFFCURVE",
"220 198 CURVE SMOOTH",
"235 218 OFFCURVE",
"245 244 OFFCURVE",
"253 273 CURVE SMOOTH"
);
},
{
closed = 1;
nodes = (
"95 232 OFFCURVE",
"91 226 OFFCURVE",
"87 226 CURVE SMOOTH",
"86 226 OFFCURVE",
"85 226 OFFCURVE",
"84 227 CURVE SMOOTH",
"82 229 OFFCURVE",
"81 232 OFFCURVE",
"83 236 CURVE",
"84 241 OFFCURVE",
"88 247 OFFCURVE",
"92 247 CURVE SMOOTH",
"92 247 OFFCURVE",
"93 247 OFFCURVE",
"93 247 CURVE",
"96 244 OFFCURVE",
"96 242 OFFCURVE",
"96 238 CURVE SMOOTH"
);
}
);
width = 227;
}
);
note = v;
unicode = 0076;
},
{
glyphname = w;
lastChange = "2022-02-04 13:17:06 +0000";
layers = (
{
layerId = "5ED96FCC-ACEE-47D8-A1F6-56FBB5DDEA2A";
paths = (
{
closed = 1;
nodes = (
"365 238 OFFCURVE",
"358 243 OFFCURVE",
"350 243 CURVE SMOOTH",
"341 243 OFFCURVE",
"332 234 OFFCURVE",
"328 218 CURVE SMOOTH",
"324 202 OFFCURVE",
"298 140 OFFCURVE",
"279 105 CURVE SMOOTH",
"246 44 OFFCURVE",
"216 18 OFFCURVE",
"192 8 CURVE SMOOTH",
"187 6 OFFCURVE",
"182 5 OFFCURVE",
"178 5 CURVE SMOOTH",
"153 5 OFFCURVE",
"145 38 OFFCURVE",
"145 53 CURVE",
"160 84 OFFCURVE",
"178 107 OFFCURVE",
"202 140 CURVE SMOOTH",
"216 160 OFFCURVE",
"227 185 OFFCURVE",
"235 215 CURVE SMOOTH",
"236 221 OFFCURVE",
"238 228 OFFCURVE",
"238 234 CURVE SMOOTH",
"238 243 OFFCURVE",
"235 250 OFFCURVE",
"228 250 CURVE SMOOTH",
"225 250 OFFCURVE",
"222 249 OFFCURVE",
"218 247 CURVE",
"189 218 OFFCURVE",
"169 188 OFFCURVE",
"158 158 CURVE SMOOTH",
"140 111 OFFCURVE",
"133 76 OFFCURVE",
"88 48 CURVE",
"64 51 OFFCURVE",
"55 75 OFFCURVE",
"55 102 CURVE SMOOTH",
"55 153 OFFCURVE",
"71 191 OFFCURVE",
"78 198 CURVE",
"108 208 OFFCURVE",
"112 220 OFFCURVE",
"122 238 CURVE SMOOTH",
"126 245 OFFCURVE",
"127 251 OFFCURVE",
"127 256 CURVE SMOOTH",
"127 264 OFFCURVE",
"123 269 OFFCURVE",
"122 273 CURVE SMOOTH",
"119 282 OFFCURVE",
"112 288 OFFCURVE",
"104 288 CURVE SMOOTH",
"99 288 OFFCURVE",
"92 284 OFFCURVE",
"85 276 CURVE SMOOTH",
"68 256 OFFCURVE",
"69 229 OFFCURVE",
"45 222 CURVE",
"43 220 OFFCURVE",
"23 231 OFFCURVE",
"11 244 CURVE SMOOTH",
"7 249 OFFCURVE",
"3 237 OFFCURVE",
"3 229 CURVE SMOOTH",
"3 226 OFFCURVE",
"3 224 OFFCURVE",
"4 223 CURVE SMOOTH",
"16 211 OFFCURVE",
"43 205 OFFCURVE",
"43 198 CURVE SMOOTH",
"43 176 OFFCURVE",
"22 125 OFFCURVE",
"22 88 CURVE SMOOTH",
"22 59 OFFCURVE",
"27 16 OFFCURVE",
"47 11 CURVE SMOOTH",
"56 9 OFFCURVE",
"62 7 OFFCURVE",
"68 7 CURVE SMOOTH",
"80 7 OFFCURVE",
"91 13 OFFCURVE",
"115 32 CURVE",
"118 9 OFFCURVE",
"115 -43 OFFCURVE",
"158 -43 CURVE SMOOTH",
"252 -43 OFFCURVE",
"317 160 OFFCURVE",
"342 195 CURVE SMOOTH",
"346 200 OFFCURVE",
"351 203 OFFCURVE",
"355 203 CURVE SMOOTH",
"358 203 OFFCURVE",
"361 201 OFFCURVE",
"364 198 CURVE",
"374 190 OFFCURVE",
"377 198 OFFCURVE",
"377 207 CURVE SMOOTH",
"377 215 OFFCURVE",
"375 223 OFFCURVE",
"373 227 CURVE SMOOTH"
);
},
{
closed = 1;
nodes = (
"95 232 OFFCURVE",
"91 226 OFFCURVE",
"87 226 CURVE SMOOTH",
"86 226 OFFCURVE",
"85 226 OFFCURVE",
"84 227 CURVE SMOOTH",
"82 229 OFFCURVE",
"81 232 OFFCURVE",
"83 236 CURVE",
"84 241 OFFCURVE",
"88 247 OFFCURVE",
"92 247 CURVE SMOOTH",
"92 247 OFFCURVE",
"93 247 OFFCURVE",
"93 247 CURVE",
"96 244 OFFCURVE",
"96 242 OFFCURVE",
"96 238 CURVE SMOOTH"
);
}
);
width = 360;
}
);
note = w;
unicode = 0077;
},
